<svg width="603" height="489" viewBox="0 0 603 489" fill="none" xmlns="http://www.w3.org/2000/svg">
<g clip-path="url(#clip0)">
<path d="M0.293732 489H198.937V487.376H6.10352e-05L0.293732 489Z" fill="#3F3D56"/>
<path d="M597.75 10.5088C594.849 10.5088 592.498 8.15648 592.498 5.25474C592.498 2.353 594.849 0.000671387 597.75 0.000671387C600.65 0.000671387 603.001 2.353 603.001 5.25474C603.001 8.15648 600.65 10.5088 597.75 10.5088Z" fill="#E6E6E6"/>
<path d="M571.168 10.5087C568.268 10.5087 565.917 8.15636 565.917 5.25462C565.917 2.35288 568.268 0.000549316 571.168 0.000549316C574.069 0.000549316 576.42 2.35288 576.42 5.25462C576.42 8.15636 574.069 10.5087 571.168 10.5087Z" fill="#E6E6E6"/>
<path d="M544.587 10.5087C541.687 10.5087 539.336 8.15636 539.336 5.25462C539.336 2.35288 541.687 0.000549316 544.587 0.000549316C547.487 0.000549316 549.838 2.35288 549.838 5.25462C549.838 8.15636 547.487 10.5087 544.587 10.5087Z" fill="#E6E6E6"/>
<path d="M518.006 10.5087C515.105 10.5087 512.754 8.15636 512.754 5.25462C512.754 2.35288 515.105 0.000549316 518.006 0.000549316C520.906 0.000549316 523.257 2.35288 523.257 5.25462C523.257 8.15636 520.906 10.5087 518.006 10.5087Z" fill="#E6E6E6"/>
<path d="M491.425 10.5087C488.525 10.5087 486.174 8.15636 486.174 5.25462C486.174 2.35288 488.525 0.000549316 491.425 0.000549316C494.325 0.000549316 496.676 2.35288 496.676 5.25462C496.676 8.15636 494.325 10.5087 491.425 10.5087Z" fill="#E6E6E6"/>
<path d="M464.843 10.5087C461.943 10.5087 459.592 8.15636 459.592 5.25462C459.592 2.35288 461.943 0.000549316 464.843 0.000549316C467.743 0.000549316 470.094 2.35288 470.094 5.25462C470.094 8.15636 467.743 10.5087 464.843 10.5087Z" fill="#E6E6E6"/>
<path d="M438.262 10.5087C435.362 10.5087 433.011 8.15636 433.011 5.25462C433.011 2.35288 435.362 0.000549316 438.262 0.000549316C441.162 0.000549316 443.513 2.35288 443.513 5.25462C443.513 8.15636 441.162 10.5087 438.262 10.5087Z" fill="#E6E6E6"/>
<path d="M411.68 10.5087C408.78 10.5087 406.429 8.15636 406.429 5.25462C406.429 2.35288 408.78 0.000549316 411.68 0.000549316C414.58 0.000549316 416.932 2.35288 416.932 5.25462C416.932 8.15636 414.58 10.5087 411.68 10.5087Z" fill="#E6E6E6"/>
<path d="M385.1 10.5087C382.2 10.5087 379.849 8.15636 379.849 5.25462C379.849 2.35288 382.2 0.000549316 385.1 0.000549316C388 0.000549316 390.351 2.35288 390.351 5.25462C390.351 8.15636 388 10.5087 385.1 10.5087Z" fill="#E6E6E6"/>
<path d="M358.518 10.5087C355.618 10.5087 353.267 8.15636 353.267 5.25462C353.267 2.35288 355.618 0.000549316 358.518 0.000549316C361.418 0.000549316 363.769 2.35288 363.769 5.25462C363.769 8.15636 361.418 10.5087 358.518 10.5087Z" fill="#E6E6E6"/>
<path d="M597.749 37.4386C594.849 37.4386 592.498 35.0862 592.498 32.1845C592.498 29.2827 594.849 26.9304 597.749 26.9304C600.649 26.9304 603 29.2827 603 32.1845C603 35.0862 600.649 37.4386 597.749 37.4386Z" fill="#E6E6E6"/>
<path d="M571.168 37.4386C568.268 37.4386 565.917 35.0862 565.917 32.1845C565.917 29.2827 568.268 26.9304 571.168 26.9304C574.069 26.9304 576.42 29.2827 576.42 32.1845C576.42 35.0862 574.069 37.4386 571.168 37.4386Z" fill="#E6E6E6"/>
<path d="M544.587 37.4386C541.687 37.4386 539.336 35.0862 539.336 32.1845C539.336 29.2827 541.687 26.9304 544.587 26.9304C547.487 26.9304 549.838 29.2827 549.838 32.1845C549.838 35.0862 547.487 37.4386 544.587 37.4386Z" fill="#E6E6E6"/>
<path d="M518.006 37.4386C515.105 37.4386 512.754 35.0862 512.754 32.1845C512.754 29.2827 515.105 26.9304 518.006 26.9304C520.906 26.9304 523.257 29.2827 523.257 32.1845C523.257 35.0862 520.906 37.4386 518.006 37.4386Z" fill="#9170FF"/>
<path d="M491.425 37.4386C488.525 37.4386 486.174 35.0862 486.174 32.1845C486.174 29.2827 488.525 26.9304 491.425 26.9304C494.325 26.9304 496.676 29.2827 496.676 32.1845C496.676 35.0862 494.325 37.4386 491.425 37.4386Z" fill="#E6E6E6"/>
<path d="M464.843 37.4386C461.943 37.4386 459.592 35.0862 459.592 32.1845C459.592 29.2827 461.943 26.9304 464.843 26.9304C467.743 26.9304 470.094 29.2827 470.094 32.1845C470.094 35.0862 467.743 37.4386 464.843 37.4386Z" fill="#E6E6E6"/>
<path d="M438.262 37.4386C435.362 37.4386 433.011 35.0862 433.011 32.1845C433.011 29.2827 435.362 26.9304 438.262 26.9304C441.162 26.9304 443.513 29.2827 443.513 32.1845C443.513 35.0862 441.162 37.4386 438.262 37.4386Z" fill="#E6E6E6"/>
<path d="M411.68 37.4386C408.78 37.4386 406.429 35.0862 406.429 32.1845C406.429 29.2827 408.78 26.9304 411.68 26.9304C414.58 26.9304 416.932 29.2827 416.932 32.1845C416.932 35.0862 414.58 37.4386 411.68 37.4386Z" fill="#E6E6E6"/>
<path d="M385.1 37.4386C382.2 37.4386 379.849 35.0862 379.849 32.1845C379.849 29.2827 382.2 26.9304 385.1 26.9304C388 26.9304 390.351 29.2827 390.351 32.1845C390.351 35.0862 388 37.4386 385.1 37.4386Z" fill="#E6E6E6"/>
<path d="M358.518 37.4386C355.618 37.4386 353.267 35.0862 353.267 32.1845C353.267 29.2827 355.618 26.9304 358.518 26.9304C361.418 26.9304 363.769 29.2827 363.769 32.1845C363.769 35.0862 361.418 37.4386 358.518 37.4386Z" fill="#E6E6E6"/>
<path d="M597.749 64.3684C594.849 64.3684 592.498 62.0161 592.498 59.1144C592.498 56.2126 594.849 53.8603 597.749 53.8603C600.649 53.8603 603 56.2126 603 59.1144C603 62.0161 600.649 64.3684 597.749 64.3684Z" fill="#E6E6E6"/>
<path d="M571.168 64.3684C568.268 64.3684 565.917 62.0161 565.917 59.1144C565.917 56.2126 568.268 53.8603 571.168 53.8603C574.069 53.8603 576.42 56.2126 576.42 59.1144C576.42 62.0161 574.069 64.3684 571.168 64.3684Z" fill="#E6E6E6"/>
<path d="M544.587 64.3684C541.687 64.3684 539.336 62.0161 539.336 59.1144C539.336 56.2126 541.687 53.8603 544.587 53.8603C547.487 53.8603 549.838 56.2126 549.838 59.1144C549.838 62.0161 547.487 64.3684 544.587 64.3684Z" fill="#E6E6E6"/>
<path d="M518.006 64.3684C515.105 64.3684 512.754 62.0161 512.754 59.1144C512.754 56.2126 515.105 53.8603 518.006 53.8603C520.906 53.8603 523.257 56.2126 523.257 59.1144C523.257 62.0161 520.906 64.3684 518.006 64.3684Z" fill="#E6E6E6"/>
<path d="M491.425 64.3684C488.525 64.3684 486.174 62.0161 486.174 59.1144C486.174 56.2126 488.525 53.8603 491.425 53.8603C494.325 53.8603 496.676 56.2126 496.676 59.1144C496.676 62.0161 494.325 64.3684 491.425 64.3684Z" fill="#E6E6E6"/>
<path d="M464.843 64.3684C461.943 64.3684 459.592 62.0161 459.592 59.1144C459.592 56.2126 461.943 53.8603 464.843 53.8603C467.743 53.8603 470.094 56.2126 470.094 59.1144C470.094 62.0161 467.743 64.3684 464.843 64.3684Z" fill="#E6E6E6"/>
<path d="M438.262 64.3684C435.362 64.3684 433.011 62.0161 433.011 59.1144C433.011 56.2126 435.362 53.8603 438.262 53.8603C441.162 53.8603 443.513 56.2126 443.513 59.1144C443.513 62.0161 441.162 64.3684 438.262 64.3684Z" fill="#E6E6E6"/>
<path d="M411.68 64.3684C408.78 64.3684 406.429 62.0161 406.429 59.1144C406.429 56.2126 408.78 53.8603 411.68 53.8603C414.58 53.8603 416.932 56.2126 416.932 59.1144C416.932 62.0161 414.58 64.3684 411.68 64.3684Z" fill="#E6E6E6"/>
<path d="M385.1 64.3684C382.2 64.3684 379.849 62.0161 379.849 59.1144C379.849 56.2126 382.2 53.8603 385.1 53.8603C388 53.8603 390.351 56.2126 390.351 59.1144C390.351 62.0161 388 64.3684 385.1 64.3684Z" fill="#E6E6E6"/>
<path d="M358.518 64.3684C355.618 64.3684 353.267 62.0161 353.267 59.1144C353.267 56.2126 355.618 53.8603 358.518 53.8603C361.418 53.8603 363.769 56.2126 363.769 59.1144C363.769 62.0161 361.418 64.3684 358.518 64.3684Z" fill="#E6E6E6"/>
<path d="M597.749 91.2982C594.849 91.2982 592.498 88.9459 592.498 86.0442C592.498 83.1424 594.849 80.7901 597.749 80.7901C600.649 80.7901 603 83.1424 603 86.0442C603 88.9459 600.649 91.2982 597.749 91.2982Z" fill="#E6E6E6"/>
<path d="M571.168 91.2982C568.268 91.2982 565.917 88.9459 565.917 86.0442C565.917 83.1424 568.268 80.7901 571.168 80.7901C574.069 80.7901 576.42 83.1424 576.42 86.0442C576.42 88.9459 574.069 91.2982 571.168 91.2982Z" fill="#E6E6E6"/>
<path d="M544.587 91.2982C541.687 91.2982 539.336 88.9459 539.336 86.0442C539.336 83.1424 541.687 80.7901 544.587 80.7901C547.487 80.7901 549.838 83.1424 549.838 86.0442C549.838 88.9459 547.487 91.2982 544.587 91.2982Z" fill="#E6E6E6"/>
<path d="M518.006 91.2982C515.105 91.2982 512.754 88.9459 512.754 86.0442C512.754 83.1424 515.105 80.7901 518.006 80.7901C520.906 80.7901 523.257 83.1424 523.257 86.0442C523.257 88.9459 520.906 91.2982 518.006 91.2982Z" fill="#E6E6E6"/>
<path d="M491.425 91.2982C488.525 91.2982 486.174 88.9459 486.174 86.0442C486.174 83.1424 488.525 80.7901 491.425 80.7901C494.325 80.7901 496.676 83.1424 496.676 86.0442C496.676 88.9459 494.325 91.2982 491.425 91.2982Z" fill="#E6E6E6"/>
<path d="M464.843 91.2982C461.943 91.2982 459.592 88.9459 459.592 86.0442C459.592 83.1424 461.943 80.7901 464.843 80.7901C467.743 80.7901 470.094 83.1424 470.094 86.0442C470.094 88.9459 467.743 91.2982 464.843 91.2982Z" fill="#E6E6E6"/>
<path d="M438.262 91.2982C435.362 91.2982 433.011 88.9459 433.011 86.0442C433.011 83.1424 435.362 80.7901 438.262 80.7901C441.162 80.7901 443.513 83.1424 443.513 86.0442C443.513 88.9459 441.162 91.2982 438.262 91.2982Z" fill="#E6E6E6"/>
<path d="M411.68 91.2982C408.78 91.2982 406.429 88.9459 406.429 86.0442C406.429 83.1424 408.78 80.7901 411.68 80.7901C414.58 80.7901 416.932 83.1424 416.932 86.0442C416.932 88.9459 414.58 91.2982 411.68 91.2982Z" fill="#E6E6E6"/>
<path d="M385.1 91.2982C382.2 91.2982 379.849 88.9459 379.849 86.0442C379.849 83.1424 382.2 80.7901 385.1 80.7901C388 80.7901 390.351 83.1424 390.351 86.0442C390.351 88.9459 388 91.2982 385.1 91.2982Z" fill="#E6E6E6"/>
<path d="M358.518 91.2982C355.618 91.2982 353.267 88.9459 353.267 86.0442C353.267 83.1424 355.618 80.7901 358.518 80.7901C361.418 80.7901 363.769 83.1424 363.769 86.0442C363.769 88.9459 361.418 91.2982 358.518 91.2982Z" fill="#E6E6E6"/>
<path d="M597.749 118.228C594.849 118.228 592.498 115.876 592.498 112.974C592.498 110.072 594.849 107.72 597.749 107.72C600.649 107.72 603 110.072 603 112.974C603 115.876 600.649 118.228 597.749 118.228Z" fill="#E6E6E6"/>
<path d="M571.168 118.228C568.268 118.228 565.917 115.876 565.917 112.974C565.917 110.072 568.268 107.72 571.168 107.72C574.069 107.72 576.42 110.072 576.42 112.974C576.42 115.876 574.069 118.228 571.168 118.228Z" fill="#9170FF"/>
<path d="M544.587 118.228C541.687 118.228 539.336 115.876 539.336 112.974C539.336 110.072 541.687 107.72 544.587 107.72C547.487 107.72 549.838 110.072 549.838 112.974C549.838 115.876 547.487 118.228 544.587 118.228Z" fill="#E6E6E6"/>
<path d="M518.006 118.228C515.105 118.228 512.754 115.876 512.754 112.974C512.754 110.072 515.105 107.72 518.006 107.72C520.906 107.72 523.257 110.072 523.257 112.974C523.257 115.876 520.906 118.228 518.006 118.228Z" fill="#E6E6E6"/>
<path d="M491.425 118.228C488.525 118.228 486.174 115.876 486.174 112.974C486.174 110.072 488.525 107.72 491.425 107.72C494.325 107.72 496.676 110.072 496.676 112.974C496.676 115.876 494.325 118.228 491.425 118.228Z" fill="#E6E6E6"/>
<path d="M464.843 118.228C461.943 118.228 459.592 115.876 459.592 112.974C459.592 110.072 461.943 107.72 464.843 107.72C467.743 107.72 470.094 110.072 470.094 112.974C470.094 115.876 467.743 118.228 464.843 118.228Z" fill="#E6E6E6"/>
<path d="M438.262 118.228C435.362 118.228 433.011 115.876 433.011 112.974C433.011 110.072 435.362 107.72 438.262 107.72C441.162 107.72 443.513 110.072 443.513 112.974C443.513 115.876 441.162 118.228 438.262 118.228Z" fill="#E6E6E6"/>
<path d="M411.68 118.228C408.78 118.228 406.429 115.876 406.429 112.974C406.429 110.072 408.78 107.72 411.68 107.72C414.58 107.72 416.932 110.072 416.932 112.974C416.932 115.876 414.58 118.228 411.68 118.228Z" fill="#E6E6E6"/>
<path d="M385.1 118.228C382.2 118.228 379.849 115.876 379.849 112.974C379.849 110.072 382.2 107.72 385.1 107.72C388 107.72 390.351 110.072 390.351 112.974C390.351 115.876 388 118.228 385.1 118.228Z" fill="#E6E6E6"/>
<path d="M358.518 118.228C355.618 118.228 353.267 115.876 353.267 112.974C353.267 110.072 355.618 107.72 358.518 107.72C361.418 107.72 363.769 110.072 363.769 112.974C363.769 115.876 361.418 118.228 358.518 118.228Z" fill="#E6E6E6"/>
<path d="M597.749 145.158C594.849 145.158 592.498 142.806 592.498 139.904C592.498 137.002 594.849 134.65 597.749 134.65C600.649 134.65 603 137.002 603 139.904C603 142.806 600.649 145.158 597.749 145.158Z" fill="#E6E6E6"/>
<path d="M571.168 145.158C568.268 145.158 565.917 142.806 565.917 139.904C565.917 137.002 568.268 134.65 571.168 134.65C574.069 134.65 576.42 137.002 576.42 139.904C576.42 142.806 574.069 145.158 571.168 145.158Z" fill="#E6E6E6"/>
<path d="M544.587 145.158C541.687 145.158 539.336 142.806 539.336 139.904C539.336 137.002 541.687 134.65 544.587 134.65C547.487 134.65 549.838 137.002 549.838 139.904C549.838 142.806 547.487 145.158 544.587 145.158Z" fill="#E6E6E6"/>
<path d="M518.006 145.158C515.105 145.158 512.754 142.806 512.754 139.904C512.754 137.002 515.105 134.65 518.006 134.65C520.906 134.65 523.257 137.002 523.257 139.904C523.257 142.806 520.906 145.158 518.006 145.158Z" fill="#E6E6E6"/>
<path d="M491.425 145.158C488.525 145.158 486.174 142.806 486.174 139.904C486.174 137.002 488.525 134.65 491.425 134.65C494.325 134.65 496.676 137.002 496.676 139.904C496.676 142.806 494.325 145.158 491.425 145.158Z" fill="#E6E6E6"/>
<path d="M464.843 145.158C461.943 145.158 459.592 142.806 459.592 139.904C459.592 137.002 461.943 134.65 464.843 134.65C467.743 134.65 470.094 137.002 470.094 139.904C470.094 142.806 467.743 145.158 464.843 145.158Z" fill="#E6E6E6"/>
<path d="M438.262 145.158C435.362 145.158 433.011 142.806 433.011 139.904C433.011 137.002 435.362 134.65 438.262 134.65C441.162 134.65 443.513 137.002 443.513 139.904C443.513 142.806 441.162 145.158 438.262 145.158Z" fill="#E6E6E6"/>
<path d="M411.68 145.158C408.78 145.158 406.429 142.806 406.429 139.904C406.429 137.002 408.78 134.65 411.68 134.65C414.58 134.65 416.932 137.002 416.932 139.904C416.932 142.806 414.58 145.158 411.68 145.158Z" fill="#E6E6E6"/>
<path d="M385.1 145.158C382.2 145.158 379.849 142.806 379.849 139.904C379.849 137.002 382.2 134.65 385.1 134.65C388 134.65 390.351 137.002 390.351 139.904C390.351 142.806 388 145.158 385.1 145.158Z" fill="#E6E6E6"/>
<path d="M358.518 145.158C355.618 145.158 353.267 142.806 353.267 139.904C353.267 137.002 355.618 134.65 358.518 134.65C361.418 134.65 363.769 137.002 363.769 139.904C363.769 142.806 361.418 145.158 358.518 145.158Z" fill="#E6E6E6"/>
<path d="M597.749 172.088C594.849 172.088 592.498 169.736 592.498 166.834C592.498 163.932 594.849 161.58 597.749 161.58C600.649 161.58 603 163.932 603 166.834C603 169.736 600.649 172.088 597.749 172.088Z" fill="#E6E6E6"/>
<path d="M571.168 172.088C568.268 172.088 565.917 169.736 565.917 166.834C565.917 163.932 568.268 161.58 571.168 161.58C574.069 161.58 576.42 163.932 576.42 166.834C576.42 169.736 574.069 172.088 571.168 172.088Z" fill="#E6E6E6"/>
<path d="M544.587 172.088C541.687 172.088 539.336 169.736 539.336 166.834C539.336 163.932 541.687 161.58 544.587 161.58C547.487 161.58 549.838 163.932 549.838 166.834C549.838 169.736 547.487 172.088 544.587 172.088Z" fill="#9170FF"/>
<path d="M518.006 172.088C515.105 172.088 512.754 169.736 512.754 166.834C512.754 163.932 515.105 161.58 518.006 161.58C520.906 161.58 523.257 163.932 523.257 166.834C523.257 169.736 520.906 172.088 518.006 172.088Z" fill="#E6E6E6"/>
<path d="M491.425 172.088C488.525 172.088 486.174 169.736 486.174 166.834C486.174 163.932 488.525 161.58 491.425 161.58C494.325 161.58 496.676 163.932 496.676 166.834C496.676 169.736 494.325 172.088 491.425 172.088Z" fill="#E6E6E6"/>
<path d="M464.843 172.088C461.943 172.088 459.592 169.736 459.592 166.834C459.592 163.932 461.943 161.58 464.843 161.58C467.743 161.58 470.094 163.932 470.094 166.834C470.094 169.736 467.743 172.088 464.843 172.088Z" fill="#E6E6E6"/>
<path d="M438.262 172.088C435.362 172.088 433.011 169.736 433.011 166.834C433.011 163.932 435.362 161.58 438.262 161.58C441.162 161.58 443.513 163.932 443.513 166.834C443.513 169.736 441.162 172.088 438.262 172.088Z" fill="#E6E6E6"/>
<path d="M411.68 172.088C408.78 172.088 406.429 169.736 406.429 166.834C406.429 163.932 408.78 161.58 411.68 161.58C414.58 161.58 416.932 163.932 416.932 166.834C416.932 169.736 414.58 172.088 411.68 172.088Z" fill="#E6E6E6"/>
<path d="M385.1 172.088C382.2 172.088 379.849 169.736 379.849 166.834C379.849 163.932 382.2 161.58 385.1 161.58C388 161.58 390.351 163.932 390.351 166.834C390.351 169.736 388 172.088 385.1 172.088Z" fill="#E6E6E6"/>
<path d="M358.518 172.088C355.618 172.088 353.267 169.736 353.267 166.834C353.267 163.932 355.618 161.58 358.518 161.58C361.418 161.58 363.769 163.932 363.769 166.834C363.769 169.736 361.418 172.088 358.518 172.088Z" fill="#E6E6E6"/>
<path d="M597.749 199.018C594.849 199.018 592.498 196.665 592.498 193.764C592.498 190.862 594.849 188.51 597.749 188.51C600.649 188.51 603 190.862 603 193.764C603 196.665 600.649 199.018 597.749 199.018Z" fill="#E6E6E6"/>
<path d="M571.168 199.018C568.268 199.018 565.917 196.665 565.917 193.764C565.917 190.862 568.268 188.51 571.168 188.51C574.069 188.51 576.42 190.862 576.42 193.764C576.42 196.665 574.069 199.018 571.168 199.018Z" fill="#E6E6E6"/>
<path d="M544.587 199.018C541.687 199.018 539.336 196.665 539.336 193.764C539.336 190.862 541.687 188.51 544.587 188.51C547.487 188.51 549.838 190.862 549.838 193.764C549.838 196.665 547.487 199.018 544.587 199.018Z" fill="#E6E6E6"/>
<path d="M518.006 199.018C515.105 199.018 512.754 196.665 512.754 193.764C512.754 190.862 515.105 188.51 518.006 188.51C520.906 188.51 523.257 190.862 523.257 193.764C523.257 196.665 520.906 199.018 518.006 199.018Z" fill="#E6E6E6"/>
<path d="M491.425 199.018C488.525 199.018 486.174 196.665 486.174 193.764C486.174 190.862 488.525 188.51 491.425 188.51C494.325 188.51 496.676 190.862 496.676 193.764C496.676 196.665 494.325 199.018 491.425 199.018Z" fill="#E6E6E6"/>
<path d="M464.843 199.018C461.943 199.018 459.592 196.665 459.592 193.764C459.592 190.862 461.943 188.51 464.843 188.51C467.743 188.51 470.094 190.862 470.094 193.764C470.094 196.665 467.743 199.018 464.843 199.018Z" fill="#E6E6E6"/>
<path d="M438.262 199.018C435.362 199.018 433.011 196.665 433.011 193.764C433.011 190.862 435.362 188.51 438.262 188.51C441.162 188.51 443.513 190.862 443.513 193.764C443.513 196.665 441.162 199.018 438.262 199.018Z" fill="#E6E6E6"/>
<path d="M411.68 199.018C408.78 199.018 406.429 196.665 406.429 193.764C406.429 190.862 408.78 188.51 411.68 188.51C414.58 188.51 416.932 190.862 416.932 193.764C416.932 196.665 414.58 199.018 411.68 199.018Z" fill="#E6E6E6"/>
<path d="M385.1 199.018C382.2 199.018 379.849 196.665 379.849 193.764C379.849 190.862 382.2 188.51 385.1 188.51C388 188.51 390.351 190.862 390.351 193.764C390.351 196.665 388 199.018 385.1 199.018Z" fill="#E6E6E6"/>
<path d="M358.518 199.018C355.618 199.018 353.267 196.665 353.267 193.764C353.267 190.862 355.618 188.51 358.518 188.51C361.418 188.51 363.769 190.862 363.769 193.764C363.769 196.665 361.418 199.018 358.518 199.018Z" fill="#E6E6E6"/>
<path d="M597.749 225.948C594.849 225.948 592.498 223.595 592.498 220.694C592.498 217.792 594.849 215.439 597.749 215.439C600.649 215.439 603 217.792 603 220.694C603 223.595 600.649 225.948 597.749 225.948Z" fill="#E6E6E6"/>
<path d="M571.168 225.948C568.268 225.948 565.917 223.595 565.917 220.694C565.917 217.792 568.268 215.439 571.168 215.439C574.069 215.439 576.42 217.792 576.42 220.694C576.42 223.595 574.069 225.948 571.168 225.948Z" fill="#E6E6E6"/>
<path d="M544.587 225.948C541.687 225.948 539.336 223.595 539.336 220.694C539.336 217.792 541.687 215.439 544.587 215.439C547.487 215.439 549.838 217.792 549.838 220.694C549.838 223.595 547.487 225.948 544.587 225.948Z" fill="#E6E6E6"/>
<path d="M518.006 225.948C515.105 225.948 512.754 223.595 512.754 220.694C512.754 217.792 515.105 215.439 518.006 215.439C520.906 215.439 523.257 217.792 523.257 220.694C523.257 223.595 520.906 225.948 518.006 225.948Z" fill="#E6E6E6"/>
<path d="M491.425 225.948C488.525 225.948 486.174 223.595 486.174 220.694C486.174 217.792 488.525 215.439 491.425 215.439C494.325 215.439 496.676 217.792 496.676 220.694C496.676 223.595 494.325 225.948 491.425 225.948Z" fill="#E6E6E6"/>
<path d="M464.843 225.948C461.943 225.948 459.592 223.595 459.592 220.694C459.592 217.792 461.943 215.439 464.843 215.439C467.743 215.439 470.094 217.792 470.094 220.694C470.094 223.595 467.743 225.948 464.843 225.948Z" fill="#E6E6E6"/>
<path d="M438.262 225.948C435.362 225.948 433.011 223.595 433.011 220.694C433.011 217.792 435.362 215.439 438.262 215.439C441.162 215.439 443.513 217.792 443.513 220.694C443.513 223.595 441.162 225.948 438.262 225.948Z" fill="#E6E6E6"/>
<path d="M411.68 225.948C408.78 225.948 406.429 223.595 406.429 220.694C406.429 217.792 408.78 215.439 411.68 215.439C414.58 215.439 416.932 217.792 416.932 220.694C416.932 223.595 414.58 225.948 411.68 225.948Z" fill="#E6E6E6"/>
<path d="M385.1 225.948C382.2 225.948 379.849 223.595 379.849 220.694C379.849 217.792 382.2 215.439 385.1 215.439C388 215.439 390.351 217.792 390.351 220.694C390.351 223.595 388 225.948 385.1 225.948Z" fill="#E6E6E6"/>
<path d="M358.518 225.948C355.618 225.948 353.267 223.595 353.267 220.694C353.267 217.792 355.618 215.439 358.518 215.439C361.418 215.439 363.769 217.792 363.769 220.694C363.769 223.595 361.418 225.948 358.518 225.948Z" fill="#E6E6E6"/>
<path d="M597.749 252.877C594.849 252.877 592.498 250.525 592.498 247.623C592.498 244.722 594.849 242.369 597.749 242.369C600.649 242.369 603 244.722 603 247.623C603 250.525 600.649 252.877 597.749 252.877Z" fill="#E6E6E6"/>
<path d="M571.168 252.877C568.268 252.877 565.917 250.525 565.917 247.623C565.917 244.722 568.268 242.369 571.168 242.369C574.069 242.369 576.42 244.722 576.42 247.623C576.42 250.525 574.069 252.877 571.168 252.877Z" fill="#E6E6E6"/>
<path d="M544.587 252.877C541.687 252.877 539.336 250.525 539.336 247.623C539.336 244.722 541.687 242.369 544.587 242.369C547.487 242.369 549.838 244.722 549.838 247.623C549.838 250.525 547.487 252.877 544.587 252.877Z" fill="#E6E6E6"/>
<path d="M518.006 252.877C515.105 252.877 512.754 250.525 512.754 247.623C512.754 244.722 515.105 242.369 518.006 242.369C520.906 242.369 523.257 244.722 523.257 247.623C523.257 250.525 520.906 252.877 518.006 252.877Z" fill="#E6E6E6"/>
<path d="M491.425 252.877C488.525 252.877 486.174 250.525 486.174 247.623C486.174 244.722 488.525 242.369 491.425 242.369C494.325 242.369 496.676 244.722 496.676 247.623C496.676 250.525 494.325 252.877 491.425 252.877Z" fill="#E6E6E6"/>
<path d="M464.843 252.877C461.943 252.877 459.592 250.525 459.592 247.623C459.592 244.722 461.943 242.369 464.843 242.369C467.743 242.369 470.094 244.722 470.094 247.623C470.094 250.525 467.743 252.877 464.843 252.877Z" fill="#E6E6E6"/>
<path d="M438.262 252.877C435.362 252.877 433.011 250.525 433.011 247.623C433.011 244.722 435.362 242.369 438.262 242.369C441.162 242.369 443.513 244.722 443.513 247.623C443.513 250.525 441.162 252.877 438.262 252.877Z" fill="#E6E6E6"/>
<path d="M411.68 252.877C408.78 252.877 406.429 250.525 406.429 247.623C406.429 244.722 408.78 242.369 411.68 242.369C414.58 242.369 416.932 244.722 416.932 247.623C416.932 250.525 414.58 252.877 411.68 252.877Z" fill="#E6E6E6"/>
<path d="M385.1 252.877C382.2 252.877 379.849 250.525 379.849 247.623C379.849 244.722 382.2 242.369 385.1 242.369C388 242.369 390.351 244.722 390.351 247.623C390.351 250.525 388 252.877 385.1 252.877Z" fill="#E6E6E6"/>
<path d="M358.518 252.877C355.618 252.877 353.267 250.525 353.267 247.623C353.267 244.722 355.618 242.369 358.518 242.369C361.418 242.369 363.769 244.722 363.769 247.623C363.769 250.525 361.418 252.877 358.518 252.877Z" fill="#E6E6E6"/>
<path d="M294.402 46.9564C292.642 46.9564 290.953 47.6562 289.708 48.902C288.463 50.1477 287.763 51.8373 287.763 53.599V319.304C287.763 320.176 287.935 321.04 288.269 321.846C288.602 322.652 289.091 323.384 289.708 324.001C290.324 324.618 291.056 325.107 291.862 325.441C292.667 325.775 293.531 325.947 294.402 325.947H484.94C485.811 325.947 486.675 325.775 487.48 325.441C488.286 325.107 489.018 324.618 489.634 324.001C490.251 323.384 490.74 322.652 491.073 321.846C491.407 321.04 491.579 320.176 491.579 319.304V53.599C491.579 51.8373 490.879 50.1477 489.634 48.9019C488.389 47.6562 486.7 46.9564 484.94 46.9564H294.402" fill="#E6E6E6"/>
<path d="M484.167 318.531H295.175V54.3723H484.167V318.531Z" fill="white"/>
<path d="M337.224 96.1649C337.049 96.1649 336.877 96.1992 336.716 96.266C336.554 96.3327 336.408 96.4306 336.285 96.554C336.161 96.6773 336.064 96.8238 335.997 96.985C335.93 97.1462 335.896 97.3189 335.896 97.4934V100.15C335.896 100.503 336.036 100.841 336.285 101.09C336.534 101.339 336.872 101.479 337.224 101.479H442.119C442.293 101.479 442.466 101.445 442.627 101.378C442.788 101.311 442.934 101.213 443.058 101.09C443.181 100.966 443.279 100.82 443.345 100.659C443.412 100.498 443.447 100.325 443.447 100.15V97.4934C443.447 97.3189 443.412 97.1462 443.345 96.985C443.279 96.8238 443.181 96.6773 443.058 96.554C442.934 96.4306 442.788 96.3327 442.627 96.266C442.466 96.1992 442.293 96.1649 442.119 96.1649H337.224" fill="#E6E6E6"/>
<path d="M337.224 108.786C336.872 108.786 336.534 108.926 336.285 109.175C336.036 109.424 335.896 109.762 335.896 110.114V112.771C335.896 113.124 336.036 113.462 336.285 113.711C336.534 113.96 336.872 114.1 337.224 114.1H442.119C442.293 114.1 442.466 114.066 442.627 113.999C442.788 113.932 442.934 113.834 443.058 113.711C443.181 113.587 443.279 113.441 443.345 113.28C443.412 113.119 443.447 112.946 443.447 112.771V110.114C443.447 109.94 443.412 109.767 443.345 109.606C443.279 109.445 443.181 109.298 443.058 109.175C442.934 109.052 442.788 108.954 442.627 108.887C442.466 108.82 442.293 108.786 442.119 108.786H337.224" fill="#E6E6E6"/>
<path d="M337.224 121.407C336.872 121.407 336.534 121.547 336.285 121.796C336.036 122.045 335.896 122.383 335.896 122.735V125.392C335.896 125.745 336.036 126.083 336.285 126.332C336.534 126.581 336.872 126.721 337.224 126.721H442.119C442.471 126.721 442.809 126.581 443.058 126.332C443.307 126.083 443.447 125.745 443.447 125.392V122.735C443.447 122.383 443.307 122.045 443.058 121.796C442.809 121.547 442.471 121.407 442.119 121.407H337.224" fill="#9170FF"/>
<path d="M337.224 134.304C336.872 134.304 336.534 134.444 336.285 134.693C336.036 134.942 335.896 135.28 335.896 135.633V138.29C335.896 138.642 336.036 138.98 336.285 139.229C336.534 139.478 336.872 139.618 337.224 139.618H442.119C442.293 139.618 442.466 139.584 442.627 139.517C442.788 139.45 442.934 139.352 443.058 139.229C443.181 139.106 443.279 138.959 443.345 138.798C443.412 138.637 443.447 138.464 443.447 138.29V135.633C443.447 135.458 443.412 135.285 443.345 135.124C443.279 134.963 443.181 134.816 443.058 134.693C442.934 134.57 442.788 134.472 442.627 134.405C442.466 134.338 442.293 134.304 442.119 134.304H337.224" fill="#E6E6E6"/>
<path d="M337.224 146.925C336.872 146.925 336.534 147.065 336.285 147.314C336.036 147.563 335.896 147.901 335.896 148.254V150.911C335.896 151.085 335.93 151.258 335.997 151.419C336.064 151.58 336.161 151.727 336.285 151.85C336.408 151.973 336.554 152.071 336.716 152.138C336.877 152.205 337.049 152.239 337.224 152.239H442.119C442.293 152.239 442.466 152.205 442.627 152.138C442.788 152.071 442.934 151.973 443.058 151.85C443.181 151.727 443.279 151.58 443.345 151.419C443.412 151.258 443.447 151.085 443.447 150.911V148.254C443.447 148.079 443.412 147.906 443.345 147.745C443.279 147.584 443.181 147.437 443.058 147.314C442.934 147.191 442.788 147.093 442.627 147.026C442.466 146.959 442.293 146.925 442.119 146.925H337.224" fill="#E6E6E6"/>
<path d="M337.224 159.546C336.872 159.546 336.534 159.686 336.285 159.935C336.036 160.184 335.896 160.522 335.896 160.875V163.532C335.896 163.884 336.036 164.222 336.285 164.471C336.534 164.72 336.872 164.86 337.224 164.86H442.119C442.471 164.86 442.809 164.72 443.058 164.471C443.307 164.222 443.447 163.884 443.447 163.532V160.875C443.447 160.522 443.307 160.184 443.058 159.935C442.809 159.686 442.471 159.546 442.119 159.546H337.224" fill="#E6E6E6"/>
<path d="M441.449 202.002C441.858 202.003 442.25 202.165 442.539 202.454C442.828 202.744 442.99 203.136 442.99 203.545V275.196C442.99 275.605 442.827 275.997 442.538 276.286C442.25 276.575 441.858 276.738 441.449 276.738H338.072C337.664 276.738 337.272 276.575 336.983 276.286C336.694 275.997 336.531 275.605 336.531 275.196V203.545C336.531 203.136 336.694 202.744 336.983 202.454C337.272 202.165 337.664 202.003 338.072 202.002H441.449Z" fill="#9170FF"/>
<path d="M389.326 124.295L390.412 124.006L366.73 34.8719H229.369V35.9954H365.867L389.326 124.295Z" fill="#3F3D56"/>
<path d="M218.145 47.2252C220.476 47.2252 222.754 46.5337 224.692 45.238C226.63 43.9423 228.141 42.1008 229.033 39.9461C229.925 37.7915 230.158 35.4206 229.703 33.1333C229.249 30.846 228.126 28.7449 226.478 27.0959C224.83 25.4468 222.73 24.3238 220.444 23.8688C218.158 23.4138 215.788 23.6473 213.635 24.5398C211.482 25.4323 209.641 26.9436 208.346 28.8827C207.051 30.8218 206.36 33.1016 206.36 35.4337C206.364 38.5599 207.606 41.5571 209.816 43.7676C212.025 45.9782 215.02 47.2217 218.145 47.2252ZM218.145 24.7652C220.254 24.7652 222.315 25.3909 224.069 26.5632C225.822 27.7355 227.189 29.4016 227.996 31.3511C228.803 33.3005 229.014 35.4456 228.603 37.515C228.191 39.5845 227.176 41.4855 225.685 42.9775C224.193 44.4695 222.293 45.4856 220.225 45.8972C218.157 46.3089 216.013 46.0976 214.065 45.2901C212.116 44.4827 210.451 43.1152 209.279 41.3608C208.108 39.6064 207.482 37.5437 207.482 35.4337C207.486 32.6052 208.61 29.8935 210.609 27.8935C212.608 25.8935 215.318 24.7684 218.145 24.7652Z" fill="#3F3D56"/>
<path d="M218.145 39.9257C215.666 39.9257 213.656 37.9146 213.656 35.4337C213.656 32.9528 215.666 30.9417 218.145 30.9417C220.625 30.9417 222.635 32.9528 222.635 35.4337C222.635 37.9146 220.625 39.9257 218.145 39.9257Z" fill="#9170FF"/>
<path d="M392.998 275.253L391.913 275.543L415.764 364.632L553.125 364.369L553.123 363.245L416.625 363.507L392.998 275.253Z" fill="#3F3D56"/>
<path d="M564.326 351.994C561.995 351.998 559.718 352.694 557.782 353.994C555.847 355.293 554.34 357.138 553.452 359.294C552.564 361.45 552.335 363.822 552.794 366.108C553.253 368.395 554.38 370.493 556.031 372.139C557.682 373.785 559.784 374.904 562.071 375.355C564.358 375.805 566.727 375.567 568.879 374.671C571.031 373.774 572.868 372.259 574.16 370.318C575.451 368.376 576.138 366.095 576.133 363.763C576.124 360.637 574.875 357.642 572.662 355.436C570.448 353.229 567.45 351.992 564.326 351.994ZM564.369 374.454C562.26 374.458 560.197 373.836 558.442 372.667C556.686 371.498 555.316 369.835 554.505 367.887C553.695 365.939 553.479 363.794 553.887 361.724C554.294 359.654 555.306 357.751 556.794 356.256C558.283 354.761 560.181 353.742 562.248 353.326C564.316 352.91 566.46 353.118 568.41 353.921C570.36 354.725 572.028 356.089 573.203 357.841C574.378 359.594 575.007 361.655 575.011 363.765C575.013 366.594 573.894 369.307 571.899 371.311C569.904 373.315 567.196 374.445 564.369 374.454Z" fill="#3F3D56"/>
<path d="M564.349 368.277C561.869 368.277 559.859 366.266 559.859 363.785C559.859 361.305 561.869 359.293 564.349 359.293C566.828 359.293 568.838 361.305 568.838 363.785C568.838 366.266 566.828 368.277 564.349 368.277Z" fill="#9170FF"/>
<path d="M127.601 463.145H135.522L134.108 419.273L113.173 420.405L127.601 463.145Z" fill="#FFB8B8"/>
<path d="M126.52 488.358C128.911 489.45 130.913 480.605 132.93 482.587C138.571 488.134 144.4 489.342 151.929 486.92L152.103 486.891C152.558 486.745 152.978 486.508 153.338 486.194C153.698 485.881 153.991 485.498 154.199 485.068C154.407 484.638 154.525 484.171 154.547 483.694C154.569 483.217 154.494 482.74 154.326 482.293C154.125 481.758 153.798 481.28 153.372 480.899C152.946 480.519 152.434 480.248 151.88 480.109L145.88 478.608L136.461 462.034L126.845 461.384C124.701 464.118 123.205 467.304 122.469 470.7C121.733 474.097 121.776 477.616 122.596 480.993C123.468 484.557 124.816 487.58 126.52 488.358Z" fill="#2F2E41"/>
<path d="M52.3496 457.346L59.7153 460.261L74.5276 418.943L54.6448 412.292L52.3496 457.346Z" fill="#FFB8B8"/>
<path d="M42.0767 480.394C43.8986 482.289 49.0123 474.801 50.1587 477.387C53.3654 484.62 58.3413 487.888 66.2331 488.407L66.4061 488.444C66.8823 488.475 67.36 488.41 67.81 488.251C68.2601 488.092 68.6733 487.844 69.0245 487.52C69.3758 487.197 69.6578 486.806 69.8535 486.37C70.0492 485.935 70.1545 485.464 70.163 484.987C70.1732 484.415 70.0446 483.85 69.7881 483.339C69.5317 482.829 69.1552 482.388 68.6909 482.055L63.6639 478.452L60.9974 459.573L52.2944 455.43C49.2958 457.184 46.7336 459.595 44.8007 462.483C42.8678 465.37 41.6145 468.659 41.1349 472.101C40.6364 475.736 40.7778 479.043 42.0767 480.394Z" fill="#2F2E41"/>
<path d="M76.3964 245.502L88.557 248.631C89.4772 248.868 90.4387 248.895 91.371 248.712C92.3032 248.528 93.1826 248.138 93.9445 247.57C94.7064 247.002 95.3315 246.271 95.774 245.429C96.2165 244.588 96.4651 243.658 96.5016 242.708C96.5352 241.835 96.3887 240.964 96.0712 240.149C95.7537 239.335 95.272 238.595 94.6562 237.975C94.0403 237.355 93.3035 236.868 92.4916 236.546C91.6796 236.223 90.81 236.071 89.9368 236.099L79.2253 236.445L58.5846 228.925L78.0937 214.367L75.8307 193.988L37.8103 224.529C37.1323 225.073 36.574 225.752 36.1704 226.522C35.7667 227.293 35.5264 228.138 35.4645 229.006C35.3604 230.465 35.765 231.914 36.6094 233.108C37.4538 234.301 38.6858 235.165 40.0954 235.551C49.004 242.825 61.9828 245.053 76.3964 245.502Z" fill="#FFB8B8"/>
<path d="M104.119 169.08C93.1821 169.08 84.3164 160.21 84.3164 149.267C84.3164 138.325 93.1821 129.454 104.119 129.454C115.055 129.454 123.921 138.325 123.921 149.267C123.921 160.21 115.055 169.08 104.119 169.08Z" fill="#FFB8B8"/>
<path d="M79.7905 176.439L106.382 187.195C105.601 178.785 107.804 170.367 112.605 163.419L90.5402 158.325C90.8271 165.067 87.183 171.095 79.7905 176.439Z" fill="#FFB8B8"/>
<path d="M74.9818 222.576C96.4173 224.292 108.142 221.444 126.184 210.971L119.395 195.12C119.736 192.734 119.412 190.299 118.46 188.085C117.508 185.87 115.964 183.961 113.997 182.568L106.948 177.572L85.4486 171.345L84.4843 171.393C81.6243 171.536 78.9146 172.718 76.8628 174.716C74.811 176.715 73.5579 179.393 73.3383 182.25C68.6676 196.216 68.6373 209.716 74.9818 222.576Z" fill="#9170FF"/>
<path d="M79.225 255.692L125.052 250.597L128.447 235.879C135.972 224.514 132.687 214.104 123.921 204.178C107.942 214.439 93.1091 218.873 71.87 215.5C77.5182 229.244 82.7347 242.752 79.225 255.692Z" fill="#2F2E41"/>
<path d="M43.5818 427.216L80.0742 425.235L91.9554 330.698L101.574 424.669L144.855 422.688C131.652 360.91 122.48 302.264 125.053 248.333L79.7913 252.295C64.4516 268.478 56.8349 294.311 52.3513 325.037C47.8677 355.764 44.2539 391.384 43.5818 427.216Z" fill="#2F2E41"/>
<path d="M82.3203 131.23C78.5612 131.23 75.5139 128.181 75.5139 124.42C75.5139 120.659 78.5612 117.61 82.3203 117.61C86.0794 117.61 89.1267 120.659 89.1267 124.42C89.1267 128.181 86.0794 131.23 82.3203 131.23Z" fill="#2F2E41"/>
<path d="M89.333 122.753C89.2211 121.025 88.4552 119.405 87.1912 118.222C85.9273 117.04 84.2603 116.384 82.5298 116.388C82.6703 116.37 82.8096 116.348 82.9529 116.339C84.7543 116.223 86.5281 116.828 87.8838 118.021C89.2395 119.213 90.0662 120.896 90.182 122.698C90.2978 124.501 89.6933 126.275 88.5014 127.632C87.3095 128.988 85.6278 129.816 83.8263 129.931C83.683 129.941 83.5421 129.937 83.4004 129.937C85.1172 129.72 86.6865 128.856 87.7888 127.521C88.891 126.186 89.4432 124.481 89.333 122.753Z" fill="#2F2E41"/>
<path d="M89.3716 125.661C95.4418 120.623 112.853 127.026 113.976 130.414C122.185 131.533 128.4 136.325 128.4 144.845V144.845C123.52 146.846 117.969 146.599 111.969 144.845C102.405 152.644 101.749 162.448 107.566 173.709L100.41 173.852L91.5396 160.881L91.1154 174.038L74.712 173.709V154.853C74.659 148.584 76.1012 142.393 78.9188 136.793C81.475 131.824 85.4419 128.923 89.3716 125.661Z" fill="#2F2E41"/>
<path d="M104.647 158.974C102.849 158.974 101.392 156.933 101.392 154.415C101.392 151.897 102.849 149.856 104.647 149.856C106.444 149.856 107.902 151.897 107.902 154.415C107.902 156.933 106.444 158.974 104.647 158.974Z" fill="#FFB8B8"/>
<path d="M129.543 329.271C129.239 329.271 128.949 329.391 128.734 329.605C128.52 329.82 128.4 330.111 128.4 330.414V376.158C128.4 376.461 128.52 376.752 128.734 376.966C128.949 377.181 129.239 377.301 129.543 377.301H162.345C162.649 377.301 162.939 377.181 163.154 376.966C163.368 376.752 163.488 376.461 163.488 376.158V330.414C163.488 330.111 163.368 329.82 163.154 329.605C162.939 329.391 162.649 329.271 162.345 329.271H129.543Z" fill="#9170FF"/>
<path d="M125.052 312.301L123.945 331.512C123.873 332.749 124.078 333.986 124.544 335.134C125.01 336.281 125.726 337.311 126.639 338.147C127.553 338.983 128.64 339.606 129.824 339.969C131.008 340.332 132.257 340.427 133.482 340.247C138.361 339.529 138.471 334.756 137.275 329.969L132.719 311.734C121.542 271.636 118.525 232.279 119.09 193.894C119.113 192.593 118.872 191.3 118.382 190.094C117.892 188.888 117.163 187.794 116.238 186.877C115.314 185.961 114.214 185.242 113.004 184.763C111.794 184.284 110.5 184.055 109.199 184.09C107.93 184.127 106.681 184.414 105.524 184.936C104.366 185.458 103.323 186.203 102.455 187.13C101.587 188.056 100.91 189.146 100.464 190.335C100.018 191.524 99.812 192.79 99.8568 194.059C101.439 239.132 108.009 280.064 125.052 312.301Z" fill="#FFB8B8"/>
</g>
<defs>
<clipPath id="clip0">
<rect width="603" height="489" fill="white" transform="matrix(-1 0 0 1 603 0)"/>
</clipPath>
</defs>
</svg>
