<svg width="204" height="220" viewBox="0 0 204 220" fill="none" xmlns="http://www.w3.org/2000/svg">
<g clip-path="url(#clip0)">
<path d="M110.04 219.697C161.933 219.697 204 177.63 204 125.738C204 73.845 161.933 31.7777 110.04 31.7777C58.1473 31.7777 16.0801 73.845 16.0801 125.738C16.0801 177.63 58.1473 219.697 110.04 219.697Z" fill="#F2F2F2"/>
<path d="M55.1715 109.122C55.8418 107.952 56.1881 106.625 56.1748 105.277C56.1748 101.801 54.0227 98.9839 51.3679 98.9839C48.7131 98.9839 46.5609 101.801 46.5609 105.277C46.5477 106.625 46.894 107.952 47.5642 109.122C46.9064 110.297 46.5609 111.621 46.5609 112.968C46.5609 114.314 46.9064 115.638 47.5642 116.813C46.9064 117.988 46.5609 119.312 46.5609 120.659C46.5609 122.005 46.9064 123.33 47.5642 124.504C46.9064 125.679 46.5609 127.003 46.5609 128.35C46.5609 129.697 46.9064 131.021 47.5642 132.196C46.894 133.365 46.5477 134.693 46.5609 136.041C46.5609 139.516 48.7131 142.334 51.3679 142.334C54.0227 142.334 56.1748 139.516 56.1748 136.041C56.1881 134.693 55.8418 133.365 55.1715 132.196C55.8294 131.021 56.1748 129.697 56.1748 128.35C56.1748 127.003 55.8294 125.679 55.1715 124.504C55.8294 123.33 56.1748 122.005 56.1748 120.659C56.1748 119.312 55.8294 117.988 55.1715 116.813C55.8294 115.638 56.1748 114.314 56.1748 112.968C56.1748 111.621 55.8294 110.297 55.1715 109.122V109.122Z" fill="#3F3D56"/>
<path d="M51.3685 103.878C54.0233 103.878 56.1754 101.061 56.1754 97.5855C56.1754 94.1101 54.0233 91.2927 51.3685 91.2927C48.7137 91.2927 46.5615 94.1101 46.5615 97.5855C46.5615 101.061 48.7137 103.878 51.3685 103.878Z" fill="#3F3D56"/>
<path d="M51.3685 96.1872C54.0233 96.1872 56.1754 93.3698 56.1754 89.8944C56.1754 86.419 54.0233 83.6017 51.3685 83.6017C48.7137 83.6017 46.5615 86.419 46.5615 89.8944C46.5615 93.3698 48.7137 96.1872 51.3685 96.1872Z" fill="#3F3D56"/>
<path d="M69.3635 37.2615C70.0202 36.4255 70.6184 35.545 71.1537 34.6264L58.523 32.552L72.1834 32.6536C73.4939 29.8024 74.2087 26.7138 74.2844 23.5768C74.36 20.4397 73.7947 17.3203 72.6231 14.4093L54.296 23.9164L71.1979 11.4923C69.6144 8.75603 67.4844 6.37509 64.9407 4.49784C62.3969 2.62059 59.4938 1.28726 56.4123 0.580897C53.3307 -0.125463 50.1368 -0.189716 47.0293 0.392139C43.9218 0.973995 40.9675 2.18949 38.3503 3.96292C35.7331 5.73634 33.5091 8.02969 31.8168 10.7001C30.1246 13.3705 29.0004 16.3608 28.5142 19.4847C28.028 22.6085 28.1903 25.799 28.9909 28.8574C29.7915 31.9158 31.2133 34.7766 33.1678 37.2615C32.1441 38.5628 31.2637 39.9706 30.5418 41.4606L46.9374 49.9786L29.4552 44.1113C28.2276 47.7399 27.9243 51.6174 28.5725 55.3928C29.2208 59.1682 30.8002 62.7224 33.1678 65.7338C30.4964 69.1301 28.8346 73.2097 28.3723 77.5059C27.9101 81.8022 28.6662 86.1419 30.5541 90.0287C32.442 93.9155 35.3855 97.1927 39.0481 99.4855C42.7107 101.778 46.9446 102.994 51.2656 102.994C55.5867 102.994 59.8206 101.778 63.4832 99.4855C67.1458 97.1927 70.0893 93.9155 71.9772 90.0287C73.8651 86.1419 74.6211 81.8022 74.1589 77.5059C73.6967 73.2097 72.0349 69.1301 69.3635 65.7338C72.5556 61.6751 74.291 56.6613 74.291 51.4977C74.291 46.334 72.5556 41.3203 69.3635 37.2615L69.3635 37.2615Z" fill="#7C57F6"/>
<path opacity="0.1" d="M28.2403 51.4976C28.2323 56.6625 29.9686 61.6789 33.1678 65.7337C30.4964 69.1301 28.8346 73.2096 28.3724 77.5059C27.9102 81.8022 28.6662 86.1418 30.5541 90.0286C32.442 93.9155 35.3855 97.1927 39.0481 99.4855C42.7107 101.778 46.9446 102.994 51.2656 102.994C55.5867 102.994 59.8206 101.778 63.4832 99.4855C67.1458 97.1927 70.0893 93.9155 71.9772 90.0286C73.8651 86.1418 74.6211 81.8022 74.1589 77.5059C73.6967 73.2096 72.0349 69.1301 69.3635 65.7337C72.4496 61.8159 28.2403 48.9133 28.2403 51.4976Z" fill="black"/>
<path d="M177.739 187.805C171.78 209.037 125.805 228.729 76.9138 215.009C28.0229 201.289 -5.26932 159.351 0.689099 138.119C6.64751 116.887 49.6003 124.4 98.4912 138.121C147.382 151.841 183.697 166.573 177.739 187.805Z" fill="#3F3D56"/>
<path opacity="0.1" d="M177.739 187.805C171.78 209.037 125.805 228.729 76.9138 215.009C28.0229 201.289 -5.26932 159.351 0.689099 138.119C6.64751 116.887 49.6003 124.4 98.4912 138.121C147.382 151.841 183.697 166.573 177.739 187.805Z" fill="black"/>
<path d="M177.739 187.805C183.697 166.573 148.894 138.238 100.003 124.518C51.1117 110.797 6.64749 116.887 0.689068 138.119C-5.26935 159.351 29.5343 187.686 78.4253 201.406C127.316 215.126 171.78 209.037 177.739 187.805Z" fill="#3F3D56"/>
<path opacity="0.1" d="M74.27 172.088C89.1561 172.088 101.224 168.592 101.224 164.279C101.224 159.966 89.1561 156.47 74.27 156.47C59.384 156.47 47.3164 159.966 47.3164 164.279C47.3164 168.592 59.384 172.088 74.27 172.088Z" fill="black"/>
<path d="M107.459 119.34L73.3686 153.431L59.04 139.103C58.1215 138.184 56.8757 137.668 55.5766 137.668C54.2776 137.668 53.0317 138.184 52.1132 139.103L51.5984 138.333C49.6856 140.245 50.2003 144.117 52.1131 146.029L70.7042 164.62C71.4049 165.321 72.3551 165.715 73.3459 165.715C74.3368 165.715 75.2872 165.322 75.9882 164.622L114.383 126.267C116.297 124.355 116.991 120.849 115.078 118.936C113.166 117.024 109.372 117.428 107.459 119.34Z" fill="#57B894"/>
<path opacity="0.1" d="M107.459 119.34L73.3686 153.431L59.04 139.103C58.1215 138.184 56.8757 137.668 55.5766 137.668C54.2776 137.668 53.0317 138.184 52.1132 139.103L51.5984 138.333C49.6856 140.245 50.2003 144.117 52.1131 146.029L70.7042 164.62C71.4049 165.321 72.3551 165.715 73.3459 165.715C74.3368 165.715 75.2872 165.322 75.9882 164.622L114.383 126.267C116.297 124.355 116.991 120.849 115.078 118.936C113.166 117.024 109.372 117.428 107.459 119.34Z" fill="black"/>
<path d="M107.46 117.829L73.3687 151.92L59.0402 137.591C58.1216 136.673 56.8758 136.157 55.5768 136.157C54.2777 136.157 53.0319 136.673 52.1133 137.591V137.591C51.6585 138.046 51.2977 138.586 51.0516 139.18C50.8054 139.775 50.6787 140.411 50.6787 141.055C50.6787 141.698 50.8054 142.335 51.0516 142.929C51.2977 143.523 51.6585 144.063 52.1133 144.518L70.7044 163.109C71.4051 163.81 72.3552 164.203 73.3461 164.204C74.3369 164.204 75.2873 163.811 75.9883 163.11L114.383 124.756C114.838 124.301 115.199 123.762 115.445 123.167C115.692 122.573 115.819 121.936 115.819 121.293C115.819 120.65 115.693 120.013 115.446 119.418C115.2 118.824 114.84 118.284 114.385 117.829V117.829C113.466 116.911 112.221 116.395 110.922 116.395C109.623 116.395 108.378 116.911 107.46 117.829Z" fill="#57B894"/>
<path d="M124.06 175.86C124.06 175.86 121.011 176.775 119.487 178.604C119.487 178.604 116.743 179.823 115.066 179.519C113.389 179.214 110.341 182.262 112.78 183.177C115.219 184.092 130.158 186.531 130.462 185.769C130.767 185.006 130.767 177.232 130.767 177.232L124.06 175.86Z" fill="#575A89"/>
<path d="M148.009 174.551C148.009 174.551 145.161 175.973 143.971 178.036C143.971 178.036 141.476 179.706 139.772 179.692C138.068 179.678 135.584 183.203 138.144 183.687C140.703 184.172 155.839 184.023 156.009 183.22C156.18 182.417 154.852 174.757 154.852 174.757L148.009 174.551Z" fill="#575A89"/>
<path d="M129.015 71.2116C132.803 71.2116 135.875 68.1404 135.875 64.3519C135.875 60.5634 132.803 57.4922 129.015 57.4922C125.226 57.4922 122.155 60.5634 122.155 64.3519C122.155 68.1404 125.226 71.2116 129.015 71.2116Z" fill="#FFB9B9"/>
<path d="M134.578 65.4951C134.578 65.4951 135.34 70.678 136.712 71.2877C137.667 71.7576 138.541 72.3749 139.304 73.117L135.493 74.9462L128.023 74.4889C128.023 74.4889 128.633 71.1353 127.566 69.4585C126.499 67.7817 134.578 65.4951 134.578 65.4951Z" fill="#FFB9B9"/>
<path d="M148.756 90.0376C148.756 90.0376 152.262 99.0314 148.756 107.72C145.25 116.409 143.725 117.781 143.725 117.781L142.658 106.348L143.885 105.235C143.885 105.235 144.628 101.767 144.024 99.7131C143.42 97.6595 144.335 91.2571 144.335 91.2571L148.756 90.0376Z" fill="#FFB9B9"/>
<path d="M122.536 109.55C122.536 109.55 118.115 119.611 118.572 124.489C119.03 129.367 122.536 149.946 122.536 149.946C122.536 149.946 122.078 176.47 123.45 176.47C124.822 176.47 131.377 178.909 131.377 177.232C131.377 175.555 132.749 135.312 132.749 135.312C132.749 135.312 140.523 152.994 141.285 154.366C142.048 155.738 146.926 177.232 148.602 177.232C150.279 177.232 155.462 175.708 155.005 174.641C154.548 173.573 149.365 149.793 146.468 143.696C143.572 137.598 144.182 114.58 144.182 114.58L139.304 103.909L122.536 109.55Z" fill="#2F2E41"/>
<path d="M126.956 61.227C126.956 61.227 122.688 60.9221 122.383 59.855C122.078 58.788 121.469 57.8733 121.774 57.8733C122.078 57.8733 122.231 57.1112 122.231 57.1112C122.231 57.1112 122.536 56.9587 122.688 57.1112C122.841 57.2636 122.993 56.0441 122.993 56.0441C122.993 56.0441 123.145 55.5868 123.298 55.8917C123.45 56.1965 123.45 56.0441 123.603 55.5868C123.755 55.1295 124.517 54.8246 124.517 54.8246C124.517 54.8246 127.414 54.977 127.871 54.3673C128.328 53.7575 133.511 54.2148 134.578 54.977C135.645 55.7392 140.371 58.4831 139.609 60.7697C138.847 63.0562 136.103 68.0867 136.103 68.8489C136.103 69.611 135.036 69.4586 134.731 68.6964C134.426 67.9342 131.987 67.0196 131.987 66.5623C131.987 66.105 130.615 61.8367 129.853 62.1416C129.091 62.4465 128.176 64.8855 127.871 64.4282C127.566 63.9709 126.956 61.227 126.956 61.227Z" fill="#3F3D56"/>
<path d="M147.993 82.1108C147.993 82.1108 141.743 72.9646 139.914 72.5073C138.085 72.0499 133.969 70.8304 133.969 70.8304C133.969 70.8304 129.853 71.4402 128.634 72.0499C127.414 72.6597 122.841 73.7268 122.688 75.556C122.536 77.3853 123.908 94.9156 123.146 96.5924C122.384 98.2692 119.792 114.275 121.012 113.97C122.231 113.665 121.317 109.702 126.652 109.55C131.987 109.397 134.883 106.196 136.865 110.007C138.847 113.818 144.487 116.714 144.487 116.714C144.629 115.485 144.832 114.264 145.097 113.056C145.554 110.922 143.877 105.739 143.877 105.739C143.877 105.739 144.03 93.6961 144.64 92.3241C145.249 90.9522 147.993 82.1108 147.993 82.1108Z" fill="#575A89"/>
<path d="M145.707 81.8059L147.993 82.1108C147.993 82.1108 147.841 85.1595 148.451 86.0742C149.06 86.9888 150.127 91.7144 149.518 91.8668C148.908 92.0192 143.42 92.9339 143.42 92.9339L143.115 85.9217L145.707 81.8059Z" fill="#575A89"/>
<path d="M121.012 87.2937C121.012 87.2937 119.487 97.2022 118.725 98.4217C117.963 99.6412 114.152 116.714 114.152 116.714C114.152 116.714 107.885 125.429 110.934 125.277C113.983 125.124 117.201 117.324 117.201 117.324C117.201 117.324 126.652 100.098 126.652 98.2692C126.652 96.44 128.939 87.2937 128.939 87.2937H121.012Z" fill="#FFB9B9"/>
<path d="M125.432 73.8793L122.688 74.9463C122.688 74.9463 119.182 87.4462 119.944 88.5133C120.707 89.5803 129.853 88.056 130.005 87.5987C130.158 87.1413 128.328 73.8793 125.432 73.8793Z" fill="#575A89"/>
<path d="M2.87012 105.999C2.87012 116.622 9.53432 125.218 17.77 125.218Z" fill="#3F3D56"/>
<path d="M17.7695 125.218C17.7695 114.476 25.2064 105.783 34.3969 105.783Z" fill="#7C57F6"/>
<path d="M8.26855 106.962C8.26855 117.053 12.5182 125.218 17.7699 125.218Z" fill="#7C57F6"/>
<path d="M17.7695 125.218C17.7695 111.492 26.3654 100.385 36.9882 100.385Z" fill="#3F3D56"/>
<path d="M14.6348 125.353C14.6348 125.353 16.7478 125.288 17.3846 124.835C18.0214 124.381 20.635 123.84 20.793 124.567C20.951 125.294 23.9685 128.184 21.5829 128.203C19.1973 128.223 16.0398 127.832 15.4042 127.445C14.7686 127.058 14.6348 125.353 14.6348 125.353Z" fill="#A8A8A8"/>
<path opacity="0.2" d="M21.6255 127.95C19.2399 127.97 16.0823 127.579 15.4468 127.192C14.9627 126.897 14.7698 125.839 14.7053 125.351C14.6606 125.353 14.6348 125.353 14.6348 125.353C14.6348 125.353 14.7686 127.058 15.4042 127.445C16.0398 127.832 19.1973 128.223 21.5829 128.203C22.2715 128.198 22.5094 127.953 22.4963 127.59C22.4007 127.809 22.138 127.946 21.6255 127.95Z" fill="black"/>
</g>
<defs>
<clipPath id="clip0">
<rect width="204" height="219.697" fill="white"/>
</clipPath>
</defs>
</svg>
