<svg width="430" height="238" viewBox="0 0 430 238" fill="none" xmlns="http://www.w3.org/2000/svg">
<g clip-path="url(#clip0)">
<path d="M215.298 68.2774C214.958 69.0805 214.627 69.9042 214.312 70.7251L213.487 70.4077C213.806 69.5776 214.141 68.7451 214.484 67.9327L215.298 68.2774Z" fill="#E6E6E6"/>
<path d="M360.206 126.901C359.781 128.011 359.326 129.121 358.856 130.2L358.047 129.846C358.751 128.23 359.415 126.554 360.012 124.886L360.843 125.185C360.638 125.757 360.426 126.33 360.206 126.901ZM362.488 120.047L361.638 119.806C362.121 118.098 362.55 116.356 362.915 114.627L363.778 114.809C363.41 116.558 362.976 118.32 362.488 120.047ZM356.536 135.068C355.709 136.66 354.819 138.241 353.889 139.767L353.135 139.305C354.055 137.797 354.935 136.234 355.752 134.66L356.536 135.068ZM364.708 109.495L363.833 109.372C364.078 107.618 364.265 105.833 364.389 104.067L365.27 104.129C365.145 105.916 364.956 107.721 364.708 109.495V109.495ZM350.925 144.272C349.891 145.732 348.791 147.176 347.658 148.562L346.975 148.002C348.096 146.63 349.182 145.203 350.205 143.76L350.925 144.272ZM365.46 98.7363L364.577 98.7359C364.578 96.9654 364.518 95.1732 364.398 93.4098L365.279 93.3502C365.4 95.1335 365.461 96.9454 365.46 98.7363L365.46 98.7363ZM344.098 152.622C342.869 153.929 341.58 155.209 340.268 156.424L339.668 155.775C340.966 154.573 342.24 153.308 343.455 152.015L344.098 152.622ZM364.729 87.9876L363.854 88.1079C363.613 86.3536 363.308 84.5857 362.948 82.8542L363.813 82.6735C364.177 84.425 364.485 86.2128 364.729 87.9876V87.9876ZM336.186 159.953C334.791 161.078 333.34 162.168 331.874 163.192L331.369 162.466C332.818 161.454 334.253 160.376 335.633 159.264L336.186 159.953ZM362.535 77.4344L361.685 77.6734C361.207 75.9679 360.665 74.2578 360.072 72.5901L360.904 72.2931C361.503 73.9802 362.052 75.7098 362.535 77.4344V77.4344ZM327.351 166.128C325.819 167.049 324.234 167.93 322.64 168.747L322.238 167.959C323.814 167.152 325.381 166.281 326.897 165.369L327.351 166.128ZM358.926 67.2743L358.116 67.627C357.411 66.0024 356.641 64.3812 355.828 62.8083L356.612 62.4014C357.435 63.992 358.213 65.6314 358.926 67.2743V67.2743ZM317.763 171.038C316.118 171.743 314.428 172.4 312.741 172.99L312.45 172.155C314.118 171.571 315.788 170.922 317.415 170.224L317.763 171.038ZM353.97 57.6965L353.216 58.1556C352.298 56.6435 351.315 55.1418 350.294 53.6927L351.015 53.1828C352.048 54.6481 353.042 56.1669 353.97 57.6965ZM307.6 174.596C305.876 175.07 304.113 175.49 302.363 175.845L302.187 174.978C303.918 174.627 305.661 174.212 307.367 173.743L307.6 174.596ZM347.757 48.881L347.072 49.4393C345.954 48.064 344.775 46.7107 343.566 45.4165L344.211 44.8124C345.434 46.1212 346.626 47.4898 347.757 48.881H347.757ZM297.053 176.733C295.282 176.967 293.48 177.142 291.697 177.254L291.642 176.371C293.404 176.261 295.186 176.088 296.938 175.856L297.053 176.733ZM340.394 40.9969L339.792 41.6445C338.496 40.436 337.141 39.2573 335.765 38.1411L336.321 37.4536C337.713 38.5824 339.083 39.7746 340.394 40.9969V40.9969ZM286.32 177.404C284.531 177.393 282.721 177.318 280.938 177.183L281.005 176.301C282.767 176.435 284.557 176.508 286.326 176.52L286.32 177.404ZM332.019 34.2053L331.512 34.93C330.063 33.9129 328.562 32.9339 327.048 32.0199L327.504 31.2626C329.035 32.1869 330.554 33.177 332.019 34.2054L332.019 34.2053ZM275.585 176.59C273.816 176.332 272.032 176.008 270.285 175.629L270.472 174.764C272.2 175.139 273.963 175.459 275.712 175.714L275.585 176.59ZM322.8 28.6375L322.397 29.4245C320.826 28.6174 319.205 27.8534 317.578 27.1531L317.927 26.3406C319.571 27.0484 321.211 27.8212 322.8 28.6375ZM265.064 174.305C263.349 173.807 261.626 173.244 259.944 172.629L260.247 171.798C261.91 172.406 263.614 172.963 265.309 173.455L265.064 174.305ZM312.616 25.2137C310.946 24.6245 309.237 24.0858 307.536 23.6126L307.772 22.7604C309.492 23.2387 311.221 23.7835 312.909 24.379L312.616 25.2137ZM302.359 22.3624C300.624 22.0067 298.857 21.707 297.108 21.472L297.225 20.5954C298.995 20.8329 300.781 21.1359 302.536 21.4959L302.359 22.3624ZM291.808 20.9466C290.046 20.8333 288.257 20.7799 286.492 20.7883L286.487 19.9037C288.273 19.8953 290.082 19.9491 291.865 20.0641L291.808 20.9466ZM281.175 20.9979C279.411 21.1285 277.631 21.3223 275.884 21.5732L275.758 20.6975C277.525 20.4436 279.326 20.2479 281.11 20.1158L281.175 20.9979ZM270.643 22.5109C268.912 22.8823 267.174 23.3182 265.478 23.8052L265.234 22.9553C266.95 22.4622 268.707 22.0215 270.458 21.6456L270.643 22.5109ZM260.412 25.4506C258.749 26.0535 257.086 26.7218 255.468 27.4371L255.112 26.6279C256.748 25.9044 258.43 25.2285 260.111 24.6185L260.412 25.4506ZM250.671 29.7571C249.104 30.5825 247.546 31.4714 246.042 32.3994L245.579 31.6464C247.1 30.7078 248.675 29.8085 250.26 28.9741L250.671 29.7571ZM241.603 35.3515C240.162 36.3838 238.74 37.4775 237.376 38.6026L236.815 37.9199C238.194 36.7819 239.632 35.6758 241.09 34.6319L241.603 35.3515ZM233.381 42.1374C232.095 43.3566 230.836 44.6358 229.638 45.9395L228.988 45.3404C230.199 44.022 231.473 42.7281 232.774 41.4946L233.381 42.1374ZM226.165 49.9919C225.06 51.375 223.99 52.8143 222.983 54.2703L222.257 53.7668C223.275 52.294 224.358 50.8381 225.475 49.4394L226.165 49.9919ZM220.104 58.7585C219.201 60.2793 218.338 61.8522 217.539 63.4341L216.751 63.0344C217.559 61.4347 218.432 59.8439 219.345 58.3061L220.104 58.7585Z" fill="#E6E6E6"/>
<path d="M255.188 169.75L254.829 170.558C254.015 170.194 253.202 169.816 252.414 169.432L252.8 168.636C253.579 169.016 254.383 169.39 255.188 169.75Z" fill="#E6E6E6"/>
<path d="M229.666 102.606H18.4346V237.583H229.666V102.606Z" fill="#3F3D56"/>
<path d="M201.333 237.459C201.232 237.293 198.843 233.297 198.014 224.999C197.255 217.385 197.743 204.552 204.387 186.651C216.973 152.739 201.486 125.377 201.328 125.105L202.092 124.661C202.132 124.73 206.128 131.706 208.489 142.815C211.608 157.542 210.472 172.856 205.215 186.96C192.65 220.814 201.991 236.84 202.087 236.998L201.333 237.459Z" fill="#E6E6E6"/>
<path d="M196.413 123.113C199.583 123.113 202.153 120.539 202.153 117.363C202.153 114.188 199.583 111.614 196.413 111.614C193.243 111.614 190.673 114.188 190.673 117.363C190.673 120.539 193.243 123.113 196.413 123.113Z" fill="#6C63FF"/>
<path d="M214.514 144.344C217.684 144.344 220.254 141.77 220.254 138.594C220.254 135.419 217.684 132.844 214.514 132.844C211.344 132.844 208.774 135.419 208.774 138.594C208.774 141.77 211.344 144.344 214.514 144.344Z" fill="#E6E6E6"/>
<path d="M202.152 158.498C205.322 158.498 207.892 155.924 207.892 152.748C207.892 149.572 205.322 146.998 202.152 146.998C198.982 146.998 196.412 149.572 196.412 152.748C196.412 155.924 198.982 158.498 202.152 158.498Z" fill="#6C63FF"/>
<path d="M217.164 170.44C220.334 170.44 222.904 167.866 222.904 164.69C222.904 161.515 220.334 158.94 217.164 158.94C213.994 158.94 211.424 161.515 211.424 164.69C211.424 167.866 213.994 170.44 217.164 170.44Z" fill="#6C63FF"/>
<path d="M197.737 189.017C200.907 189.017 203.477 186.443 203.477 183.267C203.477 180.091 200.907 177.517 197.737 177.517C194.567 177.517 191.997 180.091 191.997 183.267C191.997 186.443 194.567 189.017 197.737 189.017Z" fill="#E6E6E6"/>
<path d="M204.801 237.671C204.801 237.671 199.061 223.517 216.281 212.902L204.801 237.671Z" fill="#E6E6E6"/>
<path d="M197.742 237.414C197.742 237.414 195.13 222.363 174.911 222.492L197.742 237.414Z" fill="#E6E6E6"/>
<path d="M140.348 132.727C144.873 134.718 149 137.515 152.529 140.982L156.072 137.432C151.92 133.343 147.028 130.085 141.656 127.834L140.348 132.727Z" fill="#6C63FF"/>
<path d="M85.2717 157.681C86.9598 152.411 89.7011 147.54 93.3287 143.366L89.7789 139.81C85.5379 144.616 82.3541 150.263 80.4346 156.382L85.2717 157.681Z" fill="#6C63FF"/>
<path d="M160.4 142.345L156.822 145.93C159.585 149.676 161.685 153.87 163.03 158.328L167.862 157.031C166.285 151.723 163.757 146.746 160.4 142.345V142.345Z" fill="#E6E6E6"/>
<path d="M94.4365 135.226L97.9922 138.788C102.173 135.285 107.015 132.66 112.228 131.069L110.934 126.229C104.871 128.049 99.2528 131.113 94.4365 135.226V135.226Z" fill="#6C63FF"/>
<path d="M83.3404 170.095C83.3404 168.073 83.4899 166.053 83.7878 164.054L78.9357 162.751C77.9291 168.999 78.2172 175.387 79.7821 181.519L84.6115 180.222C83.7654 176.913 83.3384 173.511 83.3404 170.095Z" fill="#6C63FF"/>
<path d="M134.083 209.622C130.804 210.457 127.434 210.878 124.051 210.876C122.797 210.876 121.558 210.816 120.333 210.705L119.023 215.601C124.499 216.205 130.038 215.819 135.377 214.46L134.083 209.622Z" fill="#E6E6E6"/>
<path d="M86.7489 186.42L81.8643 187.731C84.2179 193.365 87.6712 198.471 92.0215 202.749L95.5654 199.199C91.8395 195.542 88.8468 191.204 86.7489 186.42V186.42Z" fill="#6C63FF"/>
<path d="M169.27 163.425L164.409 164.729C164.99 169.135 164.851 173.606 163.997 177.967L168.836 179.266C169.891 174.05 170.038 168.691 169.27 163.425H169.27Z" fill="#E6E6E6"/>
<path d="M118.615 129.678C123.807 128.978 129.085 129.287 134.16 130.586L135.454 125.748C129.529 124.231 123.362 123.912 117.312 124.808L118.615 129.678Z" fill="#6C63FF"/>
<path d="M113.873 209.586C109.11 208.351 104.611 206.258 100.596 203.409L97.0078 207.003C101.679 210.448 106.964 212.966 112.579 214.423L113.873 209.586Z" fill="#E6E6E6"/>
<path d="M154.89 203.882L151.343 200.328C148.065 203.302 144.326 205.722 140.273 207.495L141.582 212.386C146.477 210.345 150.98 207.468 154.89 203.882V203.882Z" fill="#E6E6E6"/>
<path d="M162.226 184.263C160.707 188.349 158.545 192.164 155.82 195.564L159.384 199.134C162.705 195.086 165.307 190.496 167.076 185.565L162.226 184.263Z" fill="#E6E6E6"/>
<path d="M45.3183 110.269H23.043V119.118H45.3183V110.269Z" fill="#E6E6E6"/>
<path d="M45.3183 123.734H23.043V132.583H45.3183V123.734Z" fill="#6C63FF"/>
<path d="M157.836 21.4434C157.836 21.4434 160.345 29.7008 158.911 32.214C157.478 34.7271 161.42 40.1124 167.871 37.5992C174.322 35.0861 174.68 32.214 174.68 32.214C174.68 32.214 172.171 28.2647 171.455 20.0073L157.836 21.4434Z" fill="#FFB9B9"/>
<path d="M125.043 102.402C125.043 102.402 112.141 108.864 117.875 117.481C121.208 122.489 127.569 132.228 132.311 139.506C136.28 145.597 139.323 152.245 141.342 159.232L142.246 162.358L145.83 166.666L153.356 158.05C153.356 158.05 142.246 137.586 142.246 133.637C142.246 129.687 133.286 117.122 133.286 117.122L142.246 111.377C142.246 111.377 132.211 99.8888 125.043 102.402Z" fill="#FFB9B9"/>
<path d="M166.975 124.661C166.975 124.661 167.333 134.714 167.691 138.663C167.987 141.921 165.112 151.044 166.109 161.192C166.717 167.758 166.644 174.37 165.891 180.921L164.466 193.952L175.217 195.029L178.801 165.589C178.801 165.589 180.952 144.766 179.877 137.945L180.235 123.584C180.235 123.584 172.35 120.712 166.975 124.661Z" fill="#FFB9B9"/>
<path d="M147.8 82.8354C147.8 82.8354 122.713 98.9912 122.354 104.018C122.354 104.018 136.69 102.581 137.048 115.147C137.048 115.147 145.65 111.916 147.8 111.198C149.95 110.48 161.419 102.94 161.419 102.94C161.419 102.94 166.078 106.531 166.078 112.275C166.078 118.019 165.719 128.072 166.078 128.79C166.436 129.508 174.679 119.096 181.489 128.072L186.148 103.299C186.148 103.299 187.581 88.2207 184.714 87.1436L164.644 79.6042L147.8 82.8354Z" fill="#2F2E41"/>
<path d="M163.032 25.9311C168.97 25.9311 173.784 21.109 173.784 15.1606C173.784 9.21215 168.97 4.39001 163.032 4.39001C157.094 4.39001 152.28 9.21215 152.28 15.1606C152.28 21.109 157.094 25.9311 163.032 25.9311Z" fill="#FFB9B9"/>
<path d="M160.344 34.009C160.344 34.009 172.471 37.2176 174.113 31.1256C174.113 31.1256 189.015 34.009 191.524 43.7025C194.033 53.396 185.431 76.7322 185.431 77.4502C185.431 78.1683 192.599 82.4765 189.374 84.6306C186.148 86.7847 183.281 84.2716 184.715 87.1437C186.148 90.0159 188.657 90.7339 186.507 91.452C184.356 92.17 171.454 81.0404 161.419 83.9126C151.384 86.7847 146.367 84.6306 146.367 84.6306L141.867 45.6729C141.692 44.1804 141.892 42.6676 142.45 41.2725C143.008 39.8774 143.906 38.6445 145.061 37.6864C147.307 35.8345 150.287 33.8337 153.176 33.291C158.911 32.214 159.149 31.6243 159.149 31.6243L160.344 34.009Z" fill="#D0CDE1"/>
<path d="M148.876 96.8372C148.876 96.8372 152.101 115.147 156.402 112.634C160.703 110.121 155.327 96.8372 155.327 96.8372H148.876Z" fill="#FFB9B9"/>
<path d="M163.848 99.2067C163.848 99.2067 158.259 116.937 163.232 116.7C168.205 116.463 169.568 102.194 169.568 102.194L163.848 99.2067Z" fill="#FFB9B9"/>
<path d="M144.038 161.64C144.038 161.64 141.529 158.768 140.096 162.717C138.662 166.666 134.72 171.692 134.72 171.692C134.72 171.692 126.118 181.386 132.211 181.745C138.304 182.104 146.905 173.129 146.905 173.129L156.94 163.794C156.94 163.794 153.614 155.68 152.051 155.608C150.489 155.537 150.847 165.23 144.038 161.64Z" fill="#2F2E41"/>
<path d="M167.332 191.438C167.332 191.438 164.807 192.177 164.994 189.115C164.994 189.115 155.864 193.952 158.373 197.542C160.881 201.132 163.749 204.722 163.749 204.722C163.749 204.722 177.009 212.262 178.084 210.466C179.159 208.671 179.159 205.081 178.443 203.645C177.726 202.209 174.142 199.696 175.217 197.542C176.292 195.388 174.859 189.643 173.067 189.643C171.275 189.643 167.332 191.438 167.332 191.438Z" fill="#2F2E41"/>
<path d="M153.65 6.03417C153.65 6.03417 157.109 -1.47284 163.738 0.25955C170.367 1.99194 174.114 4.59051 174.402 7.18909C174.69 9.78768 174.258 13.6856 174.258 13.6856C174.258 13.6856 173.537 8.34402 168.926 9.49895C164.314 10.6539 157.109 9.78768 157.109 9.78768L155.956 20.182C155.956 20.182 154.659 18.3053 153.218 19.4602C151.776 20.6151 149.038 8.34402 153.65 6.03417Z" fill="#2F2E41"/>
<path d="M185.431 43.3435C185.431 43.3435 176.83 66.6797 177.547 69.5518C178.263 72.424 177.547 72.783 176.472 73.501C175.396 74.219 172.529 81.7584 172.529 81.7584C172.529 81.7584 170.737 86.0666 169.304 87.1437C167.87 88.2208 167.87 91.0929 167.87 91.0929C167.87 91.0929 164.286 94.6831 165.003 95.4011C165.72 96.1192 165.72 97.1962 164.286 98.2733C162.853 99.3503 161.419 100.786 162.136 101.145C162.853 101.504 167.87 105.454 169.304 105.095C170.737 104.736 168.587 103.3 170.379 102.581C172.171 101.863 173.246 100.786 172.529 100.427C171.812 100.068 169.662 100.068 171.812 99.3503C173.963 98.6323 181.489 93.965 183.998 88.2208C186.506 82.4765 198.526 47.7223 191.262 42.8402C191.262 42.8402 188.298 39.0353 185.431 43.3435Z" fill="#D0CDE1"/>
<path d="M145.651 39.3943L145.505 39.455C144.152 40.0206 142.956 40.9081 142.022 42.0408C141.087 43.1736 140.443 44.5173 140.144 45.9558C139.361 49.7081 138.591 55.1354 139.2 60.2173C140.275 69.1928 140.992 73.142 142.425 76.0141C143.859 78.8863 144.217 77.8092 143.859 79.9633C143.501 82.1174 141.709 80.3224 143.501 83.1945C145.293 86.0666 146.368 85.3486 145.651 86.7847C144.934 88.2207 143.859 88.2207 145.293 90.0158C146.726 91.8109 146.726 92.529 147.084 93.247C147.443 93.965 148.518 99.3503 148.518 99.3503C148.518 99.3503 154.252 97.5552 157.478 98.2733C157.478 98.2733 154.611 93.247 155.327 92.17C156.044 91.0929 157.119 90.7339 156.044 89.6568C154.969 88.5798 153.177 88.9388 154.969 87.8617C156.761 86.7847 153.535 75.6551 153.535 75.6551L145.651 39.3943Z" fill="#D0CDE1"/>
<path d="M371 237.231H0V238H371V237.231Z" fill="#3F3D56"/>
<path d="M243.014 121.825L242.455 121.297L284.595 76.4983H318.897V77.2678H284.927L243.014 121.825Z" fill="#3F3D56"/>
<path d="M336.05 82.3817H295.567V83.7564H336.05V82.3817Z" fill="#6C63FF"/>
<path d="M336.05 88.2242H295.567V89.599H336.05V88.2242Z" fill="#6C63FF"/>
<path d="M336.05 94.0668H295.567V95.4415H336.05V94.0668Z" fill="#6C63FF"/>
<path d="M331.826 194.339H291.343V195.714H331.826V194.339Z" fill="#6C63FF"/>
<path d="M331.826 200.182H291.343V201.556H331.826V200.182Z" fill="#6C63FF"/>
<path d="M331.826 206.024H291.343V207.399H331.826V206.024Z" fill="#6C63FF"/>
<path d="M314.544 187.441H274.016L273.902 187.275L242.409 141.492L243.041 141.055L274.42 186.672H314.544V187.441Z" fill="#3F3D56"/>
</g>
<path opacity="0.1" d="M429.006 143.875C429.032 134.851 426.89 125.952 422.762 117.931C418.635 109.91 412.642 103.001 405.29 97.7865C405.493 95.837 405.597 93.8784 405.602 91.9184C405.602 60.9238 380.864 35.8068 350.366 35.8068C340.973 35.7967 331.736 38.2245 323.557 42.8535C301.962 28.6162 273.774 20 242.936 20C192.775 20 149.598 42.8067 130.449 75.5113C129.385 75.4488 128.315 75.4144 127.235 75.4144C96.7342 75.4144 72.0001 100.541 72.0001 131.535C71.9787 142.483 75.136 153.201 81.0874 162.383V162.383C81.0874 190.27 107.36 212.876 139.755 212.876H374.782C400.228 212.876 420.855 195.125 420.855 173.228C426.207 164.377 429.027 154.223 429.006 143.875V143.875Z" fill="#9170FF"/>
<defs>
<clipPath id="clip0">
<rect width="371" height="238" fill="white"/>
</clipPath>
</defs>
</svg>
