<svg width="681" height="478" viewBox="0 0 681 478" fill="none" xmlns="http://www.w3.org/2000/svg">
<path d="M226.295 461.056C226.295 461.056 220.76 442.411 241.812 431.795L226.295 461.056Z" fill="#E6E6E6"/>
<path d="M225.604 461.155C225.604 461.155 223.409 442.754 198.889 441.6L225.604 461.155Z" fill="#E6E6E6"/>
<path d="M34.4377 466.473C38.3316 482.508 242.771 481.162 242.462 466.473C238.568 450.438 34.1284 451.784 34.4377 466.473Z" fill="#E6E6E6"/>
<path d="M610.411 45.7722C608.588 45.7722 607.11 44.293 607.11 42.4682C607.11 40.6434 608.588 39.1642 610.411 39.1642C612.234 39.1642 613.712 40.6434 613.712 42.4682C613.712 44.293 612.234 45.7722 610.411 45.7722Z" fill="white"/>
<path d="M597.882 45.7722C596.059 45.7722 594.581 44.293 594.581 42.4682C594.581 40.6434 596.059 39.1642 597.882 39.1642C599.705 39.1642 601.183 40.6434 601.183 42.4682C601.183 44.293 599.705 45.7722 597.882 45.7722Z" fill="white"/>
<path d="M585.354 45.7722C583.531 45.7722 582.053 44.293 582.053 42.4682C582.053 40.6434 583.531 39.1642 585.354 39.1642C587.177 39.1642 588.655 40.6434 588.655 42.4682C588.655 44.293 587.177 45.7722 585.354 45.7722Z" fill="white"/>
<path d="M199.249 50.2305H618.431V52.5624H199.249V50.2305Z" fill="white"/>
<path d="M78.0626 384.854C78.0626 384.854 80.4887 376.624 76.5357 379.309C72.5827 381.994 61.0761 386.025 65.2217 392.482C69.3673 398.939 94.1794 434.63 98.1915 427.558C100.419 423.632 92.657 390.328 92.657 390.328C92.657 390.328 87.1354 389.051 86.3447 390.328C85.5539 391.605 78.0626 384.854 78.0626 384.854Z" fill="#2F2E41"/>
<path d="M113.661 174.815L114.403 188.171L124.042 207.467L92.1586 205.983L94.383 185.944L92.9 177.781L113.661 174.815Z" fill="#FFB8B8"/>
<path d="M117.368 197.819C117.368 197.819 112.178 203.756 98.8312 197.077L88.4506 247.54L86.9677 292.811L131.456 291.327L130.715 245.314L117.368 197.819Z" fill="#D1D1D1"/>
<path d="M142.237 293.894C142.237 293.894 137.447 317.447 128.492 311.741C119.537 306.034 130.422 289.498 130.422 289.498L142.237 293.894Z" fill="#FFB8B8"/>
<path d="M98.09 420.468L98.8315 433.085L86.9679 436.795V419.726L98.09 420.468Z" fill="#FFB8B8"/>
<path d="M137.387 288.365V362.58L95.1232 398.946L84.7433 381.134L114.402 356.643L106.988 338.09L75.8456 318.051V289.107L137.387 288.365Z" fill="#2F2E41"/>
<path d="M106.246 334.377L101.797 372.227L100.314 422.691H81.036C81.036 422.691 74.3642 378.161 81.7774 367.029L75.8456 318.054L81.7774 298.758L106.246 334.377Z" fill="#2F2E41"/>
<path d="M89.1916 432.342C89.1916 432.342 88.4501 429.374 93.6404 429.374C98.8307 429.374 101.055 430.116 101.055 430.858C101.229 432.109 101.477 433.348 101.797 434.569C101.797 434.569 115.14 467.966 101.797 466.481C88.4531 464.997 86.2257 458.319 86.2257 458.319L84.7427 436.797C84.7427 436.797 86.2256 434.979 86.9671 435.146C87.7086 435.313 89.1916 432.342 89.1916 432.342Z" fill="#2F2E41"/>
<path d="M101.797 182.237C92.7879 182.237 85.4846 174.927 85.4846 165.909C85.4846 156.892 92.7879 149.582 101.797 149.582C110.806 149.582 118.109 156.892 118.109 165.909C118.109 174.927 110.806 182.237 101.797 182.237Z" fill="#FFB8B8"/>
<path d="M98.8309 202.275L104.021 196.338L93.9863 183.766L89.9333 188.168L66.203 198.558L72.8748 263.867C72.8748 263.867 73.6163 283.163 69.1674 296.522C69.1674 296.522 78.8066 308.397 93.6361 305.428L112.914 309.139C112.914 309.139 115.143 213.407 98.8309 202.275Z" fill="#575A89"/>
<path d="M115.143 198.564L114.291 186.195L118.108 191.142L138.128 205.985L135.904 288.364L129.232 292.075L118.109 203.763L115.143 198.564Z" fill="#575A89"/>
<path d="M132.939 205.243L138.129 205.986C138.129 205.986 141.836 212.663 141.836 213.407C141.836 214.151 143.319 252.741 143.319 252.741C143.319 252.741 145.914 291.704 141.466 299.126L128.339 284.99L132.939 272.037V205.243Z" fill="#575A89"/>
<path opacity="0.3" d="M102.187 368.906L101.164 393.747L104.248 391.091L102.187 368.906Z" fill="black"/>
<path opacity="0.3" d="M77.5365 378.816L78.6184 379.353L79.7783 412.632L77.0983 409.179L77.5365 378.816Z" fill="black"/>
<path d="M55.825 297.27C55.825 297.27 59.5324 321.022 49.1533 318.793C38.7742 316.563 43.2215 297.27 43.2215 297.27H55.825Z" fill="#FFB8B8"/>
<path d="M72.8798 198.564H66.208C66.208 198.564 61.7592 200.791 61.0177 207.47C60.2763 214.149 49.8957 243.835 49.8957 243.835C49.8957 243.835 38.0321 292.818 38.7736 299.497H57.3104L55.8275 286.141L75.8472 232.706L72.8798 198.564Z" fill="#575A89"/>
<path d="M115.672 150.225L118.781 148.979C118.781 148.979 112.279 141.814 103.233 142.437L105.777 139.633C105.777 139.633 99.5601 137.141 93.9036 143.683C90.9316 147.122 87.4926 151.164 85.3485 155.717H82.018L83.4077 158.781L78.5426 161.844L83.5358 161.294C83.2379 162.972 83.1921 164.686 83.4001 166.378C83.6143 168.07 84.4766 169.611 85.8049 170.679C85.8049 170.679 89.6617 162.689 89.6617 161.443V164.558C89.6617 164.558 92.7701 161.754 92.7701 159.885L94.4661 162.066L95.3145 158.639L105.777 162.066L104.081 159.262L110.583 160.197L108.039 156.77C108.039 156.77 115.389 160.82 115.672 164.246C115.988 166.621 116.819 168.899 118.106 170.92C118.106 170.92 123.871 154.898 115.672 150.225Z" fill="#2F2E41"/>
<path d="M198.89 0.273193H680.795V309.19H198.89V0.273193Z" fill="#E6E6E6"/>
<path d="M199.095 0H681.001V20.4919H199.095V0Z" fill="#7C57F6"/>
<path d="M212.271 37.0204H666.617V154.782H212.271V37.0204Z" fill="white"/>
<path d="M211.984 174.134H666.33V291.896H211.984V174.134Z" fill="white"/>
<path d="M267.299 63.0717H513.191V74.0408H267.299V63.0717Z" fill="#E6E6E6"/>
<path d="M425.519 90.4941H513.191V101.463H425.519V90.4941Z" fill="#E6E6E6"/>
<path d="M338.532 117.917H513.191V128.886H338.532V117.917Z" fill="#E6E6E6"/>
<path d="M529.687 95.9556C529.674 103.937 531.995 111.747 536.364 118.423C537.28 119.831 538.283 121.179 539.368 122.461C541.913 125.478 544.877 128.114 548.169 130.288C549.065 130.882 549.985 131.439 550.931 131.958C555.852 134.682 561.284 136.356 566.884 136.875C568.157 136.999 569.451 137.059 570.756 137.059C574.334 137.062 577.897 136.596 581.354 135.671C583.313 135.156 585.23 134.49 587.087 133.679C588.036 133.269 588.964 132.823 589.87 132.341C592.05 131.195 594.12 129.853 596.056 128.33C596.957 127.629 597.825 126.889 598.661 126.112C603.665 121.473 607.435 115.66 609.632 109.197C611.829 102.735 612.384 95.8266 611.246 89.096C610.108 82.3653 607.313 76.0243 603.114 70.6455C598.914 65.2667 593.442 61.0194 587.192 58.287C580.943 55.5547 574.111 54.4233 567.315 54.9951C560.519 55.5669 553.972 57.8238 548.265 61.5622C542.559 65.3005 537.872 70.4025 534.629 76.4075C531.386 82.4125 529.687 89.1315 529.688 95.9579L529.687 95.9556Z" fill="#E6E6E6"/>
<path d="M580.708 99.6687C580.708 99.6687 576.97 110.065 579.875 115.884C582.779 121.703 575.305 128.357 575.305 128.357C575.305 128.357 555.781 118.378 558.274 113.389C560.767 108.399 564.92 101.747 564.09 97.5894L580.708 99.6687Z" fill="#FFB8B8"/>
<path d="M573.439 103.619C566.097 103.619 560.146 97.6617 560.146 90.3136C560.146 82.9655 566.097 77.0087 573.439 77.0087C580.78 77.0087 586.731 82.9655 586.731 90.3136C586.731 97.6617 580.78 103.619 573.439 103.619Z" fill="#FFB8B8"/>
<path d="M581.354 135.669C583.313 135.154 585.23 134.488 587.087 133.677L586.731 123.577L582.993 115.258C582.153 115.917 581.253 116.497 580.307 116.991C580.079 117.115 579.852 117.234 579.6 117.353C576.094 119.048 570.367 120.54 564.816 116.382C562.776 114.792 561.045 112.842 559.708 110.627L549.343 116.506L548.799 122.876L548.168 130.287C549.063 130.881 549.983 131.438 550.929 131.957C555.85 134.681 561.282 136.356 566.882 136.874C568.155 136.999 569.449 137.058 570.755 137.058C574.333 137.061 577.897 136.594 581.354 135.669Z" fill="#575A89"/>
<path d="M578.803 109.035V109.051L579.326 114.481L579.601 117.353L580.005 121.623L581.353 135.669C583.312 135.154 585.229 134.488 587.086 133.677C588.035 133.267 588.963 132.821 589.869 132.339C592.049 131.193 594.119 129.851 596.055 128.328L597.533 121.498L597.42 121.423L578.803 109.035Z" fill="#575A89"/>
<path d="M550.931 131.955C555.853 134.68 561.284 136.354 566.884 136.873C566.581 131.82 566.14 126.94 565.639 122.595C565.38 120.365 565.108 118.282 564.819 116.382C563.918 110.277 562.948 106.13 562.252 105.569L557.657 108.605L538.964 115.255L539.369 122.457C541.913 125.474 544.877 128.11 548.17 130.284C549.065 130.88 549.986 131.437 550.931 131.955Z" fill="#575A89"/>
<path d="M596.056 128.328C596.957 127.626 597.825 126.887 598.661 126.109L597.949 121.499L597.419 121.423L595.04 121.083L589.868 132.339C592.048 131.193 594.118 129.851 596.054 128.328H596.056Z" fill="#575A89"/>
<path d="M536.363 118.422C537.279 119.83 538.282 121.179 539.367 122.46C541.912 125.477 544.876 128.113 548.169 130.287C549.064 130.881 549.984 131.438 550.93 131.957L551.42 129.814L548.799 122.877L545.607 114.429L538.962 115.264C538.041 116.27 537.174 117.325 536.363 118.422Z" fill="#575A89"/>
<path d="M560.763 78.2805C562.773 75.0138 565.919 72.6064 569.595 71.5215L572.296 73.6842L571.246 71.1618C572.129 71.0278 573.022 70.977 573.915 71.01L576.345 74.1372L575.339 71.117C577.447 71.3793 579.479 72.0761 581.305 73.1634C583.131 74.2507 584.712 75.7049 585.949 77.4344C589.042 81.898 589.564 88.1053 586.522 92.6038C585.688 90.0351 584.673 87.625 583.838 85.0563C583.181 85.1459 582.516 85.1492 581.859 85.0661L580.843 82.6932L580.559 84.9652C577.411 84.6905 572.74 84.088 569.755 83.5355L570.045 81.7902L568.308 83.2388C567.394 83.0279 566.851 82.8366 566.896 82.6909C564.676 86.2735 562.476 88.5614 560.256 92.1439C559.415 87.093 557.928 82.8905 560.763 78.2805Z" fill="#2F2E41"/>
<path d="M561.499 91.6977C561.002 91.6977 560.599 90.8912 560.599 89.8962C560.599 88.9013 561.002 88.0947 561.499 88.0947C561.996 88.0947 562.399 88.9013 562.399 89.8962C562.399 90.8912 561.996 91.6977 561.499 91.6977Z" fill="#FFB8B8"/>
<path d="M531.685 232.412C531.672 240.398 533.994 248.213 538.366 254.894C539.283 256.303 540.287 257.653 541.372 258.935C543.919 261.954 546.885 264.592 550.18 266.768C551.076 267.362 551.997 267.919 552.943 268.437C557.868 271.164 563.304 272.839 568.908 273.358C570.182 273.483 571.477 273.542 572.783 273.542C576.363 273.546 579.929 273.079 583.388 272.154C585.349 271.638 587.267 270.972 589.125 270.161C590.075 269.75 591.003 269.303 591.909 268.821C594.091 267.675 596.163 266.331 598.1 264.808C599.001 264.106 599.87 263.365 600.706 262.587C605.711 257.945 609.483 252.129 611.68 245.663C613.877 239.197 614.431 232.285 613.292 225.551C612.152 218.817 609.356 212.473 605.154 207.092C600.952 201.711 595.477 197.461 589.224 194.728C582.971 191.994 576.137 190.862 569.337 191.433C562.537 192.005 555.987 194.263 550.277 198.002C544.568 201.742 539.878 206.846 536.632 212.853C533.386 218.861 531.686 225.583 531.685 232.412V232.412Z" fill="#7C57F6"/>
<path d="M570.261 213.211H575.299V251.602H570.261V213.211Z" fill="white"/>
<path d="M553.603 234.928V229.885H591.959V234.928H553.603Z" fill="white"/>
<path d="M273.463 200.185H519.356V211.154H273.463V200.185Z" fill="#E6E6E6"/>
<path d="M431.684 227.607H519.356V238.577H431.684V227.607Z" fill="#E6E6E6"/>
<path d="M344.696 255.03H519.356V265.999H344.696V255.03Z" fill="#E6E6E6"/>
<path d="M0.000968933 357.547C-0.00146484 364.067 1.50425 370.499 4.40019 376.34C7.29614 382.18 11.5036 387.27 16.6932 391.211C17.4453 391.784 18.2159 392.333 19.0048 392.857C19.207 392.992 19.4092 393.121 19.6114 393.245C20.3468 393.717 21.0928 394.156 21.8502 394.571C22.1534 394.739 22.4567 394.902 22.76 395.059C22.8214 395.093 22.8782 395.121 22.9397 395.149C23.3271 395.351 23.7137 395.548 24.1065 395.733C25.8236 396.555 27.5953 397.257 29.409 397.834C32.2835 398.75 35.2484 399.352 38.2521 399.631C39.5662 399.754 40.8943 399.816 42.2362 399.816C45.9152 399.82 49.5788 399.34 53.1331 398.389C54.9575 397.91 56.7463 397.303 58.4864 396.575C58.6661 396.499 58.8511 396.423 59.0308 396.347C59.8835 395.976 60.7195 395.578 61.5388 395.151L61.8921 394.966C62.7842 394.5 63.6558 394.002 64.507 393.472C65.8029 392.664 67.0541 391.787 68.2553 390.843C68.8668 390.371 69.4617 389.877 70.04 389.361C70.3432 389.102 70.6404 388.829 70.9323 388.563C72.067 387.509 73.1442 386.394 74.159 385.224C74.5631 384.758 74.9558 384.286 75.3372 383.803C79.5236 378.516 82.385 372.302 83.6823 365.682C84.9797 359.062 84.6753 352.228 82.7947 345.749C80.9141 339.271 77.5118 333.337 72.8721 328.444C68.2324 323.551 62.49 319.84 56.1248 317.621C49.7596 315.403 42.9564 314.742 36.2836 315.692C29.6108 316.643 23.2623 319.179 17.7684 323.087C12.2746 326.995 7.795 332.162 4.7039 338.157C1.61279 344.152 -5.34058e-05 350.8 0.000183105 357.547H0.000968933Z" fill="#E6E6E6"/>
<path d="M29.0559 376.486C25.56 376.486 22.726 373.649 22.726 370.15C22.726 366.651 25.56 363.815 29.0559 363.815C32.5518 363.815 35.3857 366.651 35.3857 370.15C35.3857 373.649 32.5518 376.486 29.0559 376.486Z" fill="#2F2E41"/>
<path d="M27.2922 363.989C26.1967 363.989 25.1199 364.274 24.1671 364.815C23.2144 365.357 22.4183 366.136 21.8567 367.078C21.2951 368.019 20.9873 369.09 20.9633 370.187C20.9393 371.283 21.2 372.367 21.7198 373.332C21.1712 372.645 20.7716 371.851 20.5464 371C20.3213 370.15 20.2757 369.262 20.4124 368.393C20.5491 367.524 20.8651 366.693 21.3404 365.953C21.8156 365.213 22.4397 364.58 23.1727 364.095C23.9058 363.61 24.7318 363.283 25.5982 363.134C26.4645 362.986 27.3522 363.021 28.2047 363.235C29.0571 363.449 29.8557 363.839 30.5494 364.379C31.2431 364.919 31.8168 365.598 32.2339 366.372C31.6421 365.628 30.8904 365.028 30.0347 364.615C29.179 364.203 28.2413 363.989 27.2915 363.989H27.2922Z" fill="#2F2E41"/>
<path d="M40.884 370.137C30.6146 370.137 22.2896 361.804 22.2896 351.525C22.2896 341.246 30.6146 332.914 40.884 332.914C51.1535 332.914 59.4785 341.246 59.4785 351.525C59.4785 361.804 51.1535 370.137 40.884 370.137Z" fill="#2F2E41"/>
<path d="M55.4782 339.978C52.2742 336.371 47.7956 334.151 42.9876 333.787C38.1795 333.423 33.4182 334.943 29.7085 338.026C29.8601 337.881 30.0118 337.735 30.1687 337.595C31.9919 335.96 34.1197 334.702 36.43 333.892C38.7403 333.082 41.1875 332.737 43.6314 332.876C46.0753 333.015 48.4677 333.636 50.6714 334.702C52.8751 335.769 54.8466 337.261 56.473 339.092C58.0993 340.923 59.3484 343.058 60.1487 345.373C60.9489 347.688 61.2845 350.139 61.1363 352.585C60.988 355.03 60.3587 357.423 59.2846 359.624C58.2105 361.826 56.7127 363.793 54.877 365.414C54.7193 365.555 54.5571 365.687 54.3956 365.822C57.889 362.495 59.9546 357.941 60.1565 353.119C60.3583 348.297 58.6806 343.585 55.4775 339.978H55.4782Z" fill="#2F2E41"/>
<path d="M41.0418 369.979C34.4278 369.979 29.066 364.612 29.066 357.992C29.066 351.372 34.4278 346.005 41.0418 346.005C47.6558 346.005 53.0176 351.372 53.0176 357.992C53.0176 364.612 47.6558 369.979 41.0418 369.979Z" fill="#A0616A"/>
<path d="M49.5518 361.778C49.5518 361.778 47.9763 376.289 50.4972 377.865C53.0181 379.442 35.9997 381.651 35.9997 381.651C35.9997 381.651 38.5213 365.878 32.218 361.777L49.5518 361.778Z" fill="#A0616A"/>
<path d="M19.6123 389.223V393.806C20.3477 394.278 21.0937 394.716 21.8511 395.132C22.1544 395.3 22.4576 395.463 22.7609 395.62V395.71H22.9406C23.328 395.912 23.7147 396.108 24.1081 396.294C25.8252 397.116 27.5969 397.817 29.4106 398.395C32.2851 399.31 35.25 399.913 38.2537 400.192C39.5679 400.315 40.8959 400.377 42.2378 400.377C45.9169 400.38 49.5805 399.901 53.1348 398.95C54.9592 398.471 56.748 397.864 58.4881 397.136C58.6678 397.06 58.8528 396.984 59.0325 396.908C59.8851 396.537 60.7211 396.139 61.5404 395.712L61.8937 395.527C62.7858 395.061 63.6574 394.563 64.5086 394.033C65.8045 393.225 67.0558 392.347 68.2569 391.404C68.8685 390.932 69.4634 390.438 70.0416 389.921C70.3449 389.663 70.6421 389.39 70.934 389.124C72.0687 388.07 73.1458 386.955 74.1606 385.785C74.0271 384.832 73.8056 383.894 73.4988 382.982L73.4927 382.977C73.4068 382.739 73.3055 382.506 73.1894 382.28C71.8316 379.736 69.3797 379.107 66.3266 378.973C64.6094 378.897 62.7072 378.978 60.6928 378.956C59.6314 378.951 58.5381 378.911 57.4327 378.81C50.4971 378.181 51.7595 374.081 51.4434 371.874C51.1348 369.734 49.2098 371.588 49.0809 371.71L49.0757 371.716C45.1503 373.556 40.8072 374.32 36.4903 373.929H36.485C35.7459 373.834 35.0024 373.778 34.2575 373.76C32.3045 373.737 32.7314 374.299 33.3993 374.759C33.7283 374.975 34.0712 375.168 34.4259 375.338C34.4259 375.338 34.7397 377.23 35.0544 380.072C35.3576 382.79 30.1559 384.065 29.7238 384.161C29.7156 384.167 29.7059 384.171 29.6957 384.172C27.7954 383.678 25.7946 383.729 23.9216 384.318C22.8525 384.712 21.8986 385.367 21.1461 386.223C20.3936 387.079 19.8664 388.109 19.6123 389.221V389.223Z" fill="#7C57F6"/>
<path d="M58.4138 395.71C58.4305 396.221 58.4586 396.696 58.4897 397.136C58.6693 397.061 58.8543 396.985 59.034 396.909C59.8867 396.538 60.7227 396.139 61.542 395.713L61.8953 395.528C62.7874 395.062 63.659 394.564 64.5102 394.033C64.4844 393.586 64.4358 393.14 64.3646 392.697C63.6834 388.03 64.3653 383.265 66.3282 378.976C66.4799 378.668 66.5693 378.499 66.5693 378.499C66.5693 378.499 64.3638 376.607 61.216 378.499C61.0175 378.622 60.8412 378.778 60.6944 378.96C58.6049 381.433 58.1955 390.352 58.4138 395.71Z" fill="#2F2E41"/>
<path d="M24.0793 395.71C24.0846 395.901 24.096 396.098 24.1074 396.294C25.8245 397.116 27.5962 397.817 29.4099 398.395L29.5168 395.71L29.9209 385.05C29.9375 384.742 29.8696 384.435 29.7245 384.163C29.5799 383.881 29.36 383.644 29.0892 383.478C28.8184 383.313 28.5072 383.226 28.19 383.227H24.3409C24.1498 383.227 24.0156 383.615 23.9254 384.316C23.6805 386.269 23.7988 390.633 24.0793 395.71Z" fill="#2F2E41"/>
<path d="M51.2847 343.008V354.998H48.5113L44.9821 351.213L45.4545 354.998H33.1951L33.9533 351.213L32.4369 354.998H30.4824V343.008H51.2847Z" fill="#2F2E41"/>
<path d="M53.1757 357.204C52.6536 357.204 52.2303 356.427 52.2303 355.469C52.2303 354.511 52.6536 353.734 53.1757 353.734C53.6978 353.734 54.1211 354.511 54.1211 355.469C54.1211 356.427 53.6978 357.204 53.1757 357.204Z" fill="#A0616A"/>
<path d="M28.9076 357.204C28.3855 357.204 27.9622 356.427 27.9622 355.469C27.9622 354.511 28.3855 353.734 28.9076 353.734C29.4298 353.734 29.853 354.511 29.853 355.469C29.853 356.427 29.4298 357.204 28.9076 357.204Z" fill="#A0616A"/>
<path d="M16.6949 391.773C17.447 392.346 18.2175 392.895 19.0065 393.419C19.2087 393.554 19.4109 393.683 19.6131 393.807C20.3485 394.279 21.0945 394.717 21.8519 395.132C22.1552 395.301 22.4585 395.464 22.7617 395.621V386.697C22.7617 386.697 21.5441 387.668 19.6138 389.286C18.7654 389.999 17.7775 390.841 16.6949 391.773Z" fill="#7C57F6"/>
<path d="M649.129 13.5834C647.259 13.5834 645.742 12.0657 645.742 10.1936C645.742 8.32149 647.259 6.80383 649.129 6.80383C650.999 6.80383 652.516 8.32149 652.516 10.1936C652.516 12.0657 650.999 13.5834 649.129 13.5834Z" fill="white"/>
<path d="M636.273 13.5834C634.403 13.5834 632.887 12.0657 632.887 10.1936C632.887 8.32149 634.403 6.80383 636.273 6.80383C638.144 6.80383 639.66 8.32149 639.66 10.1936C639.66 12.0657 638.144 13.5834 636.273 13.5834Z" fill="white"/>
<path d="M662.018 13.5834C660.147 13.5834 658.631 12.0657 658.631 10.1936C658.631 8.32149 660.147 6.80383 662.018 6.80383C663.888 6.80383 665.404 8.32149 665.404 10.1936C665.404 12.0657 663.888 13.5834 662.018 13.5834Z" fill="white"/>
</svg>
