<svg width="771" height="444" viewBox="0 0 771 444" fill="none" xmlns="http://www.w3.org/2000/svg">
<g clip-path="url(#clip0)">
<path opacity="0.5" d="M579.672 290.781C626.288 274.688 679.587 261.066 723.14 284.192C728.66 287.123 734.099 290.813 737.073 296.304C744.928 310.75 732.442 329.483 738.527 344.753C744.613 360.022 767.517 367.709 765.642 384.021C765.149 388.284 762.837 392.144 760.114 395.471C743.053 416.295 711.777 418.403 685.341 413.235C658.906 408.067 633.052 397.352 606.14 398.7C580.278 400.033 556.486 412.428 532.79 422.86C492.842 440.496 446.186 453.149 406.27 435.425C387.981 427.301 372.86 413.469 355.355 403.812C331.764 390.917 304.648 385.946 278.013 389.632C260.233 392.136 243.261 398.434 225.861 402.778C186.341 412.638 145.092 412.315 104.368 411.927C96.7871 411.854 89.0852 411.766 81.8197 409.601C71.0629 406.372 62.1891 398.935 53.6467 391.659C42.4211 382.107 30.5975 371.61 26.9769 357.325C22.7016 340.368 31.5511 322.345 44.6759 310.823C57.8007 299.3 74.5784 293.002 90.952 286.929C94.9929 285.444 99.3086 283.934 103.446 285.056C106.162 285.799 108.449 287.608 110.478 289.554C122.099 300.729 131.919 319.632 147.767 316.596C153.424 315.514 158.055 311.582 162.532 307.948C186.438 288.569 218.595 273.606 247.447 284.313C268.549 292.146 283.443 312.26 304.828 319.358C320.038 324.412 336.565 322.224 352.567 323.209C375.842 324.631 398.495 332.851 421.803 332.35C481.236 331.074 530.753 274.292 589.944 279.702C594.583 280.122 599.642 281.188 602.487 284.854" fill="#9170FF"/>
<path d="M654.623 236.769C654.623 236.769 704.01 266.557 612.937 312.438C612.937 312.438 592.87 275.213 615.054 244.86C619.359 238.946 625.686 234.815 632.835 233.249C639.985 231.683 647.461 232.792 653.847 236.365L654.623 236.769Z" fill="#9170FF"/>
<path d="M654.033 236.147C654.033 236.147 611.749 268.446 612.929 312.413" stroke="#535461" stroke-miterlimit="10"/>
<path d="M29.7814 211.955C19.7762 248.51 62.456 352.65 62.456 352.65C62.456 352.65 152.26 284.717 162.274 248.162C164.893 239.398 165.733 230.199 164.743 221.105C163.753 212.012 160.955 203.208 156.511 195.211C152.068 187.214 146.069 180.185 138.868 174.537C131.667 168.889 123.409 164.736 114.579 162.322C105.749 159.908 96.5245 159.282 87.4487 160.481C78.3729 161.68 69.6284 164.679 61.7291 169.302C53.8298 173.925 46.9352 180.079 41.4502 187.403C35.9653 194.726 32.0007 203.071 29.7895 211.947L29.7814 211.955Z" fill="#9170FF"/>
<path opacity="0.1" d="M29.7814 211.955C19.7762 248.51 62.456 352.65 62.456 352.65C62.456 352.65 152.26 284.717 162.274 248.162C164.893 239.398 165.733 230.199 164.743 221.105C163.753 212.012 160.955 203.208 156.511 195.211C152.068 187.214 146.069 180.185 138.868 174.537C131.667 168.889 123.409 164.736 114.579 162.322C105.749 159.908 96.5245 159.282 87.4487 160.481C78.3729 161.68 69.6284 164.679 61.7291 169.302C53.8298 173.925 46.9352 180.079 41.4502 187.403C35.9653 194.726 32.0007 203.071 29.7895 211.947L29.7814 211.955Z" fill="black"/>
<path d="M113.783 164.08C113.783 164.08 57.8815 248.396 62.0598 352.852" stroke="#535461" stroke-miterlimit="10"/>
<path d="M15.5171 278.766C15.5171 278.766 66.2059 251.215 59.789 352.917C59.789 352.917 17.5052 351.407 2.4974 316.943C-0.437115 310.241 -0.808167 302.695 1.45453 295.737C3.71722 288.779 8.45642 282.893 14.7736 279.194L15.5171 278.766Z" fill="#9170FF"/>
<path d="M14.6846 278.943C14.6846 278.943 21.2307 331.736 59.7888 352.916" stroke="#535461" stroke-miterlimit="10"/>
<path d="M757.618 267.429C757.618 267.429 807.03 297.209 715.948 343.065C715.948 343.065 695.881 305.84 718.066 275.487C722.371 269.573 728.697 265.442 735.847 263.877C742.996 262.311 750.472 263.42 756.858 266.993L757.618 267.429Z" fill="#9170FF"/>
<path d="M757.051 266.807C757.051 266.807 714.767 299.106 715.947 343.073" stroke="#535461" stroke-miterlimit="10"/>
<path d="M141.083 306.196H193.009C191.814 303.795 191.194 301.149 191.198 298.468V62.2324C191.198 57.6259 193.03 53.208 196.29 49.9507C199.55 46.6934 203.972 44.8635 208.582 44.8635H610.512C615.123 44.8635 619.544 46.6934 622.805 49.9507C626.065 53.208 627.896 57.6259 627.896 62.2324V298.476C627.9 301.158 627.281 303.803 626.086 306.204H679.846C680.452 306.204 681.052 306.324 681.611 306.556C682.171 306.788 682.679 307.129 683.106 307.558C683.533 307.987 683.872 308.497 684.101 309.057C684.331 309.617 684.447 310.217 684.444 310.823V314.529C684.444 321.343 681.735 327.879 676.912 332.697C672.089 337.516 665.548 340.223 658.728 340.223H162.201C155.38 340.223 148.839 337.516 144.017 332.697C139.194 327.879 136.485 321.343 136.485 314.529V310.823C136.48 310.217 136.596 309.616 136.825 309.054C137.055 308.493 137.393 307.983 137.82 307.553C138.247 307.123 138.756 306.781 139.316 306.549C139.876 306.316 140.477 306.196 141.083 306.196ZM461.032 320.892L465.509 315.845H354.967L359.897 320.9L461.032 320.892Z" fill="url(#paint0_linear)"/>
<path d="M214.959 48.2065H604.176C614.558 48.2065 622.974 56.6154 622.974 66.9884V294.269C622.974 304.642 614.558 313.051 604.176 313.051H214.959C204.577 313.051 196.16 304.642 196.16 294.269V66.9884C196.16 56.6154 204.577 48.2065 214.959 48.2065Z" fill="#535461"/>
<path d="M206.044 86.812H613.988V303.176H206.044V86.812Z" fill="white"/>
<path d="M410.012 71.5506C408.026 71.5506 406.416 69.9419 406.416 67.9574C406.416 65.9728 408.026 64.3641 410.012 64.3641C411.998 64.3641 413.608 65.9728 413.608 67.9574C413.608 69.9419 411.998 71.5506 410.012 71.5506Z" fill="white"/>
<path d="M347.031 303.62L361.045 317.985H459.852L472.516 303.62H673.744C674.936 303.62 676.079 304.093 676.921 304.935C677.764 305.777 678.238 306.919 678.238 308.11V311.727C678.238 318.387 675.589 324.775 670.876 329.484C666.162 334.194 659.769 336.84 653.103 336.84H167.826C164.525 336.84 161.257 336.19 158.208 334.928C155.158 333.666 152.387 331.816 150.053 329.484C147.719 327.152 145.868 324.384 144.605 321.337C143.342 318.29 142.692 315.025 142.692 311.727V308.11C142.692 306.919 143.165 305.777 144.008 304.935C144.851 304.093 145.993 303.62 147.185 303.62H347.031Z" fill="#535461"/>
<path d="M561.868 100.281V284.321H257.266" stroke="#535461" stroke-width="2" stroke-miterlimit="10"/>
<path opacity="0.5" d="M503.469 228.662H534.916V277.143H503.469V228.662Z" fill="#9170FF"/>
<path opacity="0.7" d="M449.556 185.567H481.002V277.143H449.556V185.567Z" fill="#9170FF"/>
<path opacity="0.5" d="M395.643 211.6H427.089V277.135H395.643V211.6Z" fill="#9170FF"/>
<path opacity="0.8" d="M341.729 171.202H373.175V277.143H341.729V171.202Z" fill="#9170FF"/>
<path d="M287.816 133.492H319.262V277.135H287.816V133.492Z" fill="#9170FF"/>
<path d="M519.641 199.035L464.831 149.658L410.917 196.338L357.901 139.783L303.987 117.335" stroke="#535461" stroke-width="2" stroke-miterlimit="10"/>
<path d="M519.641 205.318C516.169 205.318 513.353 202.505 513.353 199.035C513.353 195.566 516.169 192.753 519.641 192.753C523.114 192.753 525.929 195.566 525.929 199.035C525.929 202.505 523.114 205.318 519.641 205.318Z" fill="#9170FF"/>
<path d="M411.814 201.724C408.342 201.724 405.527 198.912 405.527 195.442C405.527 191.973 408.342 189.16 411.814 189.16C415.287 189.16 418.102 191.973 418.102 195.442C418.102 198.912 415.287 201.724 411.814 201.724Z" fill="#9170FF"/>
<path d="M357.004 146.065C353.531 146.065 350.716 143.252 350.716 139.783C350.716 136.313 353.531 133.5 357.004 133.5C360.476 133.5 363.291 136.313 363.291 139.783C363.291 143.252 360.476 146.065 357.004 146.065Z" fill="#9170FF"/>
<path d="M464.831 155.036C461.358 155.036 458.543 152.223 458.543 148.754C458.543 145.284 461.358 142.471 464.831 142.471C468.303 142.471 471.118 145.284 471.118 148.754C471.118 152.223 468.303 155.036 464.831 155.036Z" fill="#9170FF"/>
<path d="M303.987 123.617C300.515 123.617 297.7 120.804 297.7 117.335C297.7 113.865 300.515 111.052 303.987 111.052C307.46 111.052 310.275 113.865 310.275 117.335C310.275 120.804 307.46 123.617 303.987 123.617Z" fill="#9170FF"/>
<path d="M70.0608 311.485C73.3743 310.395 78.288 309.135 82.1834 309.579C85.8929 308.231 94.6132 304.734 100.569 299.469C100.398 294.293 100.53 289.111 100.965 283.95C104.012 249.333 97.1589 226.514 97.1589 226.514C97.1589 226.514 91.7764 209.105 92.3664 194.659C92.0189 195.313 91.825 195.7 91.825 195.7C91.3562 183.241 87.1052 170.346 83.921 162.311C83.7996 162.277 83.6808 162.233 83.5654 162.182L80.0094 153.752C79.7261 153.26 79.501 152.737 79.3386 152.193L78.7648 150.861L78.9345 150.788C78.878 150.57 78.8214 150.336 78.7648 150.102C76.4939 140.501 74.724 117.73 74.724 117.73C68.6303 93.7644 83.0967 78.9714 83.0967 78.9714L107.649 57.8639C107.527 58.1387 107.445 58.4297 107.407 58.7279L107.609 58.5503C107.956 57.5571 108.336 56.3701 108.708 55.0135C107.842 54.3922 107.031 53.6979 106.283 52.9383C103.492 50.3042 101.571 46.8813 100.78 43.1274C100.303 40.1918 100.181 37.2098 100.416 34.2452L100.82 24.0629C100.838 22.0701 101.041 20.0833 101.426 18.1279C103.277 10.0531 111.561 4.40076 119.877 4.02932C122.523 4.01393 125.167 4.15414 127.797 4.44922C129.947 4.62572 132.106 4.67156 134.262 4.58649C134.508 4.59948 134.751 4.53447 134.957 4.40077C135.144 4.21425 135.252 3.96233 135.256 3.69825C135.299 3.22567 135.245 2.74939 135.097 2.29829C134.95 1.84719 134.713 1.43065 134.4 1.07395C134.074 0.788884 133.695 0.571968 133.284 0.436048L133.874 0.573318C133.584 0.344149 133.256 0.166617 132.905 0.0484619C135.06 0.427152 137.133 1.1786 139.031 2.26903C139.553 2.61217 140.033 3.01603 140.461 3.47216C141.591 4.46289 142.326 5.82757 142.53 7.31577C143.542 6.4616 144.298 5.34348 144.712 4.08585C144.841 3.57159 144.841 3.0336 144.712 2.51934C144.857 2.69699 144.998 2.88001 145.132 3.06842C145.132 3.0119 145.132 2.95538 145.132 2.89886C146.694 4.81697 147.799 7.06446 148.365 9.47173C148.582 9.21105 148.746 8.90976 148.846 8.58537C148.946 8.26099 148.98 7.92 148.947 7.58224C149.068 7.96175 149.181 8.34126 149.286 8.72077C149.323 8.46909 149.323 8.21342 149.286 7.96174C150.238 10.8728 150.667 13.929 150.555 16.9894C150.555 20.0416 149.197 24.7977 145.924 25.8716C145.755 25.9281 145.585 25.9685 145.407 26.0089C147.248 28.8659 148.35 32.1346 148.615 35.522C148.881 38.9095 148.3 42.3097 146.927 45.418C145.553 48.5262 143.429 51.2453 140.745 53.3315C138.061 55.4177 134.9 56.8058 131.547 57.3713C131.493 57.7428 131.442 58.1331 131.393 58.5422H131.264C131.175 59.3497 131.102 60.2379 131.054 61.1423C131.88 61.9509 132.784 62.6758 133.753 63.3063C136.501 64.9292 139.566 65.9426 142.74 66.2778C146.531 66.575 150.214 67.6761 153.545 69.5077C157.465 71.696 161.789 74.8855 163.146 78.7614C165.409 85.2213 177.871 95.2744 186.228 96.5259L189.202 96.3564L189.42 96.2918V96.3483L190.148 96.3079H190.188H190.382V96.3483L191.134 96.3079C191.134 96.3079 191.206 96.6552 191.311 97.2688C195.514 95.8235 204.444 91.8184 216.066 81.2808C228.997 69.5481 246.494 71.8575 253.242 73.3352C253.472 73.3858 253.68 73.5051 253.84 73.6773C254 73.8495 254.104 74.0663 254.137 74.2989C254.17 74.5314 254.132 74.7685 254.027 74.9787C253.922 75.1888 253.755 75.362 253.549 75.475C250.825 76.9688 246.607 79.141 244.659 79.3832C244.659 79.3832 248.7 83.6063 244.4 85.843C243.885 86.0922 243.31 86.1946 242.74 86.1391C242.17 86.0835 241.626 85.8721 241.168 85.5281C239.083 84.002 233.288 87.458 224.891 89.2586C224.891 89.2586 201.195 113.758 189.428 117.52C189.157 118.055 188.858 118.576 188.531 119.079L187.804 119.022V119.079H187.497L187.408 119.886C187.408 119.886 169.111 118.925 163.163 112.288C162.742 111.911 162.355 111.498 162.007 111.052L168.367 190.993H168.311L168.367 191.752H163.688C163.288 201.584 163.712 211.432 164.957 221.193V273.307C164.957 273.307 165.199 277.894 155.663 284.612C145.664 291.567 136.029 299.03 126.795 306.971L125.639 307.972C127.393 323.92 131.062 353.643 134.125 354.749L132.234 355.081C135.466 359.174 144.647 370.423 147.444 370.721C150.87 371.101 153.157 376.43 147.444 377.569C136.035 379.542 124.304 378.387 113.5 374.226C112.423 373.801 111.519 373.028 110.933 372.03C110.347 371.031 110.113 369.866 110.268 368.719L111.375 360.321C111.165 360.437 110.996 360.615 110.89 360.83C110.13 363.115 110.89 357.786 110.89 357.786C107.759 347.731 105.299 337.481 103.527 327.101L92.2129 336.872C92.2129 336.872 91.9866 336.589 91.5906 336.064C88.8186 342.347 83.8725 355.202 84.9797 364.617C86.4991 377.536 72.0489 366.135 73.5602 358.528C74.7886 352.375 69.293 326.294 67.1514 316.54C66.9206 315.486 67.0908 314.385 67.6287 313.451C68.1666 312.516 69.0337 311.815 70.0608 311.485Z" fill="url(#paint1_linear)"/>
<path d="M188.305 100.466C188.305 100.466 199.086 98.6092 215.072 84.1231C227.72 72.665 244.781 74.9178 251.359 76.3632C251.583 76.4116 251.787 76.5274 251.944 76.6951C252.1 76.8627 252.201 77.0741 252.234 77.3009C252.266 77.5278 252.229 77.7591 252.126 77.9639C252.023 78.1687 251.86 78.3371 251.658 78.4465C248.999 79.9 244.877 82.0236 242.946 82.2659C242.946 82.2659 246.93 86.384 242.695 88.5884C242.188 88.8372 241.622 88.9403 241.06 88.8861C240.497 88.8319 239.961 88.6226 239.511 88.2816C237.475 86.7958 231.817 90.1711 223.614 91.9233C223.614 91.9233 191.643 124.981 184.208 119.378L188.305 100.466Z" fill="#FEC3BE"/>
<path d="M133.26 55.5222C133.26 55.5222 130.286 68.1512 133.26 77.0657L119.877 78.9229L107.98 72.9799V65.1796C107.98 65.1796 113.557 53.2936 112.07 39.5503L133.26 55.5222Z" fill="#FEC3BE"/>
<path d="M95.3647 329.257C95.3647 329.257 85.6666 348.201 87.186 360.83C88.7054 373.459 74.5461 362.316 76.0332 354.887C77.2373 348.879 71.8711 323.395 69.7779 313.915C69.551 312.891 69.7132 311.819 70.2329 310.907C70.7526 309.995 71.5927 309.309 72.5903 308.982C77.0595 307.512 84.5433 305.711 88.3013 308.465C93.8535 312.543 95.3647 329.257 95.3647 329.257Z" fill="#8B416F"/>
<path d="M132.145 350.058C132.145 350.058 144.785 366.401 148.131 366.773C151.477 367.144 153.707 372.344 148.131 373.459C136.997 375.395 125.545 374.279 114.996 370.229C113.94 369.817 113.053 369.064 112.477 368.088C111.901 367.113 111.67 365.973 111.819 364.851L113.953 348.944L132.145 350.058Z" fill="#8B416F"/>
<path d="M152.964 176.604L165.086 178.218C163.422 192.366 163.471 206.661 165.232 220.797V271.668C165.232 271.668 165.466 276.149 156.156 282.666C146.393 289.447 136.984 296.724 127.967 304.468L94.2333 333.666C94.2333 333.666 80.8499 317.323 82.7087 307.665C82.7087 307.665 105.014 300.608 107.988 289.093C109.694 282.504 118.341 276.981 125.421 273.509C129.871 271.35 133.448 267.734 135.558 263.263C137.668 258.791 138.183 253.734 137.018 248.929C136.605 247.26 135.966 245.654 135.119 244.157C129.171 233.757 120.62 210.356 120.62 210.356L136.978 179.204L152.964 176.604Z" fill="#4D4981"/>
<path opacity="0.05" d="M152.964 176.604L165.086 178.218C163.422 192.366 163.471 206.661 165.232 220.797V271.668C165.232 271.668 165.466 276.149 156.156 282.666C146.393 289.447 136.984 296.724 127.967 304.468L94.2333 333.666C94.2333 333.666 80.8499 317.323 82.7087 307.665C82.7087 307.665 105.014 300.608 107.988 289.093C109.694 282.504 118.341 276.981 125.421 273.509C129.871 271.35 133.448 267.734 135.558 263.263C137.668 258.791 138.183 253.734 137.018 248.929C136.605 247.26 135.966 245.654 135.119 244.157C129.171 233.757 120.62 210.356 120.62 210.356L136.978 179.204L152.964 176.604Z" fill="black"/>
<path d="M135.119 351.197C135.119 351.197 113.185 354.911 112.441 357.14C111.698 359.368 112.441 354.168 112.441 354.168C112.441 354.168 99.8015 315.91 102.743 282.117C105.685 248.324 99.0257 226.029 99.0257 226.029C99.0257 226.029 91.2187 200.771 95.6798 186.285C100.141 171.799 146.983 178.114 146.983 178.114C146.983 178.114 130.625 216.372 130.997 234.572C130.997 234.572 129.138 289.546 125.793 295.86C125.825 295.828 131.029 349.687 135.119 351.197Z" fill="#4D4981"/>
<path d="M132.541 65.1796C132.541 65.1796 130.31 78.9068 108.005 72.9799L122.843 185.89C122.843 185.89 165.967 187.375 165.595 182.175L156.705 113.838L132.541 65.1796Z" fill="white"/>
<path opacity="0.1" d="M131.959 64.4368C134.864 67.2939 138.648 69.089 142.7 69.532C146.401 69.8154 149.999 70.8834 153.254 72.665C157.077 74.8048 161.336 77.9136 162.629 81.7007C165.231 89.1295 181.589 101.387 189.024 98.7869L186.422 121.073C186.422 121.073 165.231 119.959 161.514 111.787L167.826 191.316H162.249C162.249 191.316 159.275 169.772 157.045 165.315C154.814 160.858 150.353 136.343 149.981 130.4C149.609 124.457 144.033 90.2841 139.2 84.3734L131.927 66.73L131.959 64.4368Z" fill="black"/>
<path opacity="0.1" d="M131.959 65.5511C135.281 68.1476 139.254 69.7818 143.443 70.2748C147.143 70.5644 150.738 71.6379 153.99 73.424C157.812 75.5638 162.072 78.6726 163.365 82.4597C165.967 89.8885 182.325 102.146 189.76 99.5459L187.157 121.832C187.157 121.832 165.967 120.718 162.249 112.546L168.569 192.026H162.993C162.993 192.026 160.019 170.483 157.788 166.026C155.558 161.568 151.097 137.053 150.725 131.11C150.353 125.167 144.777 90.9947 139.944 85.084L131.959 67.7717V65.5511Z" fill="black"/>
<path d="M131.959 64.8082C135.281 67.4048 139.254 69.0389 143.443 69.532C147.144 69.8154 150.742 70.8834 153.998 72.665C157.821 74.8048 162.08 77.9136 163.373 81.7007C165.975 89.1295 182.333 101.387 189.768 98.7869L187.166 121.073C187.166 121.073 165.975 119.959 162.258 111.787L168.569 191.316H162.993C162.993 191.316 160.019 169.772 157.788 165.315C155.558 160.858 151.097 136.343 150.725 130.4C150.353 124.457 144.777 90.2842 139.944 84.3734L131.951 67.1015L131.959 64.8082Z" fill="#FD6F8D"/>
<path opacity="0.1" d="M112.999 50.5078C113.484 46.9872 112.514 44.7908 112.07 40.6646L133.26 56.6365C133.26 56.6365 132.751 58.7925 132.363 61.9497C131.294 62.1223 130.213 62.2087 129.13 62.2081C121.776 62.2081 116.482 56.467 112.999 50.5078Z" fill="black"/>
<path d="M129.171 61.1019C118.084 61.1019 109.096 52.1217 109.096 41.0442C109.096 29.9666 118.084 20.9864 129.171 20.9864C140.258 20.9864 149.246 29.9666 149.246 41.0442C149.246 52.1217 140.258 61.1019 129.171 61.1019Z" fill="#FEC3BE"/>
<path opacity="0.1" d="M151.08 21.382C151.209 17.9995 150.659 14.6253 149.464 11.4581C149.796 11.9564 149.936 12.558 149.859 13.1517C149.782 13.7454 149.492 14.2911 149.044 14.688C148.397 11.2361 146.623 8.09567 144.001 5.75732C145.431 5.99149 146.167 7.75986 145.811 9.16488C145.328 10.5372 144.468 11.7461 143.33 12.6532C143.451 10.5295 142.045 8.54313 140.267 7.38036C138.414 6.31719 136.391 5.58487 134.286 5.21631C135.008 5.47221 135.624 5.95953 136.04 6.60224C136.455 7.24495 136.645 8.0069 136.582 8.76921C136.575 9.0282 136.468 9.27451 136.283 9.45557C136.081 9.58466 135.843 9.64683 135.604 9.63322C133.51 9.71385 131.413 9.66801 129.324 9.49595C126.756 9.2072 124.174 9.06969 121.59 9.08414C113.508 9.42328 105.386 14.9384 103.576 22.8113C103.201 24.7215 103.003 26.6623 102.986 28.609L102.59 38.549C102.36 41.4489 102.479 44.366 102.945 47.2375C103.505 49.8884 104.644 52.3831 106.279 54.5438C107.915 56.7045 110.008 58.4778 112.409 59.7372C115.327 55.5141 115.585 50.0879 116.595 45.0573C116.755 43.8964 117.187 42.7896 117.856 41.8274C118.202 41.3516 118.687 40.995 119.244 40.8069C119.802 40.6188 120.404 40.6086 120.968 40.7777C122.059 41.2137 122.527 42.8771 121.622 43.62C122.43 44.5728 123.942 43.8622 124.855 43.0144C127.405 40.5971 129.161 37.4631 129.89 34.0271C130.254 32.2991 130.617 30.1674 132.314 29.5779C132.898 29.4176 133.508 29.3764 134.109 29.4568C137.648 29.6991 143.184 31.1606 146.611 30.0382C149.755 29.0127 151.08 24.3616 151.08 21.382Z" fill="black"/>
<path d="M150.709 21.0106C150.837 17.628 150.288 14.2539 149.092 11.0867C149.424 11.585 149.565 12.1865 149.488 12.7802C149.41 13.3739 149.121 13.9197 148.672 14.3166C148.025 10.8647 146.252 7.72421 143.629 5.38586C145.06 5.62003 145.795 7.3884 145.439 8.79342C144.956 10.1658 144.097 11.3746 142.958 12.2817C143.08 10.158 141.673 8.17165 139.895 7.00888C138.043 5.94572 136.019 5.21341 133.915 4.84485C134.636 5.10075 135.253 5.58807 135.668 6.23078C136.083 6.87349 136.274 7.63544 136.21 8.39775C136.204 8.65674 136.096 8.90305 135.911 9.08411C135.709 9.2132 135.471 9.27535 135.232 9.26174C133.138 9.34238 131.041 9.29654 128.953 9.12447C126.385 8.83572 123.802 8.69822 121.218 8.71266C113.137 9.05181 105.014 14.5669 103.204 22.4398C102.829 24.35 102.631 26.2909 102.614 28.2375L102.218 38.1776C101.988 41.0775 102.107 43.9945 102.574 46.866C103.133 49.5169 104.272 52.0117 105.908 54.1724C107.544 56.333 109.637 58.1063 112.037 59.3658C114.955 55.1427 115.214 49.7164 116.224 44.6858C116.383 43.5249 116.815 42.4181 117.485 41.4559C117.83 40.9801 118.315 40.6235 118.873 40.4354C119.43 40.2473 120.032 40.2371 120.596 40.4062C121.687 40.8422 122.156 42.5056 121.251 43.2485C122.059 44.2013 123.57 43.4908 124.483 42.6429C127.034 40.2256 128.789 37.0917 129.518 33.6557C129.882 31.9277 130.246 29.7959 131.943 29.2065C132.527 29.0462 133.137 29.005 133.737 29.0853C137.277 29.3276 142.813 30.7891 146.239 29.6667C149.383 28.6332 150.709 23.9902 150.709 21.0106Z" fill="#784F69"/>
<path opacity="0.1" d="M190.73 98.795C190.73 98.795 193.704 112.522 188.127 121.081L184.967 120.823L186.689 99.0211L190.73 98.795Z" fill="black"/>
<path d="M189.921 98.795C189.921 98.795 192.895 112.522 187.319 121.081L184.159 120.823L185.88 99.0211L189.921 98.795Z" fill="#FD6F8D"/>
<path opacity="0.1" d="M110.025 61.3118L86.0465 81.9267C86.0465 81.9267 71.9196 96.4129 77.8678 119.814C77.8678 119.814 80.4702 153.986 83.4442 155.472C83.4442 155.472 93.8535 176.273 94.5971 195.959C94.5971 195.959 108.538 167.915 114.858 185.001C121.178 202.088 135.871 204.502 135.871 204.502L127.692 103.438C127.692 103.438 107.051 67.594 110.025 61.3118Z" fill="black"/>
<path d="M109.281 61.3118L85.3028 81.9267C85.3028 81.9267 71.1759 96.4129 77.1241 119.814C77.1241 119.814 79.7264 153.986 82.7005 155.472C82.7005 155.472 93.1098 176.273 93.8534 195.959C93.8534 195.959 108.538 166.429 114.866 183.516C121.194 200.602 135.127 204.51 135.127 204.51L126.948 103.486C126.948 103.486 106.307 67.594 109.281 61.3118Z" fill="#FD6F8D"/>
<path d="M98.3147 148.382C98.3147 148.382 92.3665 144.296 82.7007 155.44L106.493 198.527L114.486 186.471C114.486 186.471 97.5712 153.211 98.3147 148.382Z" fill="#FEC3BE"/>
<path opacity="0.1" d="M104.077 150.797C104.077 150.797 90.9198 165.557 85.7879 163.191L81.0358 152.137L98.8723 144.482L104.077 150.797Z" fill="black"/>
<path d="M104.077 150.054C104.077 150.054 90.9198 164.814 85.7879 162.448L81.0358 151.394L98.8723 143.739L104.077 150.054Z" fill="#FD6F8D"/>
<path opacity="0.1" d="M113.678 183.653C113.678 183.653 107.415 196.476 104.077 197.218L108.926 202.79L115.989 189.418L113.678 183.653Z" fill="black"/>
<path d="M114.05 184.049C114.05 184.049 107.787 196.871 104.449 197.614L109.298 203.186L116.377 189.79L114.05 184.049Z" fill="#4D4981"/>
<path opacity="0.1" d="M102.218 104.738C102.218 104.738 101.475 131.482 104.449 141.511L102.218 104.738Z" fill="black"/>
<path opacity="0.1" d="M162.443 109.938C162.443 109.938 157.982 108.452 157.982 104.738L162.443 109.938Z" fill="black"/>
<path d="M704.172 114.412C704.172 114.412 725.362 158.209 711.446 210.041C697.529 261.873 701.949 323.896 715.826 339.238" stroke="#535461" stroke-width="2" stroke-miterlimit="10"/>
<path d="M704.172 120.258C700.945 120.258 698.329 117.644 698.329 114.42C698.329 111.195 700.945 108.582 704.172 108.582C707.399 108.582 710.015 111.195 710.015 114.42C710.015 117.644 707.399 120.258 704.172 120.258Z" fill="#9170FF"/>
<path d="M712.981 142.585C712.981 142.585 691.015 146.541 685.172 138.547" stroke="#535461" stroke-width="2" stroke-miterlimit="10"/>
<path d="M715.066 155.302C715.066 155.302 728.28 140.695 727.552 131.934" stroke="#535461" stroke-width="2" stroke-miterlimit="10"/>
<path d="M716.189 182.062C716.189 182.062 704.172 185.227 693.205 161.875" stroke="#535461" stroke-width="2" stroke-miterlimit="10"/>
<path d="M712.981 201.522C712.981 201.522 742.884 182.296 739.239 169.893" stroke="#535461" stroke-width="2" stroke-miterlimit="10"/>
<path d="M708.31 223.526C708.31 223.526 687.362 204.954 689.552 186.681" stroke="#535461" stroke-width="2" stroke-miterlimit="10"/>
<path d="M706.031 236.462C706.031 236.462 732.701 229.017 731.892 217.341" stroke="#535461" stroke-width="2" stroke-miterlimit="10"/>
<path d="M704.172 251.877C704.172 251.877 687.37 236.325 685.18 226.845" stroke="#535461" stroke-width="2" stroke-miterlimit="10"/>
<path d="M703 278.322C703 278.322 720.238 258.215 720.974 248.001" stroke="#535461" stroke-width="2" stroke-miterlimit="10"/>
<path d="M703 294.964C703 294.964 683.709 273.549 682.254 263.335" stroke="#535461" stroke-width="2" stroke-miterlimit="10"/>
<path d="M727.552 139.234C724.325 139.234 721.709 136.62 721.709 133.395C721.709 130.171 724.325 127.557 727.552 127.557C730.779 127.557 733.396 130.171 733.396 133.395C733.396 136.62 730.779 139.234 727.552 139.234Z" fill="#9170FF"/>
<path d="M734.123 223.179C730.896 223.179 728.28 220.565 728.28 217.341C728.28 214.117 730.896 211.503 734.123 211.503C737.35 211.503 739.966 214.117 739.966 217.341C739.966 220.565 737.35 223.179 734.123 223.179Z" fill="#9170FF"/>
<path d="M739.239 175.732C736.012 175.732 733.396 173.118 733.396 169.893C733.396 166.669 736.012 164.055 739.239 164.055C742.466 164.055 745.082 166.669 745.082 169.893C745.082 173.118 742.466 175.732 739.239 175.732Z" fill="#9170FF"/>
<path d="M685.172 144.345C681.945 144.345 679.329 141.731 679.329 138.507C679.329 135.282 681.945 132.669 685.172 132.669C688.399 132.669 691.015 135.282 691.015 138.507C691.015 141.731 688.399 144.345 685.172 144.345Z" fill="#9170FF"/>
<path d="M685.172 234.128C681.945 234.128 679.329 231.515 679.329 228.29C679.329 225.066 681.945 222.452 685.172 222.452C688.399 222.452 691.015 225.066 691.015 228.29C691.015 231.515 688.399 234.128 685.172 234.128Z" fill="#9170FF"/>
<path d="M694.668 167.705C691.441 167.705 688.825 165.091 688.825 161.867C688.825 158.643 691.441 156.029 694.668 156.029C697.895 156.029 700.511 158.643 700.511 161.867C700.511 165.091 697.895 167.705 694.668 167.705Z" fill="#9170FF"/>
<path d="M682.982 272.823C679.755 272.823 677.138 270.209 677.138 266.985C677.138 263.76 679.755 261.147 682.982 261.147C686.209 261.147 688.825 263.76 688.825 266.985C688.825 270.209 686.209 272.823 682.982 272.823Z" fill="#9170FF"/>
<path d="M722.437 257.489C719.21 257.489 716.594 254.875 716.594 251.651C716.594 248.426 719.21 245.812 722.437 245.812C725.664 245.812 728.28 248.426 728.28 251.651C728.28 254.875 725.664 257.489 722.437 257.489Z" fill="#9170FF"/>
<path d="M688.825 192.519C685.598 192.519 682.981 189.905 682.981 186.681C682.981 183.457 685.598 180.843 688.825 180.843C692.052 180.843 694.668 183.457 694.668 186.681C694.668 189.905 692.052 192.519 688.825 192.519Z" fill="#9170FF"/>
<rect x="709" y="210" width="652" height="93" fill="#C4C4C4"/>
</g>
<defs>
<linearGradient id="paint0_linear" x1="410.464" y1="340.191" x2="410.464" y2="44.8554" gradientUnits="userSpaceOnUse">
<stop stop-color="#808080" stop-opacity="0.25"/>
<stop offset="0.54" stop-color="#808080" stop-opacity="0.12"/>
<stop offset="1" stop-color="#808080" stop-opacity="0.1"/>
</linearGradient>
<linearGradient id="paint1_linear" x1="-164079" y1="243640" x2="-164079" y2="66256.6" gradientUnits="userSpaceOnUse">
<stop stop-color="#808080" stop-opacity="0.25"/>
<stop offset="0.54" stop-color="#808080" stop-opacity="0.12"/>
<stop offset="1" stop-color="#808080" stop-opacity="0.1"/>
</linearGradient>
<clipPath id="clip0">
<rect width="771" height="444" fill="white" transform="matrix(-1 0 0 1 771 0)"/>
</clipPath>
</defs>
</svg>
