<svg width="244" height="245" viewBox="0 0 244 245" fill="none" xmlns="http://www.w3.org/2000/svg">
<path d="M23.4645 206.391L21.3155 197.906C17.5054 196.29 13.6072 194.89 9.63948 193.713L9.36824 197.656L8.26821 193.312C3.34757 191.903 0 191.284 0 191.284C0 191.284 4.52065 208.497 14.0055 221.657L25.0562 223.601L16.4712 224.84C17.6643 226.277 18.9465 227.638 20.3102 228.914C34.1064 241.734 49.473 247.616 54.6321 242.051C59.7912 236.487 52.7895 221.583 38.9933 208.765C34.7163 204.79 29.3436 201.601 23.9654 199.09L23.4645 206.391Z" fill="#F2F2F2"/>
<path d="M43.9014 197.175L46.4428 188.8C44.016 185.445 41.4021 182.229 38.6136 179.168L36.3454 182.403L37.6465 178.115C34.1607 174.365 31.6151 172.102 31.6151 172.102C31.6151 172.102 26.5981 189.177 27.9216 205.35L36.3781 212.732L28.3877 209.351C28.6673 211.199 29.0627 213.027 29.5716 214.825C34.7625 232.939 44.8799 245.926 52.1693 243.832C59.4587 241.739 61.1602 225.358 55.9693 207.244C54.3602 201.629 51.4073 196.118 48.0997 191.186L43.9014 197.175Z" fill="#F2F2F2"/>
<path d="M170.262 58.0407H168.922V21.278C168.922 18.4838 168.372 15.7169 167.304 13.1353C166.236 10.5537 164.67 8.20804 162.697 6.23219C160.723 4.25635 158.38 2.68901 155.801 1.61969C153.222 0.550371 150.459 0 147.667 0H69.864C64.2269 0 58.8207 2.24179 54.8347 6.23219C50.8487 10.2226 48.6094 15.6348 48.6094 21.278V222.964C48.6094 225.758 49.1591 228.525 50.2273 231.107C51.2954 233.688 52.861 236.034 54.8347 238.01C56.8084 239.986 59.1515 241.553 61.7302 242.622C64.3089 243.692 67.0728 244.242 69.864 244.242H147.667C153.304 244.242 158.71 242 162.696 238.01C166.682 234.019 168.922 228.607 168.922 222.964V84.209H170.262L170.262 58.0407Z" fill="#E6E6E6"/>
<path d="M148.524 5.53369H138.368C138.836 6.68005 139.014 7.92382 138.888 9.1554C138.761 10.387 138.334 11.5686 137.645 12.5961C136.955 13.6236 136.023 14.4655 134.932 15.0476C133.84 15.6297 132.622 15.9342 131.386 15.9341H86.813C85.5764 15.9341 84.3588 15.6296 83.2674 15.0474C82.176 14.4653 81.2444 13.6233 80.5546 12.5958C79.8648 11.5683 79.438 10.3868 79.3118 9.15524C79.1856 7.92371 79.3639 6.68 79.8309 5.53369H70.3454C66.1357 5.53369 62.0984 7.20784 59.1217 10.1878C56.145 13.1678 54.4727 17.2096 54.4727 21.4239V222.817C54.4727 227.031 56.145 231.073 59.1217 234.053C62.0984 237.033 66.1357 238.707 70.3454 238.707H148.524C152.733 238.707 156.771 237.033 159.747 234.053C162.724 231.073 164.396 227.031 164.396 222.817V222.817V21.4236C164.396 17.2093 162.724 13.1676 159.747 10.1877C156.77 7.20779 152.733 5.53369 148.524 5.53369V5.53369Z" fill="white"/>
<path d="M99.4737 85.7585C99.4734 84.3508 99.8436 82.9678 100.547 81.7488C101.25 80.5298 102.262 79.5178 103.48 78.8146C102.262 78.1106 100.881 77.7399 99.4752 77.7397C98.0691 77.7396 96.6878 78.11 95.4701 78.8137C94.2524 79.5174 93.2411 80.5296 92.538 81.7486C91.835 82.9676 91.4648 84.3504 91.4648 85.758C91.4648 87.1656 91.835 88.5484 92.538 89.7674C93.2411 90.9864 94.2524 91.9986 95.4701 92.7023C96.6878 93.406 98.0691 93.7764 99.4752 93.7763C100.881 93.7761 102.262 93.4054 103.48 92.7014C102.262 91.9984 101.25 90.9865 100.547 89.7677C99.8437 88.5489 99.4735 87.1661 99.4737 85.7585V85.7585Z" fill="#CCCCCC"/>
<path d="M109.542 85.7585C109.542 84.3508 109.912 82.9678 110.615 81.7488C111.319 80.5298 112.33 79.5178 113.548 78.8146C112.331 78.1106 110.95 77.7399 109.544 77.7397C108.137 77.7396 106.756 78.11 105.538 78.8137C104.321 79.5174 103.309 80.5296 102.606 81.7486C101.903 82.9676 101.533 84.3504 101.533 85.758C101.533 87.1656 101.903 88.5484 102.606 89.7674C103.309 90.9864 104.321 91.9986 105.538 92.7023C106.756 93.406 108.137 93.7764 109.544 93.7763C110.95 93.7761 112.331 93.4054 113.548 92.7014C112.33 91.9984 111.319 90.9865 110.615 89.7677C109.912 88.5489 109.542 87.1661 109.542 85.7585V85.7585Z" fill="#CCCCCC"/>
<path d="M119.382 93.7765C123.806 93.7765 127.392 90.1866 127.392 85.7582C127.392 81.3299 123.806 77.74 119.382 77.74C114.959 77.74 111.373 81.3299 111.373 85.7582C111.373 90.1866 114.959 93.7765 119.382 93.7765Z" fill="#7C57F6"/>
<path d="M132.769 110.802H86.0884C85.6439 110.802 85.2179 110.625 84.9036 110.31C84.5894 109.996 84.4126 109.569 84.4121 109.124V62.3922C84.4126 61.9473 84.5894 61.5208 84.9036 61.2062C85.2179 60.8916 85.6439 60.7146 86.0884 60.7141H132.769C133.213 60.7146 133.639 60.8916 133.954 61.2062C134.268 61.5208 134.445 61.9473 134.445 62.3922V109.124C134.445 109.569 134.268 109.996 133.954 110.31C133.639 110.625 133.213 110.802 132.769 110.802V110.802ZM86.0884 61.3857C85.8217 61.386 85.5661 61.4922 85.3775 61.6809C85.189 61.8697 85.0829 62.1256 85.0827 62.3925V109.125C85.0829 109.392 85.189 109.648 85.3775 109.836C85.5661 110.025 85.8217 110.131 86.0884 110.131H132.769C133.036 110.131 133.291 110.025 133.48 109.836C133.668 109.648 133.774 109.392 133.775 109.125V62.3925C133.774 62.1256 133.668 61.8697 133.48 61.6809C133.291 61.4922 133.036 61.386 132.769 61.3857H86.0884Z" fill="#CCCCCC"/>
<path d="M143.192 146.625H71.5977V147.296H143.192V146.625Z" fill="#CCCCCC"/>
<path d="M73.8586 142.434C75.1073 142.434 76.1196 141.42 76.1196 140.17C76.1196 138.92 75.1073 137.907 73.8586 137.907C72.6099 137.907 71.5977 138.92 71.5977 140.17C71.5977 141.42 72.6099 142.434 73.8586 142.434Z" fill="#7C57F6"/>
<path d="M143.192 169.258H71.5977V169.929H143.192V169.258Z" fill="#CCCCCC"/>
<path d="M73.8586 165.067C75.1073 165.067 76.1196 164.054 76.1196 162.804C76.1196 161.554 75.1073 160.54 73.8586 160.54C72.6099 160.54 71.5977 161.554 71.5977 162.804C71.5977 164.054 72.6099 165.067 73.8586 165.067Z" fill="#7C57F6"/>
<path d="M141.881 195.032H119.255C118.865 195.032 118.49 194.876 118.213 194.599C117.937 194.323 117.782 193.948 117.781 193.556V185.617C117.782 185.226 117.937 184.851 118.213 184.574C118.49 184.298 118.865 184.142 119.255 184.142H141.881C142.272 184.142 142.647 184.298 142.923 184.574C143.199 184.851 143.355 185.226 143.355 185.617V193.556C143.355 193.948 143.199 194.323 142.923 194.599C142.647 194.876 142.272 195.032 141.881 195.032V195.032Z" fill="#7C57F6"/>
<path d="M81.2336 142.434C82.4823 142.434 83.4946 141.42 83.4946 140.17C83.4946 138.92 82.4823 137.907 81.2336 137.907C79.9849 137.907 78.9727 138.92 78.9727 140.17C78.9727 141.42 79.9849 142.434 81.2336 142.434Z" fill="#7C57F6"/>
<path d="M88.6086 142.434C89.8573 142.434 90.8696 141.42 90.8696 140.17C90.8696 138.92 89.8573 137.907 88.6086 137.907C87.3599 137.907 86.3477 138.92 86.3477 140.17C86.3477 141.42 87.3599 142.434 88.6086 142.434Z" fill="#7C57F6"/>
<path d="M81.2336 165.067C82.4823 165.067 83.4946 164.054 83.4946 162.804C83.4946 161.554 82.4823 160.54 81.2336 160.54C79.9849 160.54 78.9727 161.554 78.9727 162.804C78.9727 164.054 79.9849 165.067 81.2336 165.067Z" fill="#7C57F6"/>
<path d="M88.6086 165.067C89.8573 165.067 90.8696 164.054 90.8696 162.804C90.8696 161.554 89.8573 160.54 88.6086 160.54C87.3599 160.54 86.3477 161.554 86.3477 162.804C86.3477 164.054 87.3599 165.067 88.6086 165.067Z" fill="#7C57F6"/>
<path d="M243.088 245H7.8879C7.38441 245 6.97656 244.821 6.97656 244.6C6.97656 244.38 7.38441 244.201 7.8879 244.201H243.088C243.592 244.201 244 244.38 244 244.6C244 244.821 243.592 245 243.088 245Z" fill="#3F3D56"/>
<path d="M184.978 160.516C185.139 160.59 185.294 160.676 185.441 160.775L200.134 154.497L200.658 150.622L206.529 150.586L206.182 159.473L186.789 164.607C186.748 164.742 186.699 164.874 186.642 165.003C186.362 165.602 185.911 166.105 185.346 166.448C184.782 166.791 184.128 166.96 183.468 166.932C182.808 166.905 182.17 166.683 181.636 166.294C181.101 165.905 180.693 165.367 180.464 164.747C180.234 164.127 180.192 163.453 180.343 162.809C180.495 162.165 180.833 161.58 181.316 161.128C181.798 160.676 182.403 160.377 183.055 160.268C183.706 160.159 184.376 160.246 184.978 160.516V160.516Z" fill="#FFB8B8"/>
<path d="M208.663 241.046H204.647L202.736 225.538L208.664 225.539L208.663 241.046Z" fill="#FFB8B8"/>
<path d="M201.779 239.897H209.524V244.779H196.902C196.902 243.485 197.416 242.243 198.331 241.327C199.245 240.412 200.486 239.897 201.779 239.897Z" fill="#2F2E41"/>
<path d="M224.284 239.91L220.287 240.304L216.867 225.059L222.766 224.477L224.284 239.91Z" fill="#FFB8B8"/>
<path d="M217.32 239.443L225.028 238.683L225.506 243.541L212.945 244.78C212.882 244.142 212.945 243.498 213.131 242.884C213.317 242.271 213.622 241.7 214.028 241.204C214.435 240.709 214.934 240.298 215.499 239.996C216.064 239.693 216.683 239.506 217.32 239.443Z" fill="#2F2E41"/>
<path d="M209.782 134.174C214.226 134.174 217.828 130.567 217.828 126.119C217.828 121.671 214.226 118.064 209.782 118.064C205.339 118.064 201.736 121.671 201.736 126.119C201.736 130.567 205.339 134.174 209.782 134.174Z" fill="#FFB8B8"/>
<path d="M203.751 237.91C203.406 237.911 203.072 237.79 202.807 237.568C202.542 237.346 202.365 237.038 202.305 236.698C200.226 225.146 193.431 187.373 193.269 186.327C193.265 186.303 193.264 186.278 193.264 186.254V183.438C193.263 183.335 193.295 183.235 193.355 183.152L194.253 181.893C194.295 181.833 194.351 181.783 194.416 181.747C194.481 181.712 194.554 181.691 194.627 181.688C199.745 181.448 216.505 180.744 217.315 181.757C218.128 182.775 217.84 185.858 217.775 186.466L217.778 186.53L225.307 234.736C225.366 235.12 225.272 235.513 225.044 235.828C224.816 236.143 224.474 236.355 224.09 236.42L219.388 237.195C219.037 237.252 218.678 237.18 218.376 236.994C218.074 236.808 217.849 236.52 217.741 236.181C216.287 231.528 211.409 215.875 209.719 209.819C209.708 209.78 209.684 209.747 209.651 209.725C209.618 209.704 209.578 209.695 209.538 209.7C209.499 209.706 209.463 209.725 209.437 209.756C209.411 209.786 209.397 209.824 209.398 209.864C209.482 215.638 209.686 230.368 209.757 235.456L209.764 236.004C209.768 236.375 209.632 236.734 209.383 237.009C209.135 237.285 208.793 237.457 208.424 237.492L203.889 237.904C203.843 237.908 203.797 237.91 203.751 237.91Z" fill="#2F2E41"/>
<path d="M204.677 137.341C203.273 138.176 202.433 139.712 201.95 141.274C201.058 144.167 200.521 147.158 200.35 150.181L199.841 159.233L193.533 183.228C199 187.859 202.154 186.807 209.513 183.019C216.872 179.231 217.713 184.282 217.713 184.282L219.185 163.864L221.287 141.554C220.815 140.985 220.281 140.471 219.695 140.021C217.751 138.508 215.49 137.456 213.082 136.945C210.673 136.434 208.181 136.477 205.791 137.071L204.677 137.341Z" fill="#7C57F6"/>
<path d="M202.627 165.362C202.797 165.426 202.961 165.504 203.118 165.593L217.646 158.314L217.887 154.37L223.88 153.957L224.201 162.946L204.787 169.374C204.628 170.055 204.266 170.671 203.75 171.141C203.233 171.61 202.585 171.912 201.893 172.004C201.201 172.097 200.497 171.976 199.875 171.658C199.253 171.34 198.743 170.841 198.412 170.225C198.08 169.61 197.944 168.909 198.021 168.214C198.098 167.519 198.384 166.864 198.841 166.336C199.299 165.809 199.906 165.433 200.582 165.259C201.259 165.085 201.972 165.121 202.627 165.362Z" fill="#FFB8B8"/>
<path d="M221.182 141.656C224.756 142.919 225.386 156.601 225.386 156.601C221.181 154.286 216.135 158.075 216.135 158.075C216.135 158.075 215.083 154.497 213.822 149.866C213.441 148.563 213.395 147.185 213.689 145.86C213.983 144.536 214.608 143.307 215.504 142.288C215.504 142.288 217.608 140.392 221.182 141.656Z" fill="#7C57F6"/>
<path d="M216.995 128.249C215.993 127.446 214.625 128.905 214.625 128.905L213.823 121.68C213.823 121.68 208.811 122.281 205.603 121.479C202.395 120.677 201.894 124.39 201.894 124.39C201.728 122.89 201.695 121.379 201.794 119.874C201.994 118.067 204.6 116.261 209.212 115.056C213.823 113.852 216.229 119.071 216.229 119.071C219.437 120.676 217.998 129.052 216.995 128.249Z" fill="#2F2E41"/>
</svg>
