<svg width="677" height="417" viewBox="0 0 677 417" fill="none" xmlns="http://www.w3.org/2000/svg">
<g clip-path="url(#clip0)">
<path d="M669.709 273.72H198.471C196.538 273.717 194.685 272.949 193.318 271.583C191.952 270.217 191.183 268.365 191.181 266.433V7.28703C191.183 5.35506 191.952 3.50284 193.318 2.13673C194.685 0.770619 196.538 0.00218156 198.471 0H669.709C671.642 0.00218156 673.495 0.770619 674.862 2.13673C676.229 3.50284 676.997 5.35506 677 7.28703V266.433C676.997 268.365 676.229 270.217 674.862 271.583C673.495 272.949 671.642 273.717 669.709 273.72Z" fill="#E6E6E6"/>
<path d="M659.768 263.783H208.414C206.481 263.781 204.628 263.012 203.261 261.646C201.894 260.28 201.125 258.428 201.123 256.496V17.2239C201.125 15.2919 201.894 13.4397 203.261 12.0736C204.628 10.7075 206.481 9.93901 208.414 9.93683H659.768C661.701 9.93901 663.554 10.7075 664.921 12.0736C666.288 13.4397 667.056 15.2919 667.059 17.2239V256.496C667.056 258.428 666.288 260.28 664.921 261.646C663.554 263.012 661.701 263.781 659.768 263.783Z" fill="white"/>
<path d="M334.713 157.572H249.798C248.86 157.571 247.961 157.198 247.297 156.535C246.634 155.872 246.261 154.973 246.26 154.035V65.643C246.261 64.7054 246.634 63.8066 247.297 63.1436C247.961 62.4807 248.86 62.1077 249.798 62.1066H334.713C335.651 62.1077 336.55 62.4807 337.214 63.1436C337.877 63.8066 338.25 64.7054 338.251 65.643V154.035C338.25 154.973 337.877 155.872 337.214 156.535C336.55 157.198 335.651 157.571 334.713 157.572ZM249.798 63.5212C249.235 63.5218 248.695 63.7455 248.297 64.1433C247.899 64.5411 247.676 65.0805 247.675 65.643V154.035C247.676 154.598 247.899 155.137 248.297 155.535C248.695 155.933 249.235 156.157 249.798 156.157H334.713C335.276 156.157 335.816 155.933 336.213 155.535C336.611 155.137 336.835 154.598 336.836 154.035V65.643C336.835 65.0805 336.611 64.5411 336.213 64.1433C335.816 63.7455 335.276 63.5218 334.713 63.5212H249.798Z" fill="#3F3D56"/>
<path d="M476.548 157.572H391.633C390.695 157.571 389.796 157.198 389.132 156.535C388.469 155.872 388.096 154.973 388.095 154.035V65.643C388.096 64.7054 388.469 63.8066 389.132 63.1436C389.796 62.4807 390.695 62.1077 391.633 62.1066H476.548C477.486 62.1077 478.385 62.4807 479.049 63.1436C479.712 63.8066 480.085 64.7054 480.086 65.643V154.035C480.085 154.973 479.712 155.872 479.049 156.535C478.385 157.198 477.486 157.571 476.548 157.572ZM391.633 63.5212C391.07 63.5218 390.53 63.7455 390.132 64.1433C389.734 64.5411 389.511 65.0805 389.51 65.643V154.035C389.511 154.598 389.734 155.137 390.132 155.535C390.53 155.933 391.07 156.157 391.633 156.157H476.548C477.111 156.157 477.65 155.933 478.048 155.535C478.446 155.137 478.67 154.598 478.671 154.035V65.643C478.67 65.0805 478.446 64.5411 478.048 64.1433C477.65 63.7455 477.111 63.5218 476.548 63.5212H391.633Z" fill="#3F3D56"/>
<path d="M618.383 157.572H533.468C532.53 157.571 531.631 157.198 530.967 156.535C530.304 155.872 529.931 154.973 529.93 154.035V65.643C529.931 64.7054 530.304 63.8066 530.967 63.1436C531.631 62.4807 532.53 62.1077 533.468 62.1066H618.383C619.321 62.1077 620.22 62.4807 620.884 63.1436C621.547 63.8066 621.92 64.7054 621.921 65.643V154.035C621.92 154.973 621.547 155.872 620.884 156.535C620.22 157.198 619.321 157.571 618.383 157.572ZM533.468 63.5212C532.905 63.5218 532.365 63.7455 531.967 64.1433C531.569 64.5411 531.346 65.0805 531.345 65.643V154.035C531.346 154.598 531.569 155.137 531.967 155.535C532.365 155.933 532.905 156.157 533.468 156.157H618.383C618.946 156.157 619.485 155.933 619.883 155.535C620.281 155.137 620.505 154.598 620.506 154.035V65.643C620.505 65.0805 620.281 64.5411 619.883 64.1433C619.485 63.7455 618.946 63.5218 618.383 63.5212H533.468Z" fill="#3F3D56"/>
<path d="M275.858 211.613C276.174 211.614 276.487 211.552 276.779 211.432C277.07 211.311 277.336 211.134 277.559 210.911C277.783 210.688 277.96 210.424 278.081 210.132C278.202 209.84 278.264 209.528 278.264 209.212C278.264 208.897 278.202 208.584 278.081 208.292C277.96 208.001 277.783 207.736 277.559 207.513C277.336 207.29 277.07 207.113 276.779 206.993C276.487 206.872 276.174 206.811 275.858 206.811H254.304C253.667 206.811 253.056 207.064 252.606 207.514C252.155 207.965 251.902 208.575 251.902 209.212C251.902 209.849 252.155 210.46 252.606 210.91C253.056 211.36 253.667 211.613 254.304 211.613H275.858Z" fill="#E6E6E6"/>
<path d="M330.206 197.468C330.843 197.468 331.454 197.215 331.905 196.764C332.355 196.314 332.608 195.703 332.608 195.067C332.608 194.43 332.355 193.819 331.905 193.369C331.454 192.919 330.843 192.666 330.206 192.666H254.304C253.667 192.666 253.056 192.919 252.606 193.369C252.155 193.819 251.902 194.43 251.902 195.067C251.902 195.703 252.155 196.314 252.606 196.764C253.056 197.215 253.667 197.468 254.304 197.468H330.206Z" fill="#E6E6E6"/>
<path d="M417.693 211.613C418.329 211.612 418.939 211.359 419.389 210.908C419.838 210.458 420.091 209.848 420.091 209.212C420.091 208.576 419.838 207.966 419.389 207.516C418.939 207.066 418.329 206.812 417.693 206.811H396.139C395.502 206.811 394.891 207.064 394.441 207.514C393.99 207.965 393.737 208.575 393.737 209.212C393.737 209.849 393.99 210.46 394.441 210.91C394.891 211.36 395.502 211.613 396.139 211.613H417.693Z" fill="#E6E6E6"/>
<path d="M472.041 197.468C472.678 197.468 473.289 197.215 473.74 196.764C474.19 196.314 474.443 195.703 474.443 195.067C474.443 194.43 474.19 193.819 473.74 193.369C473.289 192.919 472.678 192.666 472.041 192.666H396.139C395.502 192.666 394.891 192.919 394.441 193.369C393.99 193.819 393.737 194.43 393.737 195.067C393.737 195.703 393.99 196.314 394.441 196.764C394.891 197.215 395.502 197.468 396.139 197.468H472.041Z" fill="#E6E6E6"/>
<path d="M559.528 211.613C560.165 211.612 560.774 211.359 561.224 210.908C561.674 210.458 561.926 209.848 561.926 209.212C561.926 208.576 561.674 207.966 561.224 207.516C560.774 207.066 560.165 206.812 559.528 206.811H537.975C537.659 206.811 537.346 206.872 537.054 206.993C536.762 207.113 536.497 207.29 536.273 207.513C536.05 207.736 535.873 208.001 535.752 208.292C535.631 208.584 535.568 208.897 535.568 209.212C535.568 209.528 535.631 209.84 535.752 210.132C535.873 210.424 536.05 210.688 536.273 210.911C536.497 211.134 536.762 211.311 537.054 211.432C537.346 211.552 537.659 211.614 537.975 211.613H559.528Z" fill="#E6E6E6"/>
<path d="M613.877 197.468C614.514 197.468 615.125 197.215 615.576 196.764C616.026 196.314 616.279 195.703 616.279 195.067C616.279 194.43 616.026 193.819 615.576 193.369C615.125 192.919 614.514 192.666 613.877 192.666H537.975C537.338 192.666 536.727 192.919 536.277 193.369C535.826 193.819 535.573 194.43 535.573 195.067C535.573 195.703 535.826 196.314 536.277 196.764C536.727 197.215 537.338 197.468 537.975 197.468H613.877Z" fill="#E6E6E6"/>
<path d="M330.206 183.556C330.522 183.556 330.835 183.495 331.127 183.374C331.419 183.254 331.684 183.077 331.907 182.854C332.131 182.631 332.308 182.366 332.429 182.075C332.55 181.783 332.612 181.471 332.612 181.155C332.612 180.839 332.55 180.527 332.429 180.235C332.308 179.944 332.131 179.679 331.907 179.456C331.684 179.233 331.419 179.056 331.127 178.936C330.835 178.815 330.522 178.754 330.206 178.754H254.304C253.667 178.754 253.056 179.007 252.606 179.457C252.155 179.908 251.902 180.518 251.902 181.155C251.902 181.792 252.155 182.402 252.606 182.853C253.056 183.303 253.667 183.556 254.304 183.556H330.206Z" fill="#7C57F6"/>
<path d="M472.041 183.556C472.677 183.555 473.287 183.301 473.737 182.851C474.186 182.401 474.439 181.791 474.439 181.155C474.439 180.519 474.186 179.909 473.737 179.459C473.287 179.009 472.677 178.755 472.041 178.754H396.139C395.502 178.754 394.891 179.007 394.441 179.457C393.99 179.908 393.737 180.518 393.737 181.155C393.737 181.792 393.99 182.402 394.441 182.853C394.891 183.303 395.502 183.556 396.139 183.556H472.041Z" fill="#7C57F6"/>
<path d="M613.876 183.556C614.513 183.556 615.124 183.303 615.575 182.853C616.025 182.402 616.278 181.792 616.278 181.155C616.278 180.518 616.025 179.908 615.575 179.457C615.124 179.007 614.513 178.754 613.876 178.754H537.975C537.659 178.754 537.346 178.815 537.054 178.936C536.762 179.056 536.497 179.233 536.273 179.456C536.05 179.679 535.873 179.944 535.752 180.235C535.631 180.527 535.568 180.839 535.568 181.155C535.568 181.471 535.631 181.783 535.752 182.075C535.873 182.366 536.05 182.631 536.273 182.854C536.497 183.077 536.762 183.254 537.054 183.374C537.346 183.495 537.659 183.556 537.975 183.556H613.876Z" fill="#7C57F6"/>
<path d="M316.619 140.441C317.256 140.441 317.867 140.188 318.318 139.738C318.768 139.288 319.021 138.677 319.021 138.04C319.021 137.404 318.768 136.793 318.318 136.343C317.867 135.892 317.256 135.639 316.619 135.639H267.891C267.254 135.639 266.643 135.892 266.193 136.343C265.742 136.793 265.489 137.404 265.489 138.04C265.489 138.677 265.742 139.288 266.193 139.738C266.643 140.188 267.254 140.441 267.891 140.441H316.619Z" fill="#E6E6E6"/>
<path d="M316.619 126.296C317.256 126.296 317.867 126.043 318.318 125.592C318.768 125.142 319.021 124.531 319.021 123.895C319.021 123.258 318.768 122.647 318.318 122.197C317.867 121.747 317.256 121.494 316.619 121.494H267.891C267.254 121.494 266.643 121.747 266.193 122.197C265.742 122.647 265.489 123.258 265.489 123.895C265.489 124.531 265.742 125.142 266.193 125.592C266.643 126.043 267.254 126.296 267.891 126.296H316.619Z" fill="#E6E6E6"/>
<path d="M292.256 109.71C300.675 109.71 307.5 102.889 307.5 94.4738C307.5 86.0589 300.675 79.2373 292.256 79.2373C283.837 79.2373 277.012 86.0589 277.012 94.4738C277.012 102.889 283.837 109.71 292.256 109.71Z" fill="#7C57F6"/>
<path d="M458.454 140.441C459.091 140.441 459.702 140.188 460.153 139.738C460.603 139.288 460.856 138.677 460.856 138.04C460.856 137.404 460.603 136.793 460.153 136.343C459.702 135.892 459.091 135.639 458.454 135.639H409.726C409.089 135.639 408.478 135.892 408.028 136.343C407.577 136.793 407.324 137.404 407.324 138.04C407.324 138.677 407.577 139.288 408.028 139.738C408.478 140.188 409.089 140.441 409.726 140.441H458.454Z" fill="#E6E6E6"/>
<path d="M458.454 126.296C459.091 126.296 459.702 126.043 460.153 125.592C460.603 125.142 460.856 124.531 460.856 123.895C460.856 123.258 460.603 122.647 460.153 122.197C459.702 121.747 459.091 121.494 458.454 121.494H409.726C409.089 121.494 408.478 121.747 408.028 122.197C407.577 122.647 407.324 123.258 407.324 123.895C407.324 124.531 407.577 125.142 408.028 125.592C408.478 126.043 409.089 126.296 409.726 126.296H458.454Z" fill="#E6E6E6"/>
<path d="M434.091 109.71C442.51 109.71 449.335 102.889 449.335 94.4738C449.335 86.0589 442.51 79.2373 434.091 79.2373C425.672 79.2373 418.847 86.0589 418.847 94.4738C418.847 102.889 425.672 109.71 434.091 109.71Z" fill="#7C57F6"/>
<path d="M600.29 140.441C600.927 140.441 601.538 140.188 601.988 139.738C602.439 139.288 602.692 138.677 602.692 138.04C602.692 137.404 602.439 136.793 601.988 136.343C601.538 135.892 600.927 135.639 600.29 135.639H551.562C550.925 135.639 550.314 135.892 549.864 136.343C549.413 136.793 549.16 137.404 549.16 138.04C549.16 138.677 549.413 139.288 549.864 139.738C550.314 140.188 550.925 140.441 551.562 140.441H600.29Z" fill="#E6E6E6"/>
<path d="M600.29 126.296C600.927 126.296 601.538 126.043 601.988 125.592C602.439 125.142 602.692 124.531 602.692 123.895C602.692 123.258 602.439 122.647 601.988 122.197C601.538 121.747 600.927 121.494 600.29 121.494H551.562C550.925 121.494 550.314 121.747 549.864 122.197C549.413 122.647 549.16 123.258 549.16 123.895C549.16 124.531 549.413 125.142 549.864 125.592C550.314 126.043 550.925 126.296 551.562 126.296H600.29Z" fill="#E6E6E6"/>
<path d="M575.926 109.71C584.345 109.71 591.17 102.889 591.17 94.4738C591.17 86.0589 584.345 79.2373 575.926 79.2373C567.507 79.2373 560.682 86.0589 560.682 94.4738C560.682 102.889 567.507 109.71 575.926 109.71Z" fill="#7C57F6"/>
<path d="M113.25 354.047L121.417 358.499L116.22 375.567L108.054 376.309L103.599 366.662L113.25 354.047Z" fill="#FFB9B9"/>
<path d="M88.008 388.182V396.344L75.3867 395.603L75.5625 388.88L88.008 388.182Z" fill="#FFB9B9"/>
<path d="M116.22 256.093L111.766 311.749L97.6595 393.376L75.3867 390.408L82.8107 325.848L79.841 266.483L116.22 256.093Z" fill="#2F2E41"/>
<path d="M56.8258 214.538L110.281 215.28L116.22 256.094L79.8412 273.161L70.932 305.812L116.22 354.047L98.402 376.309C98.402 376.309 73.1593 342.174 54.5985 322.88C36.0377 303.586 44.9469 244.962 44.9469 244.962L56.8258 214.538Z" fill="#2F2E41"/>
<path d="M88.7505 109.164C97.7713 109.164 105.084 101.854 105.084 92.8381C105.084 83.8218 97.7713 76.5126 88.7505 76.5126C79.7298 76.5126 72.417 83.8218 72.417 92.8381C72.417 101.854 79.7298 109.164 88.7505 109.164Z" fill="#FFB9B9"/>
<path d="M94.6895 103.969V120.295L83.553 138.104C83.553 138.104 66.477 125.489 70.1892 122.521C73.9014 119.553 74.6438 96.5485 74.6438 96.5485L94.6895 103.969Z" fill="#FFB9B9"/>
<path d="M94.6898 117.327L105.827 130.684L101.372 223.442L66.4776 222.7L60.5381 141.815L67.9621 121.037L73.0549 114.111L82.0686 127.715L94.6898 117.327Z" fill="white"/>
<path d="M112.508 165.561L120.675 196.728L112.508 227.895L125.872 245.705L137.751 189.307C137.751 189.307 128.841 143.299 128.099 138.104C127.356 132.91 125.872 132.168 125.872 132.168L119.932 132.91L112.508 165.561Z" fill="#2F2E41"/>
<path d="M53.1145 177.434L47.9172 187.081L46.432 203.407L49.4018 221.958L39.008 239.026L28.6143 192.275L39.7503 132.167H44.2052L53.1145 177.434Z" fill="#2F2E41"/>
<path d="M116.22 353.305C116.22 353.305 126.614 356.273 130.326 357.015C134.039 357.757 128.099 371.856 128.099 371.856C128.099 371.856 124.387 391.15 123.645 394.861C122.902 398.571 117.705 411.186 111.023 412.67C104.341 414.154 108.796 386.698 108.796 386.698C108.796 386.698 105.826 377.793 105.826 374.825C105.826 371.856 110.281 373.341 110.281 373.341C122.16 371.856 116.22 353.305 116.22 353.305Z" fill="#2F2E41"/>
<path d="M91.7204 410.444C90.9779 414.896 92.4628 414.896 80.5839 416.381C68.7049 417.865 71.6747 408.218 71.6747 408.218C72.1714 403.67 73.1673 399.191 74.6445 394.861C76.8718 388.924 88.7507 396.345 88.7507 396.345C88.7507 396.345 92.4628 405.992 91.7204 410.444Z" fill="#2F2E41"/>
<path d="M74.6253 97.0667L74.2383 103.666C74.2383 103.666 69.4476 92.8381 68.7052 81.7071C67.9627 70.576 80.5841 68.3498 88.0084 67.6078C95.4327 66.8657 108.054 72.0602 108.054 77.9967C108.054 83.9333 94.6903 82.4492 89.4933 80.965C84.2963 79.4809 82.069 92.0961 82.069 92.0961L79.0992 92.8382L74.6253 97.0667Z" fill="#2F2E41"/>
<path d="M99.0718 122.582L94.6896 117.327L82.0684 127.715L94.6896 136.62L99.0718 122.582Z" fill="white"/>
<path d="M67.9619 121.037L73.1592 114.358L82.0684 127.715L70.9317 135.878L67.9619 121.037Z" fill="white"/>
<path d="M114.736 175.95L111.766 204.149L117.705 221.216L121.417 237.542C121.417 237.542 121.417 253.125 106.569 253.867C91.7201 254.609 79.0988 207.117 79.0988 207.117C79.0988 207.117 76.8715 217.506 75.3866 223.442C73.9017 229.379 48.659 253.125 48.659 253.125C48.659 253.125 42.7196 252.383 37.5225 240.51C32.3255 228.637 47.9166 217.506 47.9166 217.506L52.3712 201.922L50.8863 182.629L40.4922 132.168L71.3032 116.213L67.9622 158.882L79.0987 192.275L95.8035 118.44L101.372 122.521L125.13 132.168L114.736 175.95Z" fill="#2F2E41"/>
<path d="M189.6 417H0V415.451H189.881L189.6 417Z" fill="#3F3D56"/>
</g>
<defs>
<clipPath id="clip0">
<rect width="677" height="417" fill="white"/>
</clipPath>
</defs>
</svg>
