<svg width="657" height="487" viewBox="0 0 657 487" fill="none" xmlns="http://www.w3.org/2000/svg">
<g clip-path="url(#clip0)">
<path d="M84.7182 487C37.9295 487 -0.000183105 482.075 -0.000183105 476.001C-0.000183105 469.926 37.9295 465.001 84.7182 465.001C131.507 465.001 169.437 469.926 169.437 476.001C169.437 482.075 131.507 487 84.7182 487Z" fill="#3F3D56"/>
<path d="M401.239 16.1394H657V175.773H401.239V16.1394Z" fill="#F2F2F2"/>
<path d="M385.107 0.586914H640.868V160.22H385.107V0.586914Z" stroke="#3F3D56" stroke-width="2" stroke-miterlimit="10"/>
<path d="M473.704 119.119C465.992 111.404 460.74 101.574 458.613 90.8728C456.485 80.1714 457.577 69.0791 461.751 58.9985C465.924 48.918 472.992 40.302 482.06 34.2402C491.128 28.1783 501.788 24.9428 512.694 24.9427V80.1102L473.704 119.119Z" fill="#3F3D56"/>
<path d="M512.695 24.9427C524.951 24.9442 536.857 29.0303 546.534 36.5557C556.21 44.0811 563.105 54.617 566.13 66.4996C569.155 78.3821 568.137 90.9343 563.237 102.174C558.338 113.413 549.836 122.699 539.073 128.566L512.695 80.1102V24.9427Z" fill="#7C57F6"/>
<path d="M473.704 119.119L512.695 80.1102L539.073 128.566C528.617 134.258 516.601 136.413 504.82 134.711C493.038 133.008 482.123 127.539 473.704 119.119Z" fill="#575A89"/>
<path d="M620.631 127.061H631.189V137.625H620.631V127.061Z" fill="#7C57F6"/>
<path d="M605.379 127.061H615.938V137.625H605.379V127.061Z" fill="#3F3D56"/>
<path d="M590.127 127.061H600.686V137.625H590.127V127.061Z" fill="#575A89"/>
<path d="M405.346 129.409H448.755V131.169H405.346V129.409Z" fill="#3F3D56"/>
<path d="M405.346 134.691H448.755V136.451H405.346V134.691Z" fill="#3F3D56"/>
<path d="M405.346 139.973H448.755V141.733H405.346V139.973Z" fill="#3F3D56"/>
<path d="M431.156 238.57H576.635V398.203H431.156V238.57Z" fill="#F2F2F2"/>
<path d="M416.491 223.311H561.97V382.944H416.491V223.311Z" stroke="#3F3D56" stroke-width="2" stroke-miterlimit="10"/>
<path d="M546.5 364.935H554.344V372.783H546.5V364.935Z" fill="#7C57F6"/>
<path d="M535.17 364.935H543.014V372.783H535.17V364.935Z" fill="#3F3D56"/>
<path d="M523.84 364.935H531.684V372.783H523.84V364.935Z" fill="#575A89"/>
<path d="M435.849 368.344H466.353V369.581H435.849V368.344Z" fill="#3F3D56"/>
<path d="M435.849 372.055H466.353V373.292H435.849V372.055Z" fill="#3F3D56"/>
<path d="M435.849 375.767H466.353V377.004H435.849V375.767Z" fill="#3F3D56"/>
<path d="M489.23 251.481V264.393C481.573 264.393 474.088 266.665 467.721 270.921C461.354 275.177 456.392 281.227 453.461 288.304C450.531 295.382 449.764 303.171 451.258 310.684C452.752 318.198 456.44 325.1 461.854 330.517L452.729 339.647C445.509 332.424 440.593 323.222 438.601 313.203C436.609 303.185 437.631 292.801 441.538 283.363C445.446 273.926 452.062 265.86 460.551 260.185C469.04 254.51 479.021 251.481 489.23 251.481V251.481Z" fill="#3F3D56"/>
<path d="M452.728 339.647L461.854 330.517C468.473 337.141 477.267 341.14 486.608 341.773C495.948 342.407 505.201 339.632 512.654 333.963L520.465 344.246C510.527 351.803 498.188 355.501 485.734 354.655C473.28 353.81 461.555 348.478 452.728 339.647Z" fill="#575A89"/>
<path d="M527.946 303.128C527.946 292.855 523.867 283.002 516.607 275.738C509.346 268.474 499.498 264.393 489.23 264.393V251.481C500.036 251.481 510.57 254.874 519.347 261.182C528.124 267.489 534.7 276.394 538.15 286.639C541.6 296.885 541.749 307.956 538.576 318.291C535.403 328.626 529.069 337.704 520.465 344.246L512.654 333.963C517.41 330.354 521.266 325.692 523.919 320.342C526.572 314.992 527.951 309.1 527.946 303.128V303.128Z" fill="#7C57F6"/>
<path d="M110.503 82.7473C110.503 82.7473 112.896 100.536 106.741 102.589C100.587 104.641 102.296 120.378 102.296 120.378L120.761 134.404L137.173 135.772L141.276 114.562L138.883 109.089C138.883 109.089 129.651 98.1415 136.147 86.8524C142.644 75.5633 110.503 82.7473 110.503 82.7473Z" fill="#FFB9B9"/>
<path opacity="0.1" d="M110.503 82.7473C110.503 82.7473 112.896 100.536 106.741 102.589C100.587 104.641 102.296 120.378 102.296 120.378L120.761 134.404L137.173 135.772L141.276 114.562L138.883 109.089C138.883 109.089 129.651 98.1415 136.147 86.8524C142.644 75.5633 110.503 82.7473 110.503 82.7473Z" fill="black"/>
<path d="M127.599 221.296L149.141 271.926C149.141 271.926 165.896 262.347 175.812 263.373C185.728 264.4 198.037 252.426 198.037 252.426L185.728 192.902L162.818 129.614L131.019 149.798L127.599 221.296Z" fill="#575A89"/>
<path opacity="0.1" d="M127.599 221.296L149.141 271.926C149.141 271.926 165.896 262.347 175.812 263.373C185.728 264.4 198.037 252.426 198.037 252.426L185.728 192.902L162.818 129.614L131.019 149.798L127.599 221.296Z" fill="black"/>
<path d="M93.7482 436.473V452.894H109.135L106.741 433.737L93.7482 436.473Z" fill="#575A89"/>
<path d="M53.7426 408.08L42.4587 414.922L50.6653 433.737L59.2133 432.71L67.4199 421.079L53.7426 408.08Z" fill="#575A89"/>
<path d="M90.6703 216.506L70.4963 264.058C70.4963 264.058 77.6769 316.74 77.335 321.187C76.993 325.635 76.6511 327.345 78.3608 331.108C80.0704 334.871 80.7543 337.266 79.7285 341.713C78.7027 346.16 78.3608 347.871 79.0447 349.581C79.7285 351.292 84.5155 421.763 86.9091 426.553C89.3026 431.342 85.5413 439.21 87.9349 439.894C90.3284 440.579 108.109 438.868 109.135 434.763C110.16 430.658 105.715 420.737 108.109 417.658C110.502 414.579 107.767 303.741 111.186 296.214C114.606 288.688 152.218 281.846 152.218 281.846C152.218 281.846 155.637 259.952 153.586 256.531C151.534 253.111 148.799 231.559 148.799 231.559L90.6703 216.506Z" fill="#2F2E41"/>
<path d="M110.503 450.157C110.503 450.157 100.929 438.868 92.7223 450.157C92.7223 450.157 92.0384 463.499 86.2256 466.236C80.4128 468.972 83.1482 479.919 91.3546 480.261C99.5609 480.603 110.161 481.972 110.503 477.525C110.845 473.077 109.135 470.341 112.212 468.972C115.29 467.604 112.212 459.736 112.212 459.736L110.503 450.157Z" fill="#2F2E41"/>
<path d="M109.476 286.636C109.476 286.636 109.818 311.267 112.212 314.688C114.605 318.109 115.973 320.161 114.605 323.924C113.238 327.687 111.186 334.529 112.212 335.898C113.238 337.266 111.186 344.45 111.186 344.45C111.186 344.45 84.8573 357.108 72.5477 383.449C72.5477 383.449 59.8963 404.317 56.1351 404.659C52.3738 405.001 47.9287 402.264 49.9803 410.132C52.0318 418 59.8963 428.263 65.7091 427.237C71.5219 426.211 75.9671 416.29 75.9671 416.29C75.9671 416.29 121.444 370.107 126.231 368.739C131.018 367.37 144.695 356.423 147.089 349.581C149.482 342.74 154.611 285.61 152.218 281.847C149.824 278.084 140.934 272.952 140.934 272.952L109.476 286.636Z" fill="#2F2E41"/>
<path d="M50.3225 406.711C50.3225 406.711 29.1228 407.395 28.7808 412.527C28.4389 417.658 37.6711 448.105 36.3033 455.289C34.9356 462.473 46.9032 478.893 54.7677 475.472C62.6321 472.051 56.4774 454.262 56.4774 454.262C56.4774 454.262 64.3418 429.974 62.974 429.632C61.6063 429.289 47.929 425.184 48.6129 421.079C49.2968 416.974 50.3225 406.711 50.3225 406.711Z" fill="#2F2E41"/>
<path d="M126.402 101.049C114.694 101.049 105.202 91.5534 105.202 79.8395C105.202 68.1256 114.694 58.6296 126.402 58.6296C138.11 58.6296 147.602 68.1256 147.602 79.8395C147.602 91.5534 138.11 101.049 126.402 101.049Z" fill="#FFB9B9"/>
<path d="M105.031 112.51C105.031 112.51 116.657 124.825 125.205 122.772C133.754 120.72 138.199 106.01 138.199 106.01L153.586 103.273C153.586 103.273 164.527 151.85 164.527 156.64C164.527 161.429 153.586 213.085 153.586 222.322C153.586 231.559 162.476 237.032 148.798 236.69C135.121 236.348 141.618 231.901 121.786 231.559C101.954 231.217 98.8765 235.664 94.7733 228.48C91.9749 223.793 88.5206 219.53 84.5154 215.822L91.696 190.507L92.7218 119.009C92.7218 119.009 101.488 101.905 105.482 103.273C105.482 103.273 103.322 110.799 105.031 112.51Z" fill="#7C57F6"/>
<path d="M109.243 100.247C109.243 100.247 91.0122 102.247 85.8833 106.01C80.7543 109.773 66.3932 112.51 66.7351 115.246C67.077 117.983 83.4897 156.982 83.4897 156.982C83.4897 156.982 91.0122 187.77 84.5155 194.954C78.0188 202.138 53.7417 280.478 57.8449 286.978C61.9481 293.478 74.9415 267.136 74.9415 267.136C74.9415 267.136 92.38 210.691 101.954 201.112C111.528 191.533 112.212 139.877 112.212 137.482C112.212 135.088 109.243 100.247 109.243 100.247Z" fill="#575A89"/>
<path d="M135.909 104.215C135.909 104.215 158.372 95.7468 166.237 99.1678C174.101 102.589 178.888 103.273 178.888 103.273L181.624 136.798C181.624 136.798 182.65 185.034 191.54 196.665C200.43 208.296 206.243 256.874 204.875 261.663C203.507 266.452 207.269 274.662 201.456 272.61C195.643 270.557 179.572 223.348 179.572 223.348C179.572 223.348 179.572 196.323 169.998 188.797C160.424 181.271 144.695 150.14 144.011 142.614C143.327 135.088 136.831 114.22 136.831 114.22L135.909 104.215Z" fill="#575A89"/>
<path d="M58.8712 212.059C58.8712 212.059 69.1291 231.216 70.4968 234.637C71.8646 238.058 81.4387 261.321 95.1159 256.189C108.793 251.058 81.7806 226.085 81.7806 226.085L75.6258 205.217C75.6258 205.217 59.555 201.796 58.8712 212.059Z" fill="#FFB9B9"/>
<path d="M175.469 103.273H178.889C178.889 103.273 182.308 100.536 186.411 102.247C190.514 103.957 200.088 101.563 200.088 102.589C200.088 103.615 210.688 99.5099 215.133 101.563C219.578 103.615 235.649 104.299 235.649 104.299C235.649 104.299 242.146 120.72 237.701 123.799C233.256 126.878 226.759 124.483 223.682 126.878C220.604 129.272 214.791 126.535 212.74 129.614C210.688 132.693 203.166 138.167 201.456 134.746C199.746 131.325 203.166 128.246 195.985 132.009C188.805 135.772 177.521 135.772 177.521 135.772L175.469 103.273Z" fill="#575A89"/>
<path d="M124.491 64.1687C127.36 63.5055 130.338 64.2404 133.243 64.7168C136.149 65.1932 139.351 65.3502 141.809 63.7283C143.624 62.5304 144.74 60.5488 145.788 58.6426C146.225 57.9619 146.517 57.1978 146.644 56.3987C146.767 54.9889 145.871 53.7027 144.919 52.656C140.498 47.7937 134.037 45.1325 127.521 44.2871C122.165 43.5923 116.581 44.0576 111.635 46.228C106.689 48.3983 102.438 52.3729 100.493 57.4139C99.5973 59.994 99.038 62.6788 98.8289 65.402C98.535 67.4056 98.4973 69.4385 98.7167 71.4516C98.9786 72.944 99.3707 74.4106 99.8885 75.8344L103.11 85.5655C103.341 86.4851 103.774 87.3418 104.376 88.0739C104.686 88.4325 105.103 88.6811 105.566 88.7825C106.028 88.8839 106.511 88.8326 106.942 88.6364C106.685 87.5794 106.645 86.4809 106.827 85.4082C106.928 84.8736 107.186 84.3815 107.569 83.9952C107.952 83.6089 108.442 83.3461 108.975 83.2408C110.162 83.1147 111.177 84.0355 112.303 84.4321C112.845 84.5927 113.414 84.6395 113.974 84.5694C114.535 84.4992 115.075 84.3138 115.56 84.0246C116.046 83.7355 116.466 83.349 116.795 82.8894C117.124 82.4297 117.354 81.907 117.471 81.354C117.649 80.2415 117.351 79.0505 117.772 78.0057C118.266 76.7817 119.576 76.1403 120.559 75.2607C121.457 74.4319 122.1 73.3639 122.411 72.1823C122.723 71.0007 122.691 69.7545 122.32 68.5904C122.056 67.7805 121.312 67.4124 121.461 66.482C121.656 65.2615 123.455 64.4081 124.491 64.1687Z" fill="#2F2E41"/>
<path d="M214.111 138.799H359.59V298.433H214.111V138.799Z" fill="#F2F2F2"/>
<path d="M199.446 123.54H344.925V283.173H199.446V123.54Z" stroke="#3F3D56" stroke-width="2" stroke-miterlimit="10"/>
<path d="M330.847 133.517V255.59H212.939" stroke="#3F3D56" stroke-width="2" stroke-miterlimit="10"/>
<path d="M297.996 212.747H324.394V255.003H297.996V212.747Z" fill="#575A89"/>
<path d="M259.867 183.989H286.265V255.003H259.867V183.989Z" fill="#3F3D56"/>
<path d="M221.737 150.537H248.135V255.003H221.737V150.537Z" fill="#7C57F6"/>
<path d="M324.763 265.164H332.606V273.012H324.763V265.164Z" fill="#7C57F6"/>
<path d="M313.433 265.164H321.276V273.012H313.433V265.164Z" fill="#3F3D56"/>
<path d="M302.102 265.164H309.946V273.012H302.102V265.164Z" fill="#575A89"/>
<path d="M214.112 268.573H244.615V269.81H214.112V268.573Z" fill="#3F3D56"/>
<path d="M214.112 272.284H244.615V273.521H214.112V272.284Z" fill="#3F3D56"/>
<path d="M214.112 275.996H244.615V277.233H214.112V275.996Z" fill="#3F3D56"/>
<path d="M232.116 104.28C225.881 104.551 221.249 110.208 221.923 116.415C222.534 122.038 224.788 129.035 231.888 131.723C244.54 136.513 243.856 109.487 241.462 108.461C239.867 107.777 237.359 104.052 232.116 104.28Z" fill="#FFB9B9"/>
<path d="M70.4969 113.419L66.7357 115.246C66.7357 115.246 58.5294 132.009 58.1874 134.404C57.8455 136.798 52.3746 145.693 54.4262 148.087C56.4778 150.482 59.5551 156.64 57.5036 159.034C55.452 161.429 50.6649 171.008 50.6649 174.429C50.6649 177.85 55.7939 187.086 52.3746 188.113C48.9553 189.139 49.9811 202.481 50.6649 203.507C51.3488 204.533 60.239 221.296 60.239 221.296C60.239 221.296 61.9487 202.138 78.7033 210.007C78.7033 210.007 80.071 200.428 78.7033 199.744C77.3356 199.06 73.9162 194.954 76.6517 194.27C79.3871 193.586 83.1484 185.376 82.4645 184.349C81.7807 183.323 80.071 181.955 81.7807 180.929C83.4903 179.902 84.858 174.087 84.5161 173.06C84.1742 172.034 88.2773 167.245 88.2773 167.245L70.4969 113.419Z" fill="#575A89"/>
</g>
<defs>
<clipPath id="clip0">
<rect width="657" height="487" fill="white" transform="matrix(-1 0 0 1 657 0)"/>
</clipPath>
</defs>
</svg>
