<svg width="672" height="408" viewBox="0 0 672 408" fill="none" xmlns="http://www.w3.org/2000/svg">
<g clip-path="url(#clip0)">
<path d="M-7.62939e-05 406.136H242.088V407.364H-7.62939e-05V406.136Z" fill="#3F3D56"/>
<path d="M381.303 263.589V132.716H231.662V0H672V395.076H231.662V263.589H381.303Z" fill="#3F3D56"/>
<path opacity="0.1" d="M231.662 132.716V0H384.37V130.873H519.292V0H672V132.716H534.011V263.589H672V395.076H380.077V263.589H381.303V132.716H231.662Z" fill="black"/>
<path d="M566.515 0C566.516 28.0282 577.63 54.9083 597.412 74.7273C617.194 94.5462 644.024 105.681 672 105.681V0H566.515Z" fill="#7C57F6"/>
<path opacity="0.1" d="M622.937 0C622.938 13.0363 628.107 25.5385 637.308 34.7565C646.509 43.9746 658.988 49.1535 672 49.1541V76.1888C651.831 76.1881 632.489 68.1609 618.227 53.8729C603.966 39.5848 595.953 20.2063 595.953 0H622.937Z" fill="black"/>
<path d="M231.662 36.8656V17.8184H332.853V0H354.932V17.8184V36.8656V51.6118V70.659H332.853H231.662V51.6118H332.853V36.8656H231.662Z" fill="#D0CDE1"/>
<path d="M408.901 203.375C408.899 193.82 411.643 184.466 416.805 176.432C421.967 168.397 429.328 162.021 438.01 158.064C446.691 154.108 456.326 152.74 465.763 154.122C475.2 155.504 484.04 159.579 491.228 165.859C498.416 172.139 503.647 180.36 506.297 189.539C508.947 198.718 508.903 208.467 506.172 217.622C503.44 226.777 498.136 234.95 490.892 241.166C483.649 247.381 474.772 251.377 465.323 252.674V322.574H546.745C548.455 310.077 554.836 298.698 564.6 290.735C574.364 282.772 586.781 278.821 599.342 279.679C611.902 280.538 623.669 286.142 632.263 295.359C640.857 304.577 645.637 316.719 645.637 329.332C645.637 341.945 640.857 354.088 632.263 363.305C623.669 372.523 611.902 378.127 599.342 378.986C586.781 379.844 574.364 375.892 564.6 367.93C554.836 359.967 548.455 348.587 546.745 336.091H465.323V365.584H451.831V336.091H424.233V322.574H451.831V252.674C439.937 251.041 429.036 245.148 421.144 236.085C413.252 227.022 408.903 215.402 408.901 203.375Z" fill="#D0CDE1"/>
<path d="M287.777 273.581L265.694 311.902L243.611 350.223H287.777H331.944L309.861 311.902L287.777 273.581Z" fill="#D0CDE1"/>
<path d="M297.59 355.138H341.757L319.673 316.817L319.52 316.551L327.641 302.459L349.724 340.78L371.808 379.101H327.641H283.474L297.283 355.138H297.59Z" fill="#7C57F6"/>
<path d="M574.489 211.977V178.798H557.93V159.136H640.11V241.469H557.93V211.977H574.489Z" fill="#D0CDE1"/>
<path d="M586.754 143.776H617.418V174.497H586.754V143.776Z" fill="#7C57F6"/>
<path d="M97.333 147.369L107.479 174.234L144.07 187.097C144.07 187.097 166.148 184.64 166.148 196.928C166.148 205.641 139.777 198.157 139.777 198.157L91.5353 183.673L76.316 145.917L97.333 147.369Z" fill="#FFB8B8"/>
<path d="M139.056 140.089H282.564V264.203H139.056V140.089Z" fill="#7C57F6"/>
<path d="M213.57 177.731L191.487 216.051L169.404 254.372H213.57H257.737L235.654 216.051L213.57 177.731Z" fill="#3F3D56"/>
<path d="M213.673 205.473L203.656 222.857L193.638 240.241H213.673H233.709L223.691 222.857L213.673 205.473Z" fill="#D0CDE1"/>
<path d="M213.673 148.946L203.656 166.33L193.638 183.713H213.673H233.709L223.691 166.33L213.673 148.946Z" fill="#D0CDE1"/>
<path d="M75.8734 129.913C75.8734 129.913 86.0196 128.461 91.0927 147.339C96.1658 166.217 97.6152 167.669 97.6152 167.669C97.6152 167.669 67.9014 172.025 67.1767 170.573C66.452 169.121 60.6542 134.269 75.8734 129.913Z" fill="#2F2E41"/>
<path d="M81.6707 122.652C70.8638 122.652 62.103 113.875 62.103 103.048C62.103 92.2209 70.8638 83.4438 81.6707 83.4438C92.4776 83.4438 101.238 92.2209 101.238 103.048C101.238 113.875 92.4776 122.652 81.6707 122.652Z" fill="#FFB8B8"/>
<path d="M90.3682 119.022C90.3682 119.022 83.8456 135.721 86.0198 137.9C88.194 140.078 59.2049 142.982 59.2049 142.982C59.2049 142.982 57.0307 132.091 65.7274 125.556C65.7274 125.556 69.351 114.665 68.6263 112.487C67.9016 110.309 90.3682 119.022 90.3682 119.022Z" fill="#FFB8B8"/>
<path d="M72.9734 126.282C80.4024 129.093 87.0943 133.562 92.5411 139.352C101.238 148.791 105.586 151.695 105.586 151.695C105.586 151.695 115.732 155.325 112.109 172.751C110.297 181.464 111.565 191.266 113.286 198.89C115.916 210.721 117.222 222.809 117.182 234.93V242.455C117.182 242.455 183.857 382.587 161.39 392.026C138.924 401.465 118.631 404.37 117.182 402.191C115.732 400.013 89.6422 286.745 89.6422 286.745C89.6422 286.745 82.3949 408 64.2767 408C46.1586 408 16.4448 402.917 16.4448 402.917L53.4059 257.702C53.4059 257.702 44.7091 233.016 66.4509 215.59L69.3498 207.603C57.3267 207.609 51.8307 131.371 64.2767 124.83C64.2767 124.83 67.1756 122.652 72.9734 126.282Z" fill="#2F2E41"/>
<path d="M91.0929 165.49L101.239 192.355L137.83 205.218C137.83 205.218 159.908 202.761 159.908 215.049C159.908 223.762 133.537 216.278 133.537 216.278L85.2951 201.794L70.0758 164.038L91.0929 165.49Z" fill="#FFB8B8"/>
<path d="M139.288 408C132.283 408 126.605 404.749 126.605 400.739C126.605 396.729 132.283 393.478 139.288 393.478C146.292 393.478 151.971 396.729 151.971 400.739C151.971 404.749 146.292 408 139.288 408Z" fill="#2F2E41"/>
<path d="M42.1737 408C35.1692 408 29.491 404.749 29.491 400.739C29.491 396.729 35.1692 393.478 42.1737 393.478C49.1782 393.478 54.8564 396.729 54.8564 400.739C54.8564 404.749 49.1782 408 42.1737 408Z" fill="#2F2E41"/>
<path d="M74.116 75.5568H74.1161C75.1236 75.5588 76.1285 75.6589 77.1166 75.8558C78.9019 74.9875 80.8603 74.5353 82.8448 74.5331H83.3648C93.3887 74.5331 101.515 83.6205 101.515 94.8304V94.8304H98.1559L97.6134 90.694L96.8181 94.8304H94.0202C94.8905 98.1495 95.3273 101.568 95.3197 104.999V125.659H90.2416L87.3015 118.004L88.0366 125.659H55.3957L52.7229 118.7L53.3911 125.659H49.7161V109.437C49.7161 90.7257 60.6403 75.5568 74.116 75.5568Z" fill="#2F2E41"/>
</g>
<defs>
<clipPath id="clip0">
<rect width="672" height="408" fill="white" transform="matrix(-1 0 0 1 672 0)"/>
</clipPath>
</defs>
</svg>
