<svg width="690" height="474" viewBox="0 0 690 474" fill="none" xmlns="http://www.w3.org/2000/svg">
<g clip-path="url(#clip0)">
<path d="M137.36 354.904H660.035V356.904H137.36V354.904Z" fill="#3F3D56"/>
<path d="M91.1866 0H690V314.494H91.1866V0Z" fill="#3F3D56"/>
<path opacity="0.1" d="M91.1866 24.1919V15.5519H109.599V0H117.605V15.5519H663.582V0H671.587V15.5519H690V24.1919H671.587V290.303H690V298.943H671.587V314.494H663.582V298.943H117.605V314.494H109.599V298.943H91.1866V290.303H109.599V24.1919H91.1866ZM117.605 290.303H663.582V24.1919H117.605L117.605 290.303Z" fill="black"/>
<path d="M330.908 41.4718H425.326V138.403H330.908V41.4718Z" fill="#D0CDE1"/>
<path d="M341.637 53.0514H414.597V113.265H341.637V53.0514Z" fill="#9170FF"/>
<path d="M372.965 62.9469H398.542V90.5517H372.965V62.9469Z" fill="#F2F2F2"/>
<path d="M388.751 69.8499V103.37H357.692V69.8499H388.751ZM359.039 101.916H387.404V71.3038H359.039V101.916Z" fill="#3F3D56"/>
<path d="M374.984 119.242H414.669V121.496H374.984V119.242Z" fill="#F2F2F2"/>
<path d="M378.117 51.6157C375.81 51.6157 373.94 49.5972 373.94 47.1073C373.94 44.6174 375.81 42.5989 378.117 42.5989C380.424 42.5989 382.295 44.6174 382.295 47.1073C382.295 49.5972 380.424 51.6157 378.117 51.6157Z" fill="#3F3D56"/>
<path d="M295.298 181.276H389.716V278.207H295.298V181.276Z" fill="#D0CDE1"/>
<path d="M306.028 192.855H378.987V253.069H306.028V192.855Z" fill="#9170FF"/>
<path d="M339.374 260.173H379.059V262.427H339.374V260.173Z" fill="#F2F2F2"/>
<path d="M339.374 266.936H379.059V269.19H339.374V266.936Z" fill="#F2F2F2"/>
<path d="M366.005 231.995C361.391 231.995 357.65 227.958 357.65 222.978C357.65 217.999 361.391 213.962 366.005 213.962C370.619 213.962 374.36 217.999 374.36 222.978C374.36 227.958 370.619 231.995 366.005 231.995Z" fill="#3F3D56"/>
<path d="M342.507 231.995C337.893 231.995 334.153 227.958 334.153 222.978C334.153 217.999 337.893 213.962 342.507 213.962C347.122 213.962 350.862 217.999 350.862 222.978C350.862 227.958 347.122 231.995 342.507 231.995Z" fill="#F2F2F2"/>
<path d="M319.01 231.995C314.396 231.995 310.655 227.958 310.655 222.978C310.655 217.999 314.396 213.962 319.01 213.962C323.624 213.962 327.364 217.999 327.364 222.978C327.364 227.958 323.624 231.995 319.01 231.995Z" fill="#FF6584"/>
<path d="M342.507 191.419C340.2 191.419 338.33 189.401 338.33 186.911C338.33 184.421 340.2 182.403 342.507 182.403C344.814 182.403 346.685 184.421 346.685 186.911C346.685 189.401 344.814 191.419 342.507 191.419Z" fill="#3F3D56"/>
<path d="M439.8 150.99H534.218V247.921H439.8V150.99Z" fill="#D0CDE1"/>
<path d="M450.529 162.569H523.489V222.783H450.529V162.569Z" fill="#9170FF"/>
<path d="M491.867 218.83C482.084 218.83 474.153 210.271 474.153 199.713C474.153 189.155 482.084 180.596 491.867 180.596C501.65 180.596 509.58 189.155 509.58 199.713C509.58 210.271 501.65 218.83 491.867 218.83Z" fill="#F2F2F2"/>
<path d="M486.646 214.459C491.038 214.459 495.332 213.053 498.984 210.419C502.637 207.786 505.483 204.042 507.164 199.663C508.845 195.283 509.285 190.464 508.428 185.814C507.571 181.165 505.456 176.894 502.35 173.542C499.244 170.19 495.287 167.907 490.979 166.982C486.671 166.057 482.205 166.532 478.147 168.346C474.089 170.16 470.621 173.232 468.18 177.174C465.74 181.116 464.437 185.75 464.437 190.49C464.444 196.845 466.786 202.937 470.949 207.431C475.113 211.924 480.758 214.452 486.646 214.459ZM486.646 167.393C490.879 167.393 495.016 168.748 498.536 171.286C502.055 173.824 504.798 177.431 506.418 181.651C508.038 185.872 508.461 190.516 507.636 194.996C506.81 199.477 504.772 203.592 501.779 206.822C498.786 210.052 494.972 212.252 490.821 213.143C486.67 214.035 482.367 213.577 478.456 211.829C474.546 210.081 471.203 207.121 468.852 203.322C466.5 199.524 465.245 195.058 465.245 190.49C465.251 184.367 467.508 178.496 471.52 174.166C475.532 169.836 480.972 167.4 486.646 167.393Z" fill="#3F3D56"/>
<path d="M483.876 235.522H523.561V237.777H483.876V235.522Z" fill="#F2F2F2"/>
<path d="M468.211 228.76H523.561V231.014H468.211V228.76Z" fill="#F2F2F2"/>
<path d="M487.009 161.133C484.702 161.133 482.831 159.115 482.831 156.625C482.831 154.135 484.702 152.117 487.009 152.117C489.316 152.117 491.186 154.135 491.186 156.625C491.186 159.115 489.316 161.133 487.009 161.133Z" fill="#3F3D56"/>
<path d="M543.575 39.7438H637.993V136.675H543.575V39.7438Z" fill="#D0CDE1"/>
<path d="M554.304 51.3234H627.264V111.537H554.304V51.3234Z" fill="#9170FF"/>
<path d="M582.936 98.462H598.632V103.482H582.936V98.462Z" fill="#3F3D56"/>
<path d="M563.961 59.3789H617.607V61.5303H563.961V59.3789Z" fill="#3F3D56"/>
<path d="M563.961 66.1916H617.607V68.3429H563.961V66.1916Z" fill="#3F3D56"/>
<path d="M563.961 73.0043H617.607V75.1556H563.961V73.0043Z" fill="#3F3D56"/>
<path d="M563.961 79.8169H617.607V81.9683H563.961V79.8169Z" fill="#3F3D56"/>
<path d="M563.961 86.6296H617.607V88.7809H563.961V86.6296Z" fill="#3F3D56"/>
<path d="M587.651 117.514H627.336V119.768H587.651V117.514Z" fill="#F2F2F2"/>
<path d="M571.986 123.15H627.336V125.404H571.986V123.15Z" fill="#F2F2F2"/>
<path d="M590.784 49.8878C588.477 49.8878 586.607 47.8693 586.607 45.3793C586.607 42.8894 588.477 40.8709 590.784 40.8709C593.091 40.8709 594.962 42.8894 594.962 45.3793C594.962 47.8693 593.091 49.8878 590.784 49.8878Z" fill="#3F3D56"/>
<path d="M254.272 103.066L185.892 108.489L166.555 110.022L167.756 108.726L164.124 165.42L162.308 193.767C162.235 194.912 162.159 196.057 162.088 197.203C162.029 198.155 161.786 199.073 162.831 199.308C164.909 199.775 167.073 199.97 169.178 200.256C173.458 200.839 177.747 201.33 182.046 201.728C199.247 203.321 216.537 203.438 233.754 202.078C238.056 201.738 242.351 201.305 246.638 200.78C248.233 200.584 250.212 200.511 250.794 198.581C251.394 196.592 251.497 194.33 251.769 192.266C252.978 183.069 253.802 173.825 254.24 164.534C255.134 146.017 254.526 127.452 252.423 109.049C252.166 106.795 251.884 104.545 251.579 102.298C251.359 100.667 253.672 99.9624 253.895 101.609C256.477 120.627 257.47 139.856 256.862 159.065C256.552 168.675 255.839 178.257 254.723 187.81C254.441 190.223 254.135 192.633 253.804 195.039C253.541 196.953 253.476 199.211 252.42 200.856C251.401 202.443 249.691 202.953 248.01 203.194C245.87 203.502 243.717 203.723 241.569 203.949C223.735 205.826 205.788 206.112 187.911 204.806C183.412 204.477 178.92 204.047 174.436 203.517C172.227 203.256 170.021 202.97 167.817 202.66C166.739 202.508 165.661 202.351 164.583 202.189C163.577 202.112 162.582 201.924 161.611 201.63C159.587 200.843 159.588 198.736 159.714 196.773L160.182 189.472L161.117 174.869L164.886 116.027L165.354 108.726C165.363 108.385 165.492 108.061 165.715 107.82C165.939 107.579 166.239 107.439 166.555 107.43L234.934 102.008L254.272 100.474C255.814 100.352 255.807 102.944 254.272 103.066V103.066Z" fill="#D0CDE1"/>
<path d="M224.969 133.666C224.623 132.677 225.491 134.808 225.055 133.865C224.94 133.615 224.831 133.361 224.708 133.114C224.464 132.623 224.193 132.148 223.897 131.691C223.602 131.236 223.154 131.06 224.026 131.852C223.845 131.653 223.676 131.441 223.52 131.22C223.113 130.738 222.679 130.284 222.221 129.86C221.892 129.556 221.269 129.296 222.384 129.971C222.163 129.838 221.959 129.638 221.748 129.485C221.316 129.172 220.871 128.881 220.411 128.615C220.182 128.481 219.95 128.354 219.715 128.233C219.315 128.027 218.65 127.956 219.907 128.303C219.368 128.154 218.845 127.879 218.306 127.713C217.847 127.573 217.383 127.454 216.914 127.358C216.495 127.273 215.735 127.338 217.166 127.373C216.91 127.367 216.648 127.313 216.392 127.295C215.876 127.257 215.359 127.248 214.842 127.27C214.584 127.28 214.328 127.308 214.07 127.325C213.214 127.38 215.366 127.068 214.07 127.334C213.562 127.439 213.06 127.575 212.567 127.744C212.328 127.855 212.082 127.948 211.831 128.022L212.496 127.713C212.333 127.79 212.171 127.87 212.011 127.953C211.535 128.202 211.073 128.481 210.627 128.789C210.405 128.942 210.193 129.108 209.975 129.268C209.292 129.77 210.891 128.424 209.922 129.341C209.593 129.652 209.277 129.979 208.975 130.321C208.794 130.527 208.618 130.737 208.446 130.952C208.158 131.315 207.938 131.976 208.539 130.79C207.989 131.876 207.301 132.861 206.783 133.98C206.341 134.934 207.185 132.794 206.85 133.799C206.759 134.07 206.662 134.337 206.576 134.61C206.406 135.157 206.258 135.711 206.134 136.272C206.01 136.834 205.949 137.409 205.835 137.971C206.15 136.422 205.919 137.318 205.888 137.739C205.86 138.122 205.843 138.506 205.837 138.89C205.83 139.369 205.841 139.849 205.87 140.328C205.887 140.609 205.945 140.907 205.941 141.187C205.96 139.733 205.844 140.457 205.928 140.945C206.025 141.511 206.149 142.071 206.301 142.622C206.377 142.898 206.46 143.172 206.55 143.443C206.629 143.684 206.714 143.923 206.802 144.16C206.544 143.511 206.523 143.449 206.74 143.975C208.067 146.838 209.719 149.507 211.024 152.38C214.261 159.544 215.349 167.617 214.138 175.479C213.805 176.783 213.013 177.894 211.931 178.577C210.809 179.271 209.479 179.458 208.23 179.099C205.522 178.154 204.458 175.603 204.875 172.722C205.022 171.708 204.798 173.627 204.894 172.606C204.935 172.167 204.976 171.73 205.005 171.291C205.062 170.413 205.086 169.533 205.075 168.652C205.066 167.897 205.032 167.144 204.974 166.391C204.972 165.95 204.93 165.51 204.848 165.078C204.849 165.08 205.003 166.12 204.898 165.522C204.855 165.275 204.824 165.025 204.783 164.777C204.507 163.105 204.108 161.459 203.59 159.855C203.475 159.498 203.349 159.147 203.227 158.793C202.907 157.859 203.561 159.543 203.173 158.639C202.828 157.832 202.47 157.036 202.076 156.256C200.423 152.977 198.552 149.906 197.348 146.379C196.429 143.613 196.066 140.668 196.282 137.739C196.728 131.693 199.103 125.559 203.53 121.644C205.817 119.589 208.522 118.146 211.424 117.432C214.326 116.718 217.344 116.754 220.23 117.537C223.398 118.364 226.33 120.015 228.771 122.346C231.212 124.677 233.087 127.617 234.232 130.91C235.119 133.453 233.248 136.704 230.877 137.287C228.145 137.959 225.919 136.389 224.969 133.666V133.666Z" fill="#D0CDE1"/>
<path d="M208.187 195.429C207.398 195.429 206.626 195.176 205.969 194.703C205.312 194.229 204.801 193.556 204.498 192.769C204.196 191.982 204.117 191.115 204.271 190.279C204.425 189.443 204.806 188.676 205.364 188.073C205.922 187.47 206.634 187.06 207.408 186.894C208.183 186.727 208.986 186.813 209.715 187.139C210.445 187.465 211.068 188.017 211.507 188.726C211.946 189.434 212.18 190.268 212.18 191.12C212.168 192.259 211.744 193.348 210.998 194.153C210.251 194.958 209.243 195.416 208.187 195.429Z" fill="#D0CDE1"/>
<path d="M641.107 346.156H663.522V370.348H641.107V346.156Z" fill="#9170FF"/>
<path d="M627.497 356.524H654.716V327.148H627.497V356.524ZM653.533 355.247H628.681V328.426H653.533V355.247Z" fill="#3F3D56"/>
<path d="M142.022 215.567L145.224 225.935C145.224 225.935 165.238 250.991 150.828 254.447C136.418 257.903 134.817 227.663 134.817 227.663L130.814 219.023L142.022 215.567Z" fill="#FFB8B8"/>
<path d="M119.606 90.2875C119.606 90.2875 124.409 89.4236 126.011 110.159C127.612 130.895 128.412 167.183 128.412 167.183L146.825 218.159L123.609 225.935L112.401 168.047L119.606 90.2875Z" fill="#575A89"/>
<path d="M130.013 398.734L132.415 415.15H110.8L111.6 398.734H130.013Z" fill="#FFB8B8"/>
<path d="M60.3651 416.878L61.9668 439.342L47.5566 441.07V415.15L60.3651 416.878Z" fill="#FFB8B8"/>
<path d="M121.207 184.463L139.62 298.511L134.817 402.19H110V308.014L85.9831 259.631L66.7698 320.11L61.9665 421.198L34.7477 416.014L41.1522 317.518C41.1522 317.518 45.9555 186.191 50.7588 184.463C55.5621 182.735 121.207 184.463 121.207 184.463Z" fill="#2F2E41"/>
<path d="M127.612 409.966C127.612 409.966 127.612 401.326 134.016 406.51C140.421 411.694 148.426 421.198 148.426 421.198C148.426 421.198 178.847 439.342 157.232 441.934C135.617 444.526 122.008 429.838 122.008 429.838L119.606 432.43C119.606 432.43 106.797 429.838 106.797 426.382C106.89 423.486 107.158 420.6 107.598 417.742C107.598 417.742 109.282 403.087 111.242 406.094C113.202 409.102 124.41 415.15 127.612 409.966Z" fill="#2F2E41"/>
<path d="M46.7561 434.158C46.7561 434.158 61.166 426.382 64.3682 433.294C67.5705 440.206 69.9721 454.03 69.9721 454.03C69.9721 454.03 80.3793 475.63 61.9666 473.902C43.5539 472.174 44.3544 460.942 44.3544 458.35C44.3544 455.758 45.155 449.71 44.3544 447.118C43.5539 444.526 46.7561 434.158 46.7561 434.158Z" fill="#2F2E41"/>
<path d="M78.3777 56.1597C65.9979 56.1597 55.9622 45.3286 55.9622 31.9678C55.9622 18.607 65.9979 7.77594 78.3777 7.77594C90.7574 7.77594 100.793 18.607 100.793 31.9678C100.793 45.3286 90.7574 56.1597 78.3777 56.1597Z" fill="#FFB8B8"/>
<path d="M93.1882 43.6317L93.9887 74.7354L65.1689 72.1435V43.6317H93.1882Z" fill="#FFB8B8"/>
<path d="M63.5675 56.5917C63.5675 56.5917 77.1769 66.0957 81.1797 67.8237C85.1825 69.5517 93.9886 60.9117 93.9886 60.9117C93.9886 60.9117 96.3902 62.6397 96.3902 64.3677C96.3902 66.0957 97.9913 73.0077 97.9913 73.0077L117.205 141.263L115.603 189.647C115.603 189.647 57.1631 195.695 50.7587 187.919C44.3542 180.143 53.9609 68.6877 53.9609 68.6877L63.5675 56.5917Z" fill="#D0CDE1"/>
<path opacity="0.1" d="M67.5701 74.7356C67.5701 74.7356 89.185 83.3755 96.39 75.5996C96.39 75.5996 85.9829 78.1916 67.5701 74.7356Z" fill="black"/>
<path d="M10.7311 262.223C19.5371 268.271 48.357 276.047 48.357 276.047C48.357 276.047 51.5033 202.909 62.767 191.375C73.9668 179.893 92.2515 97.1131 75.8081 82.7189C75.7347 82.6448 75.6571 82.5755 75.5759 82.5116L65.1687 56.5917C65.1687 56.5917 63.5676 53.9997 60.3654 57.4557C57.775 60.4514 55.3683 63.6261 53.1604 66.9596L52.704 67.1583L30.7449 76.4636L39.551 118.799C39.551 118.799 1.92497 256.175 10.7311 262.223Z" fill="#575A89"/>
<path opacity="0.1" d="M52.704 67.1584L58.7642 91.1515L75.808 82.7189C75.7346 82.6448 75.657 82.5755 75.5758 82.5116L65.1686 56.5917C65.1686 56.5917 63.5676 53.9997 60.3653 57.4557C57.775 60.4514 55.3683 63.6261 53.1604 66.9596L52.704 67.1584Z" fill="black"/>
<path d="M94.3887 60.4797L96.7904 89.8555L96.9184 91.1947L115.203 279.071C115.203 279.071 131.214 273.023 136.818 266.111C142.422 259.199 124.009 182.303 124.009 182.303L122.408 85.5355C122.408 85.5355 108.206 74.7443 102.402 68.8172C101.041 67.4348 100.145 66.3203 99.9926 65.6637C99.192 62.2077 94.3887 60.4797 94.3887 60.4797Z" fill="#575A89"/>
<path opacity="0.1" d="M94.3889 60.4797L96.7905 89.8555L96.9185 91.1947L108.398 89.4235L102.402 68.8172C101.041 67.4348 100.145 66.3203 99.9927 65.6637C99.1922 62.2077 94.3889 60.4797 94.3889 60.4797Z" fill="black"/>
<path d="M51.5594 206.063L60.3655 214.703C60.3655 214.703 56.3627 232.847 51.5594 233.711C51.5594 233.711 48.3572 228.527 47.5567 224.207C46.7561 219.887 39.5512 215.567 39.5512 215.567L51.5594 206.063Z" fill="#FFB8B8"/>
<path d="M41.152 74.7356L30.7449 76.4636C30.7449 76.4636 -3.67884 139.535 0.323917 161.999C4.32667 184.463 36.3488 223.343 36.3488 223.343L56.3625 206.063L26.7421 162.863L41.9526 111.023L41.152 74.7356Z" fill="#575A89"/>
<path d="M100.844 34.6851C100.844 34.6851 100.844 13.3504 96.04 8.50159H90.2754C90.2754 8.50159 83.5501 -2.16577 74.9032 1.71327C66.2564 5.59231 51.845 12.3806 52.8058 23.048C53.7665 33.7153 56.7628 40.6078 56.7628 40.6078C56.7628 40.6078 58.3639 40.6078 61.9327 34.8087C66.7016 27.0596 55.6878 29.4751 70.0992 26.5658C84.5106 23.6565 93.1575 19.7775 95.079 23.6565C97.0005 27.5355 100.844 34.6851 100.844 34.6851Z" fill="#2F2E41"/>
<path d="M90.3704 9.94937C90.3704 9.94937 89.6027 3.7142 86.4422 2.37164L90.3704 9.94937Z" fill="#2F2E41"/>
<path d="M90.3843 11.232C90.3843 11.232 91.9878 5.18482 89.5873 2.59167L90.3843 11.232Z" fill="#2F2E41"/>
</g>
<defs>
<clipPath id="clip0">
<rect width="690" height="474" fill="white" transform="matrix(-1 0 0 1 690 0)"/>
</clipPath>
</defs>
</svg>
