<svg width="357" height="204" viewBox="0 0 357 204" fill="none" xmlns="http://www.w3.org/2000/svg">
<g clip-path="url(#clip0)">
<path opacity="0.1" d="M214.612 147.035C221.509 146.641 230.065 141.955 236.719 139.882C244.593 137.435 252.499 135.081 260.435 132.82C288.065 124.943 315.992 118.232 344.215 112.686C346.849 112.167 349.487 111.661 352.129 111.167C348.013 102.257 341.637 94.585 333.636 88.9164C333.841 86.966 333.945 85.0063 333.948 83.0451C333.948 52.0506 309.223 26.9242 278.713 26.9242C269.32 26.9142 260.084 29.3431 251.907 33.9741C230.312 19.743 202.126 11.1299 171.288 11.1299C127.469 11.1299 89.0005 28.5217 67.2029 54.7111L169.647 72.0498L232.478 82.6793C160.85 84.8209 89.0005 86.9499 17.5787 81.9228C8.15062 91.0619 2.18333 103.198 0.696608 116.256C-0.790117 129.314 2.29601 142.485 9.42758 153.516C9.42758 154.638 9.47439 155.751 9.55864 156.855C11.378 157.377 13.1349 157.883 14.7108 158.215C40.0108 163.569 65.473 168.05 91.0976 171.658C72.2146 183.322 49.2187 184.973 27.4367 189.913C37.9845 198.635 52.3081 203.981 68.0923 203.981H303.113C328.562 203.981 349.189 186.233 349.189 164.336C353.008 158.027 355.553 151.028 356.679 143.737C309.588 148.292 261.911 144.337 214.612 147.035Z" fill="#9170FF"/>
<path opacity="0.1" d="M357 134.411C357.025 125.386 354.884 116.488 350.756 108.467C346.628 100.446 340.636 93.5365 333.283 88.3224C333.487 86.3729 333.591 84.4143 333.595 82.4542C333.595 51.4597 308.858 26.3427 278.36 26.3427C268.966 26.3326 259.73 28.7604 251.551 33.3894C229.956 19.1521 201.768 10.5359 170.929 10.5359C120.768 10.5359 77.5915 33.3425 58.4433 66.0472C57.3791 65.9847 56.3088 65.9503 55.229 65.9503C24.728 65.9503 -0.00611773 91.0767 -0.00611773 122.071C-0.0274964 133.019 3.12981 143.737 9.08115 152.919C9.08115 180.806 35.3537 203.412 67.749 203.412H302.776C328.222 203.412 348.849 185.661 348.849 163.764C354.201 154.913 357.021 144.759 357 134.411Z" fill="#9170FF"/>
<path opacity="0.1" d="M259.274 142.161C258.803 143.968 257.386 145.375 256.659 147.097C255.564 149.677 256.057 152.831 254.509 155.163C254.007 155.872 253.4 156.499 252.708 157.024C252.325 157.35 251.907 157.632 251.46 157.865C250.998 158.12 250.454 158.187 249.944 158.052C249.285 157.827 248.889 157.114 248.823 156.426C248.8 156.201 248.8 155.974 248.823 155.748L248.842 155.798C249.113 156.455 249.557 157.142 250.256 157.258C250.518 157.277 250.781 157.242 251.03 157.154C251.278 157.066 251.505 156.928 251.697 156.748C252.727 155.92 253.326 154.685 253.897 153.494C254.344 152.635 254.698 151.73 254.952 150.796C255.077 150.264 255.136 149.72 255.264 149.189C255.857 146.607 257.876 144.499 258.322 141.883C258.359 141.703 258.367 141.518 258.347 141.336C258.289 141.097 258.198 140.868 258.079 140.654C257.971 140.412 257.891 140.158 257.842 139.897C258.466 140.123 259.128 140.47 259.324 141.101C259.405 141.452 259.388 141.819 259.274 142.161Z" fill="black"/>
<path opacity="0.1" d="M250.193 93.3368C250.012 93.4989 249.883 93.7121 249.824 93.9485C249.765 94.185 249.778 94.4337 249.862 94.6624C249.931 94.8093 253.152 94.1872 253.492 94.1403C254.341 94.0184 255.829 94.0778 256.4 93.2993C257.418 91.9206 254.266 92.227 253.688 92.277C252.59 92.3708 251.03 92.5209 250.193 93.3368Z" fill="black"/>
<path opacity="0.1" d="M244.504 112.361C244.954 112.511 245.441 112.73 245.594 113.18L241.98 112.261L240.107 111.782C239.777 111.698 238.591 111.601 238.372 111.342C238.06 110.96 239.168 111.223 239.368 111.251C239.973 111.342 240.579 111.435 241.181 111.545C242.317 111.748 243.409 112.083 244.504 112.361Z" fill="black"/>
<path opacity="0.1" d="M245.906 115.565C245.594 115.356 244.698 115.381 244.314 115.29C243.752 115.156 243.2 114.977 242.648 114.805C241.527 114.44 240.416 114.024 239.265 113.755C239.053 113.708 238.329 113.696 238.363 113.427C238.397 113.158 239.087 113.064 239.259 113.052C240.279 112.977 241.552 113.455 242.501 113.796C243.71 114.23 244.855 114.825 245.906 115.565Z" fill="black"/>
<path opacity="0.1" d="M243.615 109.503C242.47 109.191 241.43 108.478 240.251 108.34C239.943 108.352 239.641 108.259 239.393 108.078C239.254 107.941 239.158 107.767 239.115 107.577C239.904 107.537 240.822 107.871 241.54 108.187C241.935 108.357 242.315 108.56 242.676 108.793C242.938 108.953 243.331 109.413 243.615 109.503Z" fill="black"/>
<g opacity="0.1">
<path opacity="0.1" d="M246.339 46.2917L245.949 46.3199L245.906 46.3511C246.052 46.3452 246.197 46.3253 246.339 46.2917Z" fill="black"/>
<path opacity="0.1" d="M253.479 52.782C253.414 53.4036 253.28 54.0159 253.08 54.6078C252.951 54.9671 252.847 55.3347 252.768 55.7083C252.705 56.0709 252.699 56.4398 252.643 56.8025C252.574 57.2727 252.412 57.7244 252.166 58.1308C251.92 58.5372 251.595 58.8903 251.211 59.1691C251.101 59.2585 250.965 59.3081 250.824 59.3098C250.58 59.2817 250.431 58.9972 250.34 58.7408C249.844 57.3058 249.962 55.552 249.048 54.4077C248.632 53.9461 248.13 53.5711 247.569 53.3041C247.34 53.1564 247.083 53.0594 246.814 53.0196C246.418 53.0409 246.038 53.1803 245.722 53.4198C245.063 53.8624 244.332 54.1862 243.562 54.3765C243.178 54.4676 242.778 54.4717 242.392 54.3884C242.006 54.3052 241.643 54.1366 241.331 53.895C240.9 53.5386 240.585 53.004 240.107 52.7257C239.63 52.4475 239.131 52.4631 238.66 52.2724C238.365 52.1465 238.103 51.9557 237.892 51.7143C237.682 51.473 237.528 51.1871 237.442 50.8781C237.431 50.8391 237.423 50.7994 237.418 50.7593C237.34 51.1083 237.348 51.4711 237.442 51.816C237.528 52.125 237.682 52.4109 237.892 52.6522C238.103 52.8936 238.365 53.0844 238.66 53.2103C239.131 53.401 239.661 53.4042 240.107 53.6637C240.554 53.9231 240.9 54.4765 241.331 54.8329C241.643 55.0745 242.006 55.2431 242.392 55.3264C242.778 55.4096 243.178 55.4055 243.562 55.3144C244.332 55.1241 245.063 54.8003 245.722 54.3577C246.038 54.1182 246.418 53.9788 246.814 53.9575C247.083 53.9973 247.34 54.0943 247.569 54.242C248.123 54.5142 248.618 54.8923 249.026 55.355C249.941 56.4992 249.822 58.2531 250.318 59.6881C250.409 59.9476 250.558 60.229 250.802 60.2571C250.952 60.2579 251.097 60.2046 251.211 60.107C251.597 59.8274 251.922 59.473 252.169 59.0649C252.416 58.6567 252.578 58.2032 252.646 57.731C252.702 57.3684 252.709 56.9995 252.771 56.6368C252.85 56.2633 252.954 55.8956 253.083 55.5363C253.387 54.6943 253.528 53.802 253.498 52.9071C253.492 52.8696 253.486 52.8258 253.479 52.782Z" fill="black"/>
</g>
<path d="M233.735 77.8677L233.523 80.722C233.492 81.1097 232.752 90.3387 227.298 101.125C222.617 110.375 213.508 122.424 196.31 129.196C194.968 129.727 193.575 130.223 192.131 130.684L190.521 125.619C194.564 124.345 198.458 122.639 202.136 120.53C210.902 115.459 217.717 108.221 222.47 98.908C224.992 93.9493 226.789 88.6533 227.806 83.1825H208.24V77.8677H233.735Z" fill="#9170FF"/>
<path opacity="0.1" d="M194.203 129.199C211.397 122.428 220.51 110.382 225.188 101.131C230.642 90.345 231.385 81.1223 231.413 80.7284L231.625 77.874H233.81L233.598 80.7284C233.57 81.116 232.827 90.345 227.372 101.131C222.691 110.382 213.582 122.428 196.387 129.199C195.045 129.731 193.652 130.228 192.206 130.69L191.993 130.025C192.747 129.756 193.483 129.481 194.203 129.199Z" fill="white"/>
<path d="M159.776 125.619L158.166 130.684C156.72 130.221 155.326 129.724 153.985 129.193C136.79 122.421 127.678 110.375 123 101.125C117.545 90.3387 116.802 81.1159 116.774 80.722L116.562 77.8677H142.045V83.1825H122.476C123.499 88.654 125.301 93.95 127.827 98.908C132.58 108.221 139.393 115.459 148.158 120.527C151.837 122.638 155.732 124.345 159.776 125.619Z" fill="#9170FF"/>
<path opacity="0.1" d="M156.088 129.199C138.893 122.428 129.781 110.382 125.103 101.131C119.648 90.345 118.906 81.1223 118.877 80.7284L118.665 77.874H116.481L116.693 80.7284C116.721 81.116 117.464 90.345 122.919 101.131C127.6 110.382 136.709 122.428 153.903 129.199C155.245 129.731 156.639 130.228 158.085 130.69L158.297 130.025C157.546 129.756 156.81 129.481 156.088 129.199Z" fill="white"/>
<path d="M204.585 174.578V203.237H145.708V174.578L147.581 172.077C166.66 165.293 170.527 147.601 171.298 140.601C171.412 139.634 171.478 138.661 171.494 137.687H178.775C178.791 138.661 178.857 139.634 178.971 140.601C179.755 147.601 183.621 165.299 202.688 172.077L204.585 174.578Z" fill="#9170FF"/>
<path opacity="0.1" d="M204.585 174.578H145.708V178.173H204.585V174.578Z" fill="black"/>
<path opacity="0.1" d="M150.702 172.077C169.781 165.293 173.647 147.601 174.418 140.601C174.533 139.634 174.599 138.661 174.615 137.687H171.494C171.478 138.661 171.412 139.634 171.298 140.601C170.514 147.601 166.648 165.299 147.581 172.077L145.708 174.578V203.237H148.829V174.578L150.702 172.077Z" fill="white"/>
<path opacity="0.1" d="M136.765 77.8677H142.045V83.1825H137.233C137.044 81.4317 136.888 79.6601 136.765 77.8677Z" fill="black"/>
<path opacity="0.1" d="M159.777 125.619L158.166 130.684C156.72 130.221 155.327 129.724 153.985 129.193C151.777 126.492 149.827 123.591 148.158 120.527C151.837 122.638 155.732 124.345 159.777 125.619Z" fill="black"/>
<path opacity="0.1" d="M190.518 125.619C194.56 124.345 198.454 122.639 202.133 120.53C200.463 123.595 198.513 126.497 196.306 129.199C194.965 129.731 193.572 130.227 192.128 130.687L190.518 125.619Z" fill="black"/>
<path opacity="0.1" d="M213.526 77.8677C213.403 79.6601 213.247 81.4317 213.058 83.1825H208.249V77.8677H213.526Z" fill="black"/>
<path opacity="0.1" d="M178.984 140.601C176.449 141.093 173.844 141.093 171.31 140.601C171.425 139.634 171.49 138.661 171.507 137.687H178.787C178.803 138.661 178.869 139.634 178.984 140.601Z" fill="black"/>
<path d="M137.389 69.064C137.523 108.475 154.375 140.345 175.149 140.345C195.923 140.345 212.771 108.475 212.908 69.064H137.389Z" fill="#9170FF"/>
<path opacity="0.1" d="M144.098 69.064H137.389C137.523 108.475 154.375 140.345 175.149 140.345C176.273 140.342 177.395 140.247 178.503 140.06C159.299 136.846 144.226 106.33 144.098 69.064Z" fill="white"/>
<path d="M195.17 185.548H155.123V195.865H195.17V185.548Z" fill="#3F3D56"/>
<path opacity="0.1" d="M156.996 186.955H195.17V185.548H155.123V195.865H156.996V186.955Z" fill="white"/>
<path opacity="0.1" d="M276.89 0.0342749C276.89 0.0342749 250.618 -1.5539 253.707 16.8915C253.707 16.8915 253.083 20.1523 256.042 21.631C256.042 21.631 256.088 20.2648 258.738 20.7307C259.681 20.8873 260.639 20.9335 261.593 20.8682C262.882 20.7791 264.106 20.2721 265.082 19.4238C265.082 19.4238 272.469 16.3663 275.339 4.27359C275.339 4.27359 277.465 1.63496 277.38 0.956547L272.946 2.85423C272.946 2.85423 274.463 6.05873 273.258 8.72238C273.258 8.72238 273.114 2.96991 272.263 3.09496C272.091 3.1231 269.96 4.20481 269.96 4.20481C269.96 4.20481 272.565 9.78533 270.599 13.8433C270.599 13.8433 271.345 6.96537 269.145 4.60811L266.024 6.4339C266.024 6.4339 269.07 12.1989 267.004 16.904C267.004 16.904 267.535 9.68842 265.366 6.87784L262.539 9.08816C262.539 9.08816 265.4 14.7718 263.656 18.6735C263.656 18.6735 263.428 10.273 261.927 9.6384C261.927 9.6384 259.452 11.8268 259.075 12.721C259.075 12.721 261.035 16.8477 259.817 19.0237C259.817 19.0237 259.072 13.4275 258.46 13.3963C258.46 13.3963 255.995 17.1041 255.739 19.6489C255.739 19.6489 255.845 15.8692 257.864 13.0461C257.864 13.0461 255.48 13.4557 254.088 15.0032C254.088 15.0032 254.472 12.3833 258.472 12.1551C258.472 12.1551 260.51 9.34139 261.053 9.16945C261.053 9.16945 257.078 8.83805 254.665 9.90726C254.665 9.90726 256.787 7.43432 261.783 8.5598L264.576 6.27445C264.576 6.27445 259.34 5.55852 257.118 6.34948C257.118 6.34948 259.674 4.16104 265.329 5.75548L268.368 3.93595C268.368 3.93595 263.902 2.97304 261.244 3.31068C261.244 3.31068 264.052 1.79441 269.261 3.43886L271.445 2.46032C271.445 2.46032 268.175 1.81629 267.216 1.71312C266.258 1.60995 266.209 1.34734 266.209 1.34734C268.28 1.00121 270.408 1.23824 272.353 2.03201C272.353 2.03201 276.972 0.325025 276.89 0.0342749Z" fill="#9170FF"/>
<path opacity="0.1" d="M244.486 4.727C244.486 4.727 232.628 4.00794 234.016 12.3428C234.016 12.3428 233.739 13.8184 235.068 14.4874C235.068 14.4874 235.09 13.8622 236.288 14.0779C236.714 14.1496 237.146 14.1706 237.577 14.1404C238.159 14.1008 238.713 13.8713 239.153 13.487C239.153 13.487 242.492 12.1083 243.79 6.64344C243.79 6.64344 244.748 5.44918 244.711 5.1428L242.707 5.99941C242.707 5.99941 243.394 7.45004 242.854 8.65368C242.854 8.65368 242.788 6.05257 242.405 6.11509C242.327 6.11509 241.362 6.6153 241.362 6.6153C241.362 6.6153 242.542 9.13826 241.653 10.9734C241.653 10.9734 241.99 7.86584 240.994 6.79976L239.584 7.62512C239.584 7.62512 240.963 10.2294 240.027 12.3553C240.027 12.3553 240.267 9.0945 239.287 7.8252L238.011 8.83501C238.011 8.83501 239.303 11.4049 238.516 13.165C238.516 13.165 238.413 9.36961 237.733 9.08512C237.733 9.08512 236.616 10.073 236.444 10.4795C236.444 10.4795 237.33 12.3553 236.781 13.3244C236.781 13.3244 236.444 10.7952 236.157 10.7858C236.157 10.7858 235.046 12.4616 234.928 13.5996C234.983 12.5375 235.315 11.5084 235.889 10.6139C235.246 10.7359 234.653 11.0434 234.182 11.4987C234.182 11.4987 234.357 10.3169 236.163 10.2106C236.163 10.2106 237.1 8.9413 237.331 8.86314C237.331 8.86314 235.533 8.71308 234.444 9.19766C234.444 9.19766 235.402 8.07843 237.661 8.5724L238.91 7.5407C238.91 7.5407 236.544 7.22807 235.539 7.57509C235.539 7.57509 236.694 6.58717 239.25 7.30623L240.623 6.484C240.623 6.484 238.607 6.04631 237.402 6.20575C237.402 6.20575 238.672 5.51796 241.025 6.26203L242.008 5.82122C242.008 5.82122 240.529 5.52734 240.095 5.48357C239.662 5.4398 239.64 5.31787 239.64 5.31787C240.577 5.16175 241.538 5.27 242.417 5.63051C242.417 5.63051 244.524 4.8583 244.486 4.727Z" fill="#9170FF"/>
<path d="M285.909 203.45C292.839 203.45 298.457 202.498 298.457 201.324C298.457 200.15 292.839 199.198 285.909 199.198C278.979 199.198 273.361 200.15 273.361 201.324C273.361 202.498 278.979 203.45 285.909 203.45Z" fill="#9170FF"/>
<path d="M291.099 197.847C291.672 197.38 292.088 196.748 292.294 196.037C292.45 195.321 292.144 194.474 291.457 194.196C290.69 193.902 289.869 194.436 289.248 194.974C288.627 195.512 287.912 196.128 287.101 196.012C287.519 195.632 287.832 195.149 288.009 194.612C288.186 194.074 288.222 193.5 288.112 192.945C288.077 192.715 287.98 192.499 287.831 192.32C287.404 191.863 286.633 192.057 286.121 192.417C284.498 193.561 284.046 195.771 284.037 197.757C283.874 197.041 284.012 196.293 284.009 195.568C284.005 194.843 283.803 194.005 283.182 193.62C282.799 193.414 282.368 193.313 281.933 193.327C281.206 193.298 280.392 193.373 279.896 193.908C279.271 194.571 279.437 195.684 279.974 196.409C280.51 197.134 281.331 197.6 282.086 198.104C282.69 198.464 283.206 198.957 283.594 199.545C283.64 199.627 283.678 199.714 283.706 199.804H288.281C289.304 199.282 290.252 198.624 291.099 197.847Z" fill="#9170FF"/>
</g>
<defs>
<clipPath id="clip0">
<rect width="357" height="204" fill="white"/>
</clipPath>
</defs>
</svg>
